<?xml version="1.0" encoding="utf-8"?>
<!-- Generator: Adobe Illustrator 21.1.0, SVG Export Plug-In . SVG Version: 6.00 Build 0)  -->
<svg version="1.1" id="Layer_1" xmlns="http://www.w3.org/2000/svg" xmlns:xlink="http://www.w3.org/1999/xlink" x="0px" y="0px"
	 viewBox="0 0 41 40" style="enable-background:new 0 0 41 40;" xml:space="preserve">
<style type="text/css">
	.st0{clip-path:url(#SVGID_2_);}
</style>
<g>
	<defs>
		<rect id="SVGID_1_" width="40.5" height="40"/>
	</defs>
	<clipPath id="SVGID_2_">
		<use xlink:href="#SVGID_1_"  style="overflow:visible;"/>
	</clipPath>
	<g class="st0">
		<rect x="6.4" y="28" width="5.3" height="4.3"/>
		<rect x="28.6" y="28" width="5.3" height="4.3"/>
		<rect x="10" y="4.2" width="21" height="1.4"/>
		<path d="M8,23.9h24.5c1.2,0,2.2-0.9,2.2-2.2V10.2c0-1.2-1-2.2-2.2-2.2H8c-1.2,0-2.2,1-2.2,2.2v11.6C5.8,23,6.8,23.9,8,23.9z
			 M7.3,10.2c0-0.5,0.4-0.7,0.7-0.7h24.5c0.5,0,0.7,0.4,0.7,0.7v11.6c0,0.4-0.3,0.7-0.7,0.7H8c-0.5,0-0.7-0.4-0.7-0.7V10.2z"/>
		<path d="M40.7,9.4h-2.9V2c0-1.2-1-2.2-2.2-2.2H4.7c-1.2,0-2.2,1-2.2,2.2v7.4h-2.7v10.1h2.7v14.9c0,0.5,0.2,1,0.5,1.4v2.9
			c0,0.8,0.6,1.4,1.4,1.4h5.1c0.8,0,1.4-0.6,1.4-1.4v-2.2h18.3v2.2c0,0.8,0.6,1.4,1.4,1.4h5.1c0.8,0,1.4-0.6,1.4-1.4v-2.8
			c0,0,0,0,0.1-0.1c0.4-0.4,0.6-1,0.5-1.5V19.5h2.9V9.4z M4,2c0-0.5,0.4-0.7,0.7-0.7h30.9c0.5,0,0.7,0.4,0.7,0.7l0,32.4
			c0,0.2-0.1,0.4-0.2,0.5c-0.1,0.2-0.4,0.2-0.6,0.2H4.7c-0.5,0-0.7-0.4-0.7-0.7V2z M1.2,18.1v-7.3h1.3v7.3H1.2z M9.6,38.8l-5.1,0
			v-2.2c0.1,0,0.1,0,0.2,0h4.9L9.6,38.8z M35.8,38.8l-5.1,0v-2.2h4.9c0,0,0.1,0,0.1,0L35.8,38.8z M39.3,18.1h-1.5v-7.3h1.5V18.1z"/>
	</g>
</g>
</svg>
