<?xml version="1.0" encoding="utf-8"?>
<!-- Generator: Adobe Illustrator 21.1.0, SVG Export Plug-In . SVG Version: 6.00 Build 0)  -->
<svg version="1.1" id="Layer_1" xmlns="http://www.w3.org/2000/svg" xmlns:xlink="http://www.w3.org/1999/xlink" x="0px" y="0px"
	 viewBox="0 0 53 41" style="enable-background:new 0 0 53 41;" xml:space="preserve">
<style type="text/css">
	.st0{clip-path:url(#SVGID_2_);}
	.st1{fill:none;}
</style>
<g>
	<defs>
		<rect id="SVGID_1_" width="53" height="41"/>
	</defs>
	<clipPath id="SVGID_2_">
		<use xlink:href="#SVGID_1_"  style="overflow:visible;"/>
	</clipPath>
	<g class="st0">
		<path class="st1" d="M2.2,23.9L8.7,38l5.1-7.7l-3.1-6.6C9.3,23.8,5.2,23.8,2.2,23.9z"/>
		<path class="st1" d="M51.2,14.8L45.4,2.2c-0.3-0.6-0.9-0.8-1.4-0.6L11.2,18.5c-0.3,0.1-0.5,0.3-0.6,0.6c-0.1,0.4-0.1,0.8,0,1.2
			l5.9,12.8c0.3,0.6,0.9,0.8,1.4,0.6l32.6-17C51.3,16.3,51.5,15.5,51.2,14.8z"/>
		<polygon class="st1" points="40.8,23.4 35.8,26 37.6,27.5 40.8,27.5 		"/>
		<path d="M39.3,39.6V28.9h3v-6.3l9.1-4.8c1.3-0.7,1.8-2.3,1.2-3.6L46.6,1.6c-0.7-1.3-2.1-1.8-3.4-1.2L10.6,17.2
			C10,17.5,9.6,18,9.3,18.6c-0.3,0.7-0.2,1.5,0.1,2.3l0.7,1.4c-2.5,0.1-8.1,0.2-8.9,0.2l-1.1,0l8.4,18.4l6-9.1l0.9,1.9
			c0.5,0.9,1.4,1.5,2.3,1.5c0.4,0,0.7-0.1,1-0.2l15.7-8.2l2.7,2.2h0.8v12H53v-1.4H39.3z M8.7,38L2.2,23.9c2.9-0.1,7.1-0.1,8.5-0.2
			l3.1,6.6L8.7,38z M18.1,33.7c-0.5,0.2-1.1,0-1.4-0.6l-5.9-12.8c-0.2-0.4-0.2-0.8,0-1.2c0.1-0.3,0.3-0.5,0.6-0.6L43.9,1.6
			c0.5-0.2,1.1,0,1.4,0.6l5.8,12.7c0.3,0.7,0.1,1.5-0.5,1.8L18.1,33.7z M35.8,26l5-2.6v4.2h-3.2L35.8,26z"/>
	</g>
</g>
</svg>
