<?xml version="1.0" encoding="utf-8"?>
<!-- Generator: Adobe Illustrator 21.1.0, SVG Export Plug-In . SVG Version: 6.00 Build 0)  -->
<svg version="1.1" id="Layer_1" xmlns="http://www.w3.org/2000/svg" xmlns:xlink="http://www.w3.org/1999/xlink" x="0px" y="0px"
	 viewBox="0 0 35 26" style="enable-background:new 0 0 35 26;" xml:space="preserve">
<style type="text/css">
	.st0{fill:none;}
</style>
<g>
	<path class="st0" d="M30.2,10.6H4.2l-0.6,1.5c-0.5,1.1-0.8,2.3-0.8,3.6v7h29v-7c0-1.2-0.3-2.5-0.8-3.6L30.2,10.6z M6.9,17.5
		c-1.4,0-2.5-1.1-2.5-2.5c0-1.4,1.1-2.5,2.5-2.5s2.5,1.1,2.5,2.5C9.4,16.4,8.3,17.5,6.9,17.5z M22,17.5h-9.7v-1H22V17.5z M22.9,14.7
		H11.5v-1h11.4V14.7z M27.6,17.5c-1.4,0-2.5-1.1-2.5-2.5c0-1.4,1.1-2.5,2.5-2.5s2.5,1.1,2.5,2.5C30.1,16.4,29,17.5,27.6,17.5z"/>
	<path class="st0" d="M27.6,13.5c-0.8,0-1.5,0.6-1.5,1.5s0.6,1.5,1.5,1.5s1.5-0.6,1.5-1.5S28.4,13.5,27.6,13.5z"/>
	<path class="st0" d="M23.8,7.1c-1.5,0-2.6,1.1-2.7,2.5h5.4C26.4,8.3,25.2,7.1,23.8,7.1z"/>
	<path class="st0" d="M6.9,13.5c-0.8,0-1.5,0.6-1.5,1.5s0.6,1.5,1.5,1.5s1.5-0.6,1.5-1.5S7.7,13.5,6.9,13.5z"/>
	<path class="st0" d="M20.1,9.6c0.1-2,1.7-3.5,3.7-3.5c1.9,0,3.6,1.5,3.7,3.5h2.3l-3-6.8c-0.5-1-1.5-1.8-2.6-1.8H10
		C8.9,1,7.9,1.8,7.5,2.8L4.6,9.6H20.1z"/>
	<path class="st0" d="M31.6,8h-1.3l1.5,3.4h2.1v-0.1l-1-2.3C32.7,8.4,32.1,8,31.6,8z"/>
	<path class="st0" d="M28.5,23.8v1.1c0,0.1,0.1,0.2,0.2,0.2h2.8c0.1,0,0.2-0.1,0.2-0.2v-1.1H28.5z"/>
	<path class="st0" d="M2.7,23.8v1c0,0.1,0.1,0.2,0.2,0.2h2.8c0.1,0,0.2-0.1,0.2-0.2v-1H2.7z"/>
	<path class="st0" d="M4.1,8H3.3C2.9,8,2.2,8.4,2.1,9l-1,2.4h1.7L4.1,8z"/>
	<path d="M34.8,11.1l-1-2.3C33.6,7.7,32.4,7,31.6,7h-1.8l-2.1-4.7c-0.6-1.4-2-2.3-3.6-2.3H10C8.6,0,7.1,0.9,6.5,2.4L4.6,7H3.3
		C2.5,7,1.4,7.8,1.1,8.7l-1,2.4c-0.2,0.4-0.1,0.7,0.1,1c0.2,0.3,0.5,0.4,0.7,0.4h1.4c-0.4,1-0.6,2.1-0.6,3.2v9.1
		c0,0.6,0.5,1.2,1.2,1.2h2.8c0.6,0,1.2-0.6,1.2-1.2v-0.9h20.7v0.9c0,0.6,0.5,1.2,1.2,1.2h2.8c0.6,0,1.2-0.6,1.2-1.2v-9.1
		c0-1.1-0.2-2.2-0.6-3.2h1.8c0.3,0,0.5-0.1,0.5-0.3C34.9,11.9,34.9,11.6,34.8,11.1z M31.7,22.8h-29v-7c0-1.3,0.3-2.5,0.8-3.6
		l0.6-1.5h26.1l0.6,1.5c0.5,1.1,0.8,2.4,0.8,3.6V22.8z M21.1,9.6c0.1-1.4,1.3-2.5,2.7-2.5c1.5,0,2.6,1.1,2.7,2.5H21.1z M7.5,2.8
		C7.9,1.8,8.9,1,10,1h14.1c1.2,0,2.2,0.7,2.6,1.8l3,6.8h-2.3c-0.1-2-1.8-3.5-3.7-3.5c-2,0-3.6,1.5-3.7,3.5H4.6L7.5,2.8z M2.1,9
		C2.2,8.4,2.9,8,3.3,8h0.9l-1.4,3.3H1.1L2.1,9z M5.7,25H2.9c-0.1,0-0.2-0.1-0.2-0.2v-1h3.2v1C5.9,24.9,5.8,25,5.7,25z M31.5,25.1
		h-2.8c-0.1,0-0.2-0.1-0.2-0.2v-1.1h3.2v1.1C31.7,25,31.6,25.1,31.5,25.1z M33.9,11.5h-2.1L30.3,8h1.3c0.5,0,1.1,0.4,1.3,1
		L33.9,11.5L33.9,11.5z"/>
	<path d="M6.9,12.5c-1.4,0-2.5,1.1-2.5,2.5c0,1.4,1.1,2.5,2.5,2.5s2.5-1.1,2.5-2.5C9.4,13.6,8.3,12.5,6.9,12.5z M6.9,16.5
		c-0.8,0-1.5-0.6-1.5-1.5s0.6-1.5,1.5-1.5s1.5,0.6,1.5,1.5S7.7,16.5,6.9,16.5z"/>
	<path d="M27.6,12.5c-1.4,0-2.5,1.1-2.5,2.5c0,1.4,1.1,2.5,2.5,2.5s2.5-1.1,2.5-2.5C30.1,13.6,29,12.5,27.6,12.5z M27.6,16.5
		c-0.8,0-1.5-0.6-1.5-1.5s0.6-1.5,1.5-1.5s1.5,0.6,1.5,1.5S28.4,16.5,27.6,16.5z"/>
	<rect x="11.5" y="13.7" width="11.4" height="1"/>
	<rect x="12.3" y="16.5" width="9.7" height="1"/>
</g>
</svg>
