<?xml version="1.0" encoding="utf-8"?>
<!-- Generator: Adobe Illustrator 21.1.0, SVG Export Plug-In . SVG Version: 6.00 Build 0)  -->
<svg version="1.1" id="Layer_1" xmlns="http://www.w3.org/2000/svg" xmlns:xlink="http://www.w3.org/1999/xlink" x="0px" y="0px"
	 viewBox="0 0 34.6 40.2" style="enable-background:new 0 0 34.6 40.2;" xml:space="preserve">
<style type="text/css">
	.st0{fill:none;}
</style>
<g>
	<rect x="10" y="4.8" class="st0" width="14.6" height="2.7"/>
	<polygon class="st0" points="23.8,17.8 23.8,9 21.6,9 21.6,14.6 20.2,14.6 20.2,9 18.1,9 18.1,13.3 16.7,13.3 16.7,9 14.7,9 
		14.7,14.6 13.3,14.6 13.3,9 11.1,9 11.1,17.7 17.3,15.2 	"/>
	<path class="st0" d="M3.4,38.7h8.5v-4.3c0-3.1,2.4-5.5,5.5-5.5c3.1,0,5.5,2.4,5.5,5.5v4.4h8.6V26.4h-28V38.7z"/>
	<path class="st0" d="M1.4,23.1V25H2h30.8h0.3v-1.8l-15.9-6.4L1.4,23.1z M24.4,23.4H10.2v-1.2l7.1-2.9l7.1,2.9V23.4z"/>
	<path d="M34.6,22.2l-9.3-3.8V9H26V3.4h-7.9V0h-1.4v3.4H8.6V9h1.1v9.3L0,22.2v4.2h2v13.8h11.3v-5.8c0-2.3,1.8-4,4-4s4,1.8,4,4v5.8
		h11.5V26.4h1.7V22.2z M10,4.8h14.6v2.7H10V4.8z M11.1,9h2.2v5.6h1.4V9h2v4.4h1.4V9h2v5.6h1.4V9h2.2v8.9l-6.5-2.6l-6.2,2.5V9z
		 M31.4,38.8h-8.6v-4.4c0-3.1-2.4-5.5-5.5-5.5c-3.1,0-5.5,2.4-5.5,5.5v4.3H3.4V26.4h28V38.8z M33.2,25h-0.3H2H1.4v-1.8l15.9-6.4
		l15.9,6.4V25z"/>
	<polygon points="10.2,22.2 10.2,23.4 24.4,23.4 24.4,22.2 17.3,19.3 	"/>
</g>
</svg>
