<?xml version="1.0" encoding="utf-8"?>
<!-- Generator: Adobe Illustrator 21.1.0, SVG Export Plug-In . SVG Version: 6.00 Build 0)  -->
<svg version="1.1" id="Layer_1" xmlns="http://www.w3.org/2000/svg" xmlns:xlink="http://www.w3.org/1999/xlink" x="0px" y="0px"
	 viewBox="0 0 41 41" style="enable-background:new 0 0 41 41;" xml:space="preserve">
<style type="text/css">
	.st0{fill:none;}
</style>
<g>
	<path class="st0" d="M18.9,15c-2.5,1.3-5.8,1.3-9.1,0.2v-1.6c0.1,0,0.3,0.1,0.4,0.1c3,1,5.8,0.8,7.9-0.1c4.2-2.1,6.3-3.1,11-2.2
		c1.2,0.2,2.7,0.6,4.4,1.1V2.7c0-0.6-0.5-1.3-1.3-1.3H8.6c-0.6,0-1.3,0.5-1.3,1.3v10c0,0,0,0,0,0v1.6c0,0,0,0,0,0v5.3c0,0,0,0,0,0
		v1.6c0,0,0,0,0,0v5.3c0,0,0,0,0,0v1.6c0,0,0,0,0,0v10.2c0,0.6,0.5,1.3,1.3,1.3h23.7c0.8,0,1.3-0.5,1.3-1.3V27.8
		c-1.7-0.4-3.4-0.9-4.6-1.1c-4.2-0.7-5.9,0-10,2C16.4,30,13.1,30,9.8,29v-1.6c0.1,0,0.3,0.1,0.4,0.1c3,1,5.8,0.8,7.9-0.1
		c4.1-2,6.2-3.1,11.1-2.1c1.2,0.2,2.7,0.5,4.3,1v-5.3c-1.7-0.4-3.4-0.9-4.6-1.1c-4.2-0.7-5.9,0-10,2c-2.5,1.3-5.8,1.3-9.1,0.2v-1.6
		c0.1,0,0.3,0.1,0.4,0.1c3,1,5.8,0.8,7.9-0.1c4.1-2,6.2-3.1,11.1-2.1c1.2,0.2,2.7,0.5,4.3,1v-5.3c-1.7-0.4-3.4-0.9-4.6-1.1
		C24.7,12.3,23,13,18.9,15z"/>
	<path d="M40.8,16.2v-1.6c-1.1-0.3-3.4-1-5.8-1.7V2.7c0-1.5-1.2-2.7-2.7-2.7H8.6C7.1,0,5.8,1.2,5.8,2.7v9.6
		c-2.3-0.6-4.4-1.1-5.8-1.5v1.6c1.5,0.3,3.6,0.8,5.8,1.5v5.3c-2.3-0.6-4.4-1.1-5.8-1.5v1.6c1.5,0.3,3.6,0.8,5.8,1.5v5.3
		C3.6,25.5,1.5,25,0,24.6v1.6c1.5,0.3,3.6,0.8,5.8,1.5v10.6c0,1.5,1.2,2.7,2.7,2.7h23.7c1.5,0,2.7-1.2,2.7-2.7V28.2
		c2.7,0.7,5.1,1.5,5.8,1.7v-1.6c-1.1-0.3-3.4-1.1-5.8-1.7v-5.3c2.7,0.7,5.1,1.5,5.8,1.7v-1.6c-1.1-0.3-3.4-1.1-5.8-1.7v-5.3
		C37.6,15.2,40.1,15.9,40.8,16.2z M33.5,19.3c-1.6-0.4-3.1-0.8-4.3-1c-4.9-1-7,0.1-11.1,2.1c-2.1,1-5,1.1-7.9,0.1
		c-0.1,0-0.3-0.1-0.4-0.1v1.6c3.3,1.1,6.6,1.1,9.1-0.2c4.1-2,5.8-2.7,10-2c1.2,0.2,2.9,0.6,4.6,1.1v5.3c-1.6-0.4-3.1-0.8-4.3-1
		c-4.9-1-7,0.1-11.1,2.1c-2.1,1-5,1.1-7.9,0.1c-0.1,0-0.3-0.1-0.4-0.1V29c3.3,1.1,6.6,1.1,9.1-0.2c4.1-2,5.8-2.7,10-2
		c1.2,0.2,2.9,0.6,4.6,1.1v10.4c0,0.8-0.5,1.3-1.3,1.3H8.6c-0.8,0-1.3-0.7-1.3-1.3V28.1c0,0,0,0,0,0v-1.6c0,0,0,0,0,0v-5.3
		c0,0,0,0,0,0v-1.6c0,0,0,0,0,0v-5.3c0,0,0,0,0,0v-1.6c0,0,0,0,0,0v-10c0-0.8,0.7-1.3,1.3-1.3h23.7c0.8,0,1.3,0.7,1.3,1.3v9.7
		c-1.6-0.4-3.2-0.8-4.4-1.1c-4.6-0.8-6.8,0.1-11,2.2c-2.1,1-5,1.1-7.9,0.1c-0.1,0-0.3-0.1-0.4-0.1v1.6c3.3,1.1,6.6,1.1,9.1-0.2
		c4.1-2,5.8-2.7,10-2c1.2,0.2,2.9,0.6,4.6,1.1V19.3z"/>
</g>
</svg>
