<svg width="30" height="30" viewBox="0 0 30 30" fill="none" xmlns="http://www.w3.org/2000/svg">
<g clip-path="url(#clip0)">
<path d="M19.5802 0.171756H18.7786V4.46565L16.7176 3.77863V0.171756H15.916V3.43511L5.78244 0V17.6336H2.80534V13.9122H2.00382V17.6336H0V30H11.1641H11.5649H21.7557V5.43893L19.6374 4.69466V0.171756H19.5802ZM10.7634 29.1412H0.801527V18.4351H10.7061V29.1412H10.7634ZM16.2023 25.5343C15.229 25.5343 14.4847 24.7328 14.4847 23.8168C14.4847 22.9008 15.2863 22.0992 16.2023 22.0992C17.1183 22.0992 17.9198 22.9008 17.9198 23.8168C17.9198 24.7328 17.1756 25.5343 16.2023 25.5343ZM20.8969 29.1412H16.7176V26.2786C17.8626 26.0496 18.7786 25.0191 18.7786 23.7595C18.7786 22.3282 17.6336 21.1832 16.2023 21.1832C14.771 21.1832 13.626 22.3282 13.626 23.7595C13.626 25.0763 14.5992 26.1069 15.8588 26.2786V29.1412H11.5076V17.6336H6.52672V1.14504L20.8397 6.01145V29.1412H20.8969Z" fill="#2C3848"/>
<path d="M18.8932 8.93127H8.58789V9.7328H18.8932V8.93127Z" fill="#2C3848"/>
<path d="M18.8932 14.6565H8.58789V15.458H18.8932V14.6565Z" fill="#2C3848"/>
<path d="M13.7406 11.6793H8.58789V12.4808H13.7406V11.6793Z" fill="#2C3848"/>
<path d="M18.893 11.6793H15.7441V12.4808H18.893V11.6793Z" fill="#2C3848"/>
<path d="M26.851 11.2214H24.1602V12.023H26.851V11.2214Z" fill="#2C3848"/>
<path d="M26.851 14.8855H24.1602V15.687H26.851V14.8855Z" fill="#2C3848"/>
<path d="M26.851 18.4923H24.1602V19.2938H26.851V18.4923Z" fill="#2C3848"/>
<path d="M26.851 22.0992H24.1602V22.9008H26.851V22.0992Z" fill="#2C3848"/>
<path d="M26.851 25.7633H24.1602V26.5648H26.851V25.7633Z" fill="#2C3848"/>
<path d="M12.6528 6.01147H8.58789V6.813H12.6528V6.01147Z" fill="#2C3848"/>
<path d="M4.46548 20.439H2.80518V21.2405H4.46548V20.439Z" fill="#2C3848"/>
<path d="M8.9313 20.439H7.271V21.2405H8.9313V20.439Z" fill="#2C3848"/>
<path d="M4.46548 23.416H2.80518V24.2175H4.46548V23.416Z" fill="#2C3848"/>
<path d="M8.9313 23.416H7.271V24.2175H8.9313V23.416Z" fill="#2C3848"/>
<path d="M4.46548 26.3358H2.80518V27.1373H4.46548V26.3358Z" fill="#2C3848"/>
<path d="M8.9313 26.3358H7.271V27.1373H8.9313V26.3358Z" fill="#2C3848"/>
<path d="M18.8929 17.6335H13.7402V18.4351H18.8929V17.6335Z" fill="#2C3848"/>
<path d="M24.1602 8.01526V8.81679H29.1411V29.1412H24.1602V30H29.9426V8.01526H24.1602Z" fill="#2C3848"/>
</g>
<defs>
<clipPath id="clip0">
<rect width="29.9427" height="30" fill="white"/>
</clipPath>
</defs>
</svg>
