<svg width="27" height="30" viewBox="0 0 27 30" fill="none" xmlns="http://www.w3.org/2000/svg">
<g clip-path="url(#clip0)">
<path d="M26.9826 30H0V4.75824H26.9826V30ZM0.812379 29.1876H26.1702V5.62865H0.812379V29.1876Z" fill="#2C3848"/>
<path d="M8.18197 10.735H3.36572V7.25336H8.18197V10.735ZM4.1781 9.86458H7.36959V8.00771H4.1781V9.86458Z" fill="#2C3848"/>
<path d="M8.18197 16.0155H3.36572V12.5339H8.18197V16.0155ZM4.1781 15.1451H7.36959V13.3463H4.1781V15.1451Z" fill="#2C3848"/>
<path d="M8.18197 21.296H3.36572V17.8143H8.18197V21.296ZM4.1781 20.4836H7.36959V18.6267H4.1781V20.4836Z" fill="#2C3848"/>
<path d="M8.18197 26.5764H3.36572V23.0948H8.18197V26.5764ZM4.1781 25.764H7.36959V23.9072H4.1781V25.764Z" fill="#2C3848"/>
<path d="M15.8993 10.735H11.083V7.25336H15.8993V10.735ZM11.8954 9.86458H15.0869V8.00771H11.8954V9.86458Z" fill="#2C3848"/>
<path d="M15.8993 16.0155H11.083V12.5339H15.8993V16.0155ZM11.8954 15.1451H15.0869V13.3463H11.8954V15.1451Z" fill="#2C3848"/>
<path d="M15.8993 21.296H11.083V17.8143H15.8993V21.296ZM11.8954 20.4836H15.0869V18.6267H11.8954V20.4836Z" fill="#2C3848"/>
<path d="M15.8993 30H11.083V23.0948H15.8993V30ZM11.8954 29.1876H15.0869V23.9072H11.8954V29.1876Z" fill="#2C3848"/>
<path d="M23.9652 10.735H19.1489V7.25336H23.9652V10.735ZM19.9613 9.86458H23.1528V8.00771H19.9613V9.86458Z" fill="#2C3848"/>
<path d="M23.9652 16.0155H19.1489V12.5339H23.9652V16.0155ZM19.9613 15.1451H23.1528V13.3463H19.9613V15.1451Z" fill="#2C3848"/>
<path d="M23.9652 21.296H19.1489V17.8143H23.9652V21.296ZM19.9613 20.4836H23.1528V18.6267H19.9613V20.4836Z" fill="#2C3848"/>
<path d="M23.9652 26.5764H19.1489V23.0948H23.9652V26.5764ZM19.9613 25.764H23.1528V23.9072H19.9613V25.764Z" fill="#2C3848"/>
<path d="M2.90132 0L3.42356 1.56673H5.10635L3.77172 2.55319L4.29397 4.17795L2.90132 3.19149L1.5667 4.17795L2.08894 2.55319L0.696289 1.56673H2.37907L2.90132 0Z" fill="#2C3848"/>
<path d="M8.2978 0L8.82005 1.56673H10.5028L9.11018 2.55319L9.63243 4.17795L8.2978 3.19149L6.90515 4.17795L7.4274 2.55319L6.09277 1.56673H7.77556L8.2978 0Z" fill="#2C3848"/>
<path d="M13.6363 0L14.1585 1.56673H15.8413L14.5067 2.55319L15.0289 4.17795L13.6363 3.19149L12.3016 4.17795L12.8239 2.55319L11.4893 1.56673H13.114L13.6363 0Z" fill="#2C3848"/>
<path d="M19.0332 0L19.5554 1.56673H21.2382L19.8455 2.55319L20.3678 4.17795L19.0332 3.19149L17.6985 4.17795L18.1627 2.55319L16.8281 1.56673H18.5109L19.0332 0Z" fill="#2C3848"/>
<path d="M24.4291 0L24.8934 1.56673H26.5762L25.2415 2.55319L25.7638 4.17795L24.4291 3.19149L23.0365 4.17795L23.5587 2.55319L22.2241 1.56673H23.9069L24.4291 0Z" fill="#2C3848"/>
</g>
<defs>
<clipPath id="clip0">
<rect width="26.9826" height="30" fill="white"/>
</clipPath>
</defs>
</svg>
