<?xml version="1.0" encoding="utf-8"?>
<!-- Generator: Adobe Illustrator 21.1.0, SVG Export Plug-In . SVG Version: 6.00 Build 0)  -->
<svg version="1.1" id="Layer_1" xmlns="http://www.w3.org/2000/svg" xmlns:xlink="http://www.w3.org/1999/xlink" x="0px" y="0px"
	 viewBox="0 0 31.5 40" style="enable-background:new 0 0 31.5 40;" xml:space="preserve">
<g>
	<g>
		<g>
			<path d="M28.9,40H2.6C1.2,40,0,38.8,0,37.4V10.2c0-1.4,1.2-2.6,2.6-2.6h26.3c1.4,0,2.6,1.2,2.6,2.6v27.1c0.1,0.6-0.2,1.3-0.6,1.9
				C30.4,39.7,29.7,40,28.9,40z M2.6,9C2,9,1.4,9.5,1.4,10.2v27.2c0,0.6,0.5,1.2,1.2,1.2h26.3c0.4,0,0.7-0.1,0.9-0.4
				c0.2-0.2,0.3-0.5,0.3-0.8l0-27.2c0-0.6-0.5-1.2-1.2-1.2H2.6z"/>
		</g>
		<g>
			<path d="M9.7,5H5.3l2.2-2.5L9.7,0l2.1,2.5L14,5H9.7z"/>
		</g>
		<g>
			<path d="M22.8,0h4.4L25,2.5L22.8,5l-2.1-2.5L18.5,0H22.8z"/>
		</g>
		<g>
			<path d="M13.2,36.8H7.1l-0.3-7.9H5.4v-7c0-2.6,2.1-4.7,4.7-4.7s4.7,2.1,4.7,4.7v7h-1.4L13.2,36.8z M8.5,35.4h3.3l0.2-7.9h1.4
				v-5.6c0-1.8-1.5-3.3-3.3-3.3s-3.3,1.5-3.3,3.3v5.6h1.4L8.5,35.4z"/>
		</g>
		<g>
			<path d="M10.1,17C8.4,17,7,15.6,7,13.9s1.4-3.1,3.1-3.1c1.7,0,3.1,1.4,3.1,3.1S11.8,17,10.1,17z M10.1,12.2
				c-0.9,0-1.7,0.8-1.7,1.7s0.8,1.7,1.7,1.7s1.7-0.8,1.7-1.7S11,12.2,10.1,12.2z"/>
		</g>
		<g>
			<path d="M24.7,36.8h-6.1l-0.3-7.9h-1.4v-7c0-2.6,2.1-4.7,4.7-4.7s4.7,2.1,4.7,4.7v7h-1.4L24.7,36.8z M20,35.4h3.3l0.2-7.9h1.4
				v-5.6c0-1.8-1.5-3.3-3.3-3.3s-3.3,1.5-3.3,3.3v5.6h1.4L20,35.4z"/>
		</g>
		<g>
			<path d="M21.5,17c-1.7,0-3.1-1.4-3.1-3.1s1.4-3.1,3.1-3.1s3.1,1.4,3.1,3.1S23.2,17,21.5,17z M21.5,12.2c-0.9,0-1.7,0.8-1.7,1.7
				s0.8,1.7,1.7,1.7s1.7-0.8,1.7-1.7S22.4,12.2,21.5,12.2z"/>
		</g>
	</g>
</g>
</svg>
