<?xml version="1.0" encoding="utf-8"?>
<!-- Generator: Adobe Illustrator 21.1.0, SVG Export Plug-In . SVG Version: 6.00 Build 0)  -->
<svg version="1.1" id="Layer_1" xmlns="http://www.w3.org/2000/svg" xmlns:xlink="http://www.w3.org/1999/xlink" x="0px" y="0px"
	 viewBox="0 0 34 40" style="enable-background:new 0 0 34 40;" xml:space="preserve">
<style type="text/css">
	.st0{fill:none;}
</style>
<g>
	<polygon class="st0" points="1.2,26.5 1.2,28.4 12.3,22.8 12.3,15.5 	"/>
	<polygon class="st0" points="12.3,32.9 9.9,35.5 9.9,37.8 12.3,36.6 	"/>
	<polygon class="st0" points="32.1,28.4 32.1,26.5 20.9,15.5 20.9,22.8 	"/>
	<polygon class="st0" points="23.4,37.8 23.4,35.5 20.9,32.9 20.9,36.6 	"/>
	<path class="st0" d="M17,25.8v-1.4h2.5l0-1.4H17v-1.4h2.5l0-1.4H17v-1.4h2.5l0-1.4H17v-1.4h2.5l0-1.3H17v-1.4h2.5l0-1.4H17v-1.4
		h2.5l0-4.8c0-1.6-1.4-4.7-2.6-4.7h-0.5c-1.2,0-2.6,3.1-2.6,4.7v31.2l2.2,0v-7.5h1.8v7.5l1.8,0l0-11.2H17z"/>
	<path d="M33.5,30.7v-4.8L20.9,13.5V5.9c0-1.9-1.5-6.1-4-6.1h-0.5c-2.5,0-4,4.2-4,6.1v7.6L-0.2,25.9v4.8l12.6-6.4v6.5l-3.9,4.1v5.2
		l4.2-2.1c0.2,0.3,0.6,0.5,1,0.5h2.2V40h1.8v-1.5h1.8c0.4,0,0.8-0.2,1-0.5l4.3,2.1v-5.2l-3.9-4.1v-6.5L33.5,30.7z M1.2,28.4v-1.9
		l11.2-11v7.3L1.2,28.4z M9.9,35.5l2.4-2.6v3.7l-2.4,1.2V35.5z M32.1,26.5v1.9l-11.1-5.6v-7.3L32.1,26.5z M17.7,37.1v-7.5h-1.8v7.5
		l-2.2,0V5.9c0-1.6,1.4-4.7,2.6-4.7h0.5c1.2,0,2.6,3.1,2.6,4.7l0,4.8H17v1.4h2.5l0,1.4H17v1.4h2.5l0,1.3H17v1.4h2.5l0,1.4H17v1.4
		h2.5l0,1.4H17v1.4h2.5l0,1.4H17v1.4h2.5l0,11.2L17.7,37.1z M23.4,35.5v2.4l-2.5-1.3v-3.7L23.4,35.5z"/>
</g>
</svg>
