<?xml version="1.0" encoding="utf-8"?>
<!-- Generator: Adobe Illustrator 21.1.0, SVG Export Plug-In . SVG Version: 6.00 Build 0)  -->
<svg version="1.1" id="Layer_1" xmlns="http://www.w3.org/2000/svg" xmlns:xlink="http://www.w3.org/1999/xlink" x="0px" y="0px"
	 viewBox="0 0 54.4 29.4" style="enable-background:new 0 0 54.4 29.4;" xml:space="preserve">
<g>
	<path d="M50.9,26.1H3.5c-1.9,0-3.5-1.6-3.5-3.5V3.5C0,1.6,1.6,0,3.5,0h47.4c1.9,0,3.5,1.6,3.5,3.5v19.2c0.1,0.8-0.2,1.7-0.8,2.4
		C52.9,25.7,52,26.1,50.9,26.1z M3.5,1.4c-1,0-2.1,0.8-2.1,2.1v19.2c0,1,0.8,2.1,2.1,2.1h47.4c0.7,0,1.2-0.2,1.6-0.7
		c0.3-0.4,0.5-0.8,0.4-1.3l0-19.2c0-1-0.8-2.1-2.1-2.1H3.5z"/>
</g>
<g>
	<path d="M40.2,17.5c-2.4,0-4.4-2-4.4-4.4s2-4.4,4.4-4.4s4.4,2,4.4,4.4S42.6,17.5,40.2,17.5z M40.2,10.2c-1.6,0-2.9,1.3-2.9,3
		s1.3,2.9,2.9,2.9c1.6,0,3-1.3,3-2.9S41.8,10.2,40.2,10.2z"/>
</g>
<g>
	<path d="M40.2,22.5c-5.2,0-9.3-4.2-9.3-9.3s4.2-9.3,9.3-9.3c5.2,0,9.3,4.2,9.3,9.3S45.4,22.5,40.2,22.5z M40.2,5.2
		c-4.4,0-7.9,3.6-7.9,7.9c0,4.4,3.6,7.9,7.9,7.9s7.9-3.6,7.9-7.9C48.1,8.8,44.6,5.2,40.2,5.2z"/>
</g>
<g>
	<rect x="7" y="8.6" width="21.2" height="1.4"/>
</g>
<g>
	<rect x="7" y="13" width="21.2" height="1.4"/>
</g>
<g>
	<rect x="7" y="17.3" width="21.2" height="1.4"/>
</g>
<g>
	<rect x="4.7" y="28" width="7.8" height="1.4"/>
</g>
<g>
	<rect x="42.3" y="28" width="7.8" height="1.4"/>
</g>
</svg>
