<?xml version="1.0" encoding="utf-8"?>
<!-- Generator: Adobe Illustrator 21.1.0, SVG Export Plug-In . SVG Version: 6.00 Build 0)  -->
<svg version="1.1" id="Layer_1" xmlns="http://www.w3.org/2000/svg" xmlns:xlink="http://www.w3.org/1999/xlink" x="0px" y="0px"
	 viewBox="0 0 30 41" style="enable-background:new 0 0 30 41;" xml:space="preserve">
<style type="text/css">
	.st0{fill:none;}
</style>
<g>
	<path class="st0" d="M11.5,2.5c-0.3-0.1-0.7-0.1-1-0.2v8.4H9.1V2.2c-0.8-0.1-1.6-0.1-2.5,0v8.6H5.2V2.2C4.8,2.3,4.4,2.3,4,2.4
		L2.5,2.6C2.1,6.8,1.6,13,1.9,14.3c0.3,1.2,2.6,2.7,4,3.4l0.5,0.2l-0.1,0.5c-0.6,4.9-1.7,18.1,0.5,20.7c0.3,0.3,0.5,0.3,0.6,0.3h0.7
		v0.1c0.1,0,0.3-0.1,0.5-0.3c2.2-2.5,1.2-15.8,0.6-20.7L9.2,18l0.4-0.2c1.4-0.7,3.7-2.2,4-3.4c0.3-1.2-0.2-7.6-0.6-11.7L11.5,2.5z"
		/>
	<path class="st0" d="M23.9,26.5c-0.6-1.3-1.1-2.6-1-3.7c0.1-0.7,0.7-1.7,1.6-3c1.5-2.3,3.5-5.5,3.2-8.3C27.2,6.7,23,3.8,21,2.7V39
		c0,0,0.1,0.1,0.2,0.1c0.8,0.2,1.7,0.3,2.5-1c1.4-2.2,1.6-6.6,1.1-8.7C24.7,28.4,24.3,27.4,23.9,26.5z"/>
	<path d="M14.3,1.6l-2.5-0.5C9.2,0.6,6.5,0.5,3.7,1L1.2,1.5L1.2,2C1,3.1,0.1,12.7,0.6,14.6c0.4,1.8,3.1,3.5,4.3,4.1
		c-0.4,3.3-2,18,1,21.3c0.3,0.3,0.6,0.5,1,0.7v0.3h1.3c0.6,0,1.2-0.3,1.6-0.8c2.9-3.3,1.4-18,1-21.3c1.1-0.6,3.8-2.3,4.3-4.1
		c0.5-1.9-0.5-11.6-0.6-12.7L14.3,1.6z M13.6,14.4c-0.3,1.2-2.6,2.7-4,3.4L9.2,18l0.1,0.5c0.6,4.9,1.6,18.2-0.6,20.7
		c-0.2,0.2-0.3,0.3-0.5,0.3v-0.1H7.4c-0.1,0-0.4,0-0.6-0.3c-2.3-2.6-1.2-15.8-0.5-20.7l0.1-0.5l-0.5-0.2c-1.4-0.7-3.7-2.2-4-3.4
		C1.6,13,2.1,6.8,2.5,2.6L4,2.4c0.4-0.1,0.8-0.1,1.2-0.1v8.5h1.4V2.1c0.8,0,1.6,0,2.5,0v8.6h1.4V2.3c0.3,0,0.7,0.1,1,0.2L13,2.8
		C13.4,6.9,13.9,13.3,13.6,14.4z"/>
	<path d="M25.2,25.9c-0.5-1.2-1-2.3-0.9-3c0-0.4,0.7-1.5,1.3-2.4c1.6-2.5,3.8-5.9,3.5-9.3C28.4,4.3,20.9,1,20.6,0.9l-1-0.4V39
		c0,0.6,0.4,1.2,1.1,1.5c0.4,0.1,0.8,0.2,1.2,0.2c1.2,0,2.2-0.6,3-1.8c1.7-2.7,1.8-7.4,1.3-9.7C26.1,28,25.6,26.9,25.2,25.9z
		 M23.8,38.1c-0.8,1.3-1.8,1.2-2.5,1C21.1,39,21,39,21,39V2.7c2,1.1,6.2,4,6.7,8.6c0.3,2.9-1.8,6-3.2,8.3c-0.9,1.3-1.5,2.3-1.6,3
		c-0.1,1.1,0.4,2.4,1,3.7c0.4,1,0.8,1.9,1,2.9C25.3,31.5,25.2,35.8,23.8,38.1z"/>
</g>
</svg>
