<?xml version="1.0" encoding="utf-8"?>
<!-- Generator: Adobe Illustrator 21.1.0, SVG Export Plug-In . SVG Version: 6.00 Build 0)  -->
<svg version="1.1" id="Layer_1" xmlns="http://www.w3.org/2000/svg" xmlns:xlink="http://www.w3.org/1999/xlink" x="0px" y="0px"
	 viewBox="0 0 42.1 40.3" style="enable-background:new 0 0 42.1 40.3;" xml:space="preserve">
<g>
	<polygon points="42.1,14.1 0,14.1 0,15.6 2.9,15.6 3.5,17.1 6.7,17.1 7.3,15.6 34.8,15.6 35.4,17.1 38.6,17.1 39.1,15.6 42.1,15.6 
			"/>
	<polygon points="16.5,1.4 20.4,1.4 20.4,5.9 18.8,5.9 18.6,7.1 20.4,7.1 20.4,11.3 21.8,11.3 21.8,7.1 23.4,7.1 23.3,5.9 21.8,5.9 
		21.8,1.4 25.8,1.4 28.1,11.3 29.5,11 26.9,0 15.4,0 12.7,11 14,11.3 	"/>
	<polygon points="29.5,18.5 34.2,38.9 21.7,38.9 21.7,36.3 28.8,36.3 28.6,35.3 21.7,35.3 21.7,28.2 27.1,28.2 27,27.1 21.7,27.1 
		21.7,21.1 25.7,21.1 25.5,20 21.7,20 21.7,18.4 20.3,18.4 20.3,20 16.4,20 16.3,21.1 20.3,21.1 20.3,27.1 15.2,27.1 15,28.2 
		20.3,28.2 20.3,35.3 14.2,35.3 14,36.3 20.3,36.3 20.3,38.9 7.8,38.9 12.5,18.5 11.1,18.2 6,40.3 36,40.3 30.9,18.2 	"/>
</g>
</svg>
