<?xml version="1.0" encoding="utf-8"?>
<!-- Generator: Adobe Illustrator 21.1.0, SVG Export Plug-In . SVG Version: 6.00 Build 0)  -->
<svg version="1.1" id="Layer_1" xmlns="http://www.w3.org/2000/svg" xmlns:xlink="http://www.w3.org/1999/xlink" x="0px" y="0px"
	 viewBox="0 0 22 41" style="enable-background:new 0 0 22 41;" xml:space="preserve">
<g>
	<g>
		<g>
			<rect x="6.3" y="30.7" width="1.4" height="10.3"/>
		</g>
		<g>
			<rect x="13.6" y="30.7" width="1.4" height="8"/>
		</g>
		<g>
			<path d="M16.2,31.2H5c-1.4,0-2.6-1-2.7-2.4l0-0.4c-0.2-1.3-0.6-2.8-1.4-4.4l-0.8-1.7V0h21.3v22.4l-0.8,1.3
				c-0.9,1.7-1.4,3.4-1.6,5.1C18.6,30.2,17.5,31.2,16.2,31.2z M1.5,22.1l0.6,1.4c0.8,1.7,1.3,3.3,1.5,4.9l0,0.4c0.1,0.5,0.6,1,1.3,1
				h11.2c0.6,0,1.2-0.5,1.3-1.3c0.2-1.8,0.8-3.7,1.8-5.6l0.6-1V1.4H1.5V22.1z"/>
		</g>
		<g>
			<polygon points="13.6,26.1 7.7,26.1 7.7,15 4.4,15 4.4,10.2 0.7,10.2 0.7,8.8 5.8,8.8 5.8,13.6 9.1,13.6 9.1,24.7 12.1,24.7 
				12.1,13.6 15.5,13.6 15.5,8.8 20.6,8.8 20.6,10.2 16.9,10.2 16.9,15 13.6,15 			"/>
		</g>
		<g>
			<rect x="4.4" y="0.7" width="1.4" height="6.1"/>
		</g>
		<g>
			<rect x="9.9" y="0.7" width="1.4" height="6.1"/>
		</g>
		<g>
			<rect x="15.5" y="0.7" width="1.4" height="6.1"/>
		</g>
	</g>
</g>
</svg>
