<?xml version="1.0" encoding="utf-8"?>
<!-- Generator: Adobe Illustrator 21.1.0, SVG Export Plug-In . SVG Version: 6.00 Build 0)  -->
<svg version="1.1" id="Layer_1" xmlns="http://www.w3.org/2000/svg" xmlns:xlink="http://www.w3.org/1999/xlink" x="0px" y="0px"
	 viewBox="0 0 44 40" style="enable-background:new 0 0 44 40;" xml:space="preserve">
<style type="text/css">
	.st0{fill:none;}
</style>
<g>
	<path class="st0" d="M1.3,11.2v2.1c0,0.1,0.1,0.1,0.1,0.1h2.2c0.1,0,0.1-0.1,0.1-0.1v-2.1H1.3z"/>
	<path class="st0" d="M31.4,6.1H12c-0.3,0-0.7,0.3-0.7,0.7v8.9c0,0.3,0.3,0.7,0.7,0.7h19.4c0.3,0,0.7-0.3,0.7-0.8V6.8
		C32.1,6.4,31.9,6.1,31.4,6.1z"/>
	<path class="st0" d="M3.7,9.8V6.1H1.4c-0.1,0-0.1,0.1-0.1,0.1v3.6H3.7z"/>
	<path class="st0" d="M42.1,9.8V6.2c0-0.1-0.1-0.1-0.1-0.1h-2.3v3.7H42.1z"/>
	<path class="st0" d="M34.3,1.2H9.2C8.5,1.2,8,1.7,8,2.4v28.2c0,0.6,0.5,1.2,1.2,1.2h25.1c0.6,0,1.2-0.5,1.2-1.2V2.4
		C35.4,1.7,34.9,1.2,34.3,1.2z M15.8,27h-5.2v-4.2h5.2V27z M24.7,26.9h-6.4v-1.4h6.4V26.9z M24.7,23.4h-6.4v-1.4h6.4V23.4z M32.8,27
		h-5.2v-4.2h5.2V27z M33.6,15.6c0,1.2-1,2.2-2.1,2.2H12c-1.2,0-2.1-1-2.1-2.1V6.8c0-1.2,1-2.1,2.1-2.1h19.4c1.2,0,2.1,1,2.1,2.1
		V15.6z"/>
	<path class="st0" d="M39.7,11.2v2.1c0,0.1,0.1,0.1,0.1,0.1H42c0.1,0,0.1-0.1,0.1-0.1v-2.1H39.7z"/>
	<path d="M31.4,4.7H12c-1.2,0-2.1,1-2.1,2.1v8.9c0,1.2,1,2.1,2.1,2.1h19.4c1.2,0,2.1-1,2.1-2.2V6.8C33.6,5.6,32.6,4.7,31.4,4.7z
		 M32.1,15.6c0,0.4-0.4,0.8-0.7,0.8H12c-0.4,0-0.7-0.4-0.7-0.7V6.8c0-0.4,0.4-0.7,0.7-0.7h19.4c0.4,0,0.7,0.4,0.7,0.7V15.6z"/>
	<rect x="10.6" y="22.7" width="5.2" height="4.2"/>
	<rect x="27.6" y="22.7" width="5.2" height="4.2"/>
	<rect x="18.2" y="21.9" width="6.4" height="1.4"/>
	<rect x="18.2" y="25.4" width="6.4" height="1.4"/>
	<path d="M42,4.7h-5.2V2.4c0-1.4-1.1-2.6-2.6-2.6H9.2c-1.4,0-2.6,1.1-2.6,2.6v2.3H1.4c-0.8,0-1.5,0.7-1.5,1.5v7.2
		c0,0.8,0.7,1.5,1.5,1.5h2.2c0.8,0,1.5-0.7,1.5-1.5V6.1h1.5v24.5c0,1.4,1.1,2.6,2.6,2.6h0.6L3,40h1.5l6.8-6.8h20.4l7,6.8h1.5
		l-6.9-6.8h1.1c1.4,0,2.6-1.1,2.6-2.6V6.1h1.5v7.3c0,0.8,0.7,1.5,1.5,1.5H42c0.8,0,1.5-0.7,1.5-1.5V6.2C43.5,5.3,42.9,4.7,42,4.7z
		 M1.4,6.1h2.3v3.7H1.3V6.2C1.3,6.1,1.4,6.1,1.4,6.1z M3.6,13.4H1.4c-0.1,0-0.1-0.1-0.1-0.1v-2.1h2.4v2.1
		C3.7,13.4,3.6,13.4,3.6,13.4z M35.4,30.6c0,0.6-0.5,1.2-1.2,1.2H9.2c-0.6,0-1.2-0.5-1.2-1.2V2.4c0-0.6,0.5-1.2,1.2-1.2h25.1
		c0.6,0,1.2,0.5,1.2,1.2V30.6z M42,6.1c0.1,0,0.1,0.1,0.1,0.1v3.6h-2.4V6.1H42z M42,13.4h-2.2c-0.1,0-0.1-0.1-0.1-0.1v-2.1h2.4v2.1
		C42.1,13.4,42.1,13.4,42,13.4z"/>
	<rect x="11.2" y="35" width="20.5" height="1.4"/>
	<rect x="8.3" y="38.3" width="26.7" height="1.4"/>
</g>
</svg>
