<?xml version="1.0" encoding="utf-8"?>
<!-- Generator: Adobe Illustrator 23.0.2, SVG Export Plug-In . SVG Version: 6.00 Build 0)  -->
<svg version="1.1" id="Layer_1" xmlns="http://www.w3.org/2000/svg" xmlns:xlink="http://www.w3.org/1999/xlink" x="0px" y="0px"
	 viewBox="0 0 199.62 193.75" style="enable-background:new 0 0 199.62 193.75;" xml:space="preserve">
<style type="text/css">
	.st0{fill:#93968F;}
</style>
<path class="st0" d="M181.65,0H17.97C8.05,0,0,8.05,0,17.97v114.27c0,9.93,8.05,17.97,17.97,17.97h34.49v43.53l42.64-43.53h86.55
	c9.93,0,17.97-8.05,17.97-17.97V17.97C199.62,8.05,191.58,0,181.65,0z M125.22,53.82c5.16,0,9.34,4.18,9.34,9.34
	c0,5.16-4.18,9.34-9.34,9.34c-5.16,0-9.34-4.18-9.34-9.34C115.88,58,120.06,53.82,125.22,53.82z M77.92,53.82
	c5.16,0,9.34,4.18,9.34,9.34c0,5.16-4.18,9.34-9.34,9.34c-5.16,0-9.34-4.18-9.34-9.34C68.58,58,72.76,53.82,77.92,53.82z
	 M149.42,117.97c0,0-22.58-14.26-47.02-15.06c-24.44-0.8-50.38,15.06-50.38,15.06L48,105.84c0,0,27.92-15.87,54.22-15.06
	c26.31,0.8,50.61,15.06,50.61,15.06L149.42,117.97z"/>
</svg>
