<?xml version="1.0" encoding="utf-8"?>
<!-- Generator: Adobe Illustrator 21.1.0, SVG Export Plug-In . SVG Version: 6.00 Build 0)  -->
<svg version="1.1" id="Layer_1" xmlns="http://www.w3.org/2000/svg" xmlns:xlink="http://www.w3.org/1999/xlink" x="0px" y="0px"
	 viewBox="0 0 40.9 40.4" style="enable-background:new 0 0 40.9 40.4;" xml:space="preserve">
<path d="M6.6,28.1h5.3v4.3H6.6V28.1z M28.8,28.1h5.3v4.3h-5.3V28.1z M10.2,4.4h21v1.4h-21V4.4z M8.2,24.1h24.5
	c1.2,0,2.2-0.9,2.2-2.2V10.4c0-1.2-1-2.2-2.2-2.2H8.2C7,8.2,6,9.2,6,10.4V22C6,23.2,7,24.1,8.2,24.1z M7.4,10.4
	c0-0.5,0.4-0.7,0.7-0.7h24.5c0.5,0,0.7,0.4,0.7,0.7V22c0,0.4-0.3,0.7-0.7,0.7H8.2c-0.5,0-0.7-0.4-0.7-0.7L7.4,10.4L7.4,10.4z
	 M40.9,9.6H38V2.2C38,1,37,0,35.8,0H4.9C3.7,0,2.7,1,2.7,2.2v7.4H0v10.1h2.7v14.9c0,0.5,0.2,1,0.5,1.4v3c0,0.8,0.6,1.4,1.4,1.4h5.1
	c0.8,0,1.4-0.6,1.4-1.4v-2.2h18.3V39c0,0.8,0.6,1.4,1.4,1.4H36c0.8,0,1.4-0.6,1.4-1.4v-2.8c0,0,0,0,0.1-0.1c0.4-0.4,0.6-1,0.5-1.5
	V19.7h2.9V9.6z M4.2,2.2c0-0.5,0.4-0.7,0.7-0.7h30.9c0.5,0,0.7,0.4,0.7,0.7v32.4c0,0.2-0.1,0.4-0.2,0.5c-0.1,0.2-0.4,0.2-0.6,0.2
	H4.9c-0.5,0-0.7-0.4-0.7-0.7C4.2,34.6,4.2,2.2,4.2,2.2z M1.4,18.3V11h1.3v7.3H1.4z M9.8,38.9H4.7v-2.2c0.1,0,0.1,0,0.2,0h4.9V38.9z
	 M36,38.9h-5.1v-2.2h4.9h0.1L36,38.9z M39.5,18.3H38V11h1.5V18.3z"/>
</svg>
