<?xml version="1.0" encoding="utf-8"?>
<!-- Generator: Adobe Illustrator 21.1.0, SVG Export Plug-In . SVG Version: 6.00 Build 0)  -->
<svg version="1.1" id="Layer_1" xmlns="http://www.w3.org/2000/svg" xmlns:xlink="http://www.w3.org/1999/xlink" x="0px" y="0px"
	 viewBox="0 0 20 20" style="enable-background:new 0 0 20 20;" xml:space="preserve">
<path d="M17.9,2.1h-2.1V0.7C15.7,0.3,15.4,0,15,0s-0.7,0.3-0.7,0.7v1.4H5.7V0.7C5.7,0.3,5.4,0,5,0S4.3,0.3,4.3,0.7v1.4H2.1
	C1,2.1,0,3.1,0,4.3v13.6C0,19,1,20,2.1,20h15.7c1.2,0,2.1-1,2.1-2.1V4.3C20,3.1,19,2.1,17.9,2.1z M18.6,17.9c0,0.4-0.3,0.7-0.7,0.7
	H2.1c-0.4,0-0.7-0.3-0.7-0.7V8.6h17.1v9.3H18.6z M18.6,7.1H1.4V4.3c0-0.4,0.3-0.7,0.7-0.7h2.1V5c0,0.4,0.3,0.7,0.7,0.7
	S5.7,5.4,5.7,5V3.6h8.6V5c0,0.4,0.3,0.7,0.7,0.7s0.7-0.3,0.7-0.7V3.6h2.1c0.4,0,0.7,0.3,0.7,0.7L18.6,7.1L18.6,7.1z M5.7,10H4.3
	c-0.4,0-0.7,0.3-0.7,0.7s0.3,0.7,0.7,0.7h1.4c0.4,0,0.7-0.3,0.7-0.7S6.1,10,5.7,10z M10.7,10H9.3c-0.4,0-0.7,0.3-0.7,0.7
	s0.3,0.7,0.7,0.7h1.4c0.4,0,0.7-0.3,0.7-0.7S11.1,10,10.7,10z M15.7,10h-1.4c-0.4,0-0.7,0.3-0.7,0.7s0.3,0.7,0.7,0.7h1.4
	c0.4,0,0.7-0.3,0.7-0.7S16.1,10,15.7,10z M5.7,12.9H4.3c-0.4,0-0.7,0.3-0.7,0.7s0.3,0.7,0.7,0.7h1.4c0.4,0,0.7-0.3,0.7-0.7
	S6.1,12.9,5.7,12.9z M10.7,12.9H9.3c-0.4,0-0.7,0.3-0.7,0.7s0.3,0.7,0.7,0.7h1.4c0.4,0,0.7-0.3,0.7-0.7S11.1,12.9,10.7,12.9z
	 M15.7,12.9h-1.4c-0.4,0-0.7,0.3-0.7,0.7s0.3,0.7,0.7,0.7h1.4c0.4,0,0.7-0.3,0.7-0.7S16.1,12.9,15.7,12.9z M5.7,15.7H4.3
	c-0.4,0-0.7,0.3-0.7,0.7s0.3,0.7,0.7,0.7h1.4c0.4,0,0.7-0.3,0.7-0.7C6.4,16,6.1,15.7,5.7,15.7z M10.7,15.7H9.3
	c-0.4,0-0.7,0.3-0.7,0.7s0.3,0.7,0.7,0.7h1.4c0.4,0,0.7-0.3,0.7-0.7C11.4,16,11.1,15.7,10.7,15.7z M15.7,15.7h-1.4
	c-0.4,0-0.7,0.3-0.7,0.7s0.3,0.7,0.7,0.7h1.4c0.4,0,0.7-0.3,0.7-0.7C16.4,16,16.1,15.7,15.7,15.7z"/>
</svg>
