<?xml version="1.0" encoding="utf-8"?>
<!-- Generator: Adobe Illustrator 21.1.0, SVG Export Plug-In . SVG Version: 6.00 Build 0)  -->
<svg version="1.1" id="Layer_1" xmlns="http://www.w3.org/2000/svg" xmlns:xlink="http://www.w3.org/1999/xlink" x="0px" y="0px"
	 viewBox="0 0 52.9 40.9" style="enable-background:new 0 0 52.9 40.9;" xml:space="preserve">
<path d="M39.2,39.5V28.9h3v-6.3l9.1-4.8c1.3-0.7,1.8-2.3,1.2-3.6L46.6,1.5c-0.7-1.3-2.1-1.8-3.3-1.3l-32.7,17
	C10,17.5,9.5,18,9.3,18.6c-0.3,0.7-0.3,1.5,0,2.2l0.7,1.4c-2.5,0-8.1,0.2-8.9,0.2H0l8.4,18.4l6-9.1l0.9,1.9c0.5,0.9,1.4,1.5,2.3,1.5
	c0.3,0,0.7-0.1,1-0.2l15.7-8.2l2.7,2.2h0.8v12H53v-1.4C53,39.5,39.2,39.5,39.2,39.5z M8.7,37.9L2.2,23.8c2.9-0.1,7.1-0.1,8.5-0.2
	l3.1,6.6L8.7,37.9z M18,33.6c-0.5,0.2-1.1,0-1.4-0.6l-5.9-12.8c-0.2-0.4-0.2-0.8,0-1.2c0.1-0.3,0.3-0.5,0.6-0.6L43.9,1.5
	c0.5-0.2,1.1,0,1.4,0.6l5.8,12.7c0.3,0.7,0.1,1.5-0.5,1.8L18,33.6z M35.7,25.9l5.1-2.6v4.2h-3.2L35.7,25.9z"/>
</svg>
