<?xml version="1.0" encoding="utf-8"?>
<!-- Generator: Adobe Illustrator 21.1.0, SVG Export Plug-In . SVG Version: 6.00 Build 0)  -->
<svg version="1.1" id="Layer_1" xmlns="http://www.w3.org/2000/svg" xmlns:xlink="http://www.w3.org/1999/xlink" x="0px" y="0px"
	 viewBox="0 0 34.9 26" style="enable-background:new 0 0 34.9 26;" xml:space="preserve">
<path d="M34.8,11.1l-1-2.3C33.6,7.7,32.5,7,31.6,7h-1.8l-2.1-4.7c-0.6-1.4-2-2.3-3.6-2.3H10C8.6,0,7.1,0.9,6.5,2.4L4.6,7H3.3
	C2.5,7,1.4,7.8,1.1,8.7l-1,2.4c-0.2,0.4-0.1,0.7,0.1,1s0.5,0.4,0.7,0.4h1.4c-0.4,1-0.6,2.1-0.6,3.2v9.1c0,0.6,0.5,1.2,1.2,1.2h2.8
	c0.6,0,1.2-0.6,1.2-1.2v-0.9h20.7v0.9c0,0.6,0.5,1.2,1.2,1.2h2.8c0.6,0,1.2-0.6,1.2-1.2v-9.1c0-1.1-0.2-2.2-0.6-3.2H34
	c0.3,0,0.5-0.1,0.5-0.3C34.9,11.9,34.9,11.6,34.8,11.1z M31.7,22.8h-29v-7c0-1.3,0.3-2.5,0.8-3.6l0.6-1.5h26v-0.2l0.7,1.7
	c0.5,1.1,0.8,2.4,0.8,3.6v7H31.7z M21.1,9.6c0.1-1.4,1.3-2.5,2.7-2.5c1.5,0,2.6,1.1,2.7,2.5H21.1z M7.5,2.8C7.9,1.8,8.9,1,10,1h14.1
	c1.2,0,2.2,0.7,2.6,1.8l3,6.8h-2.3c-0.1-2-1.8-3.5-3.7-3.5c-2,0-3.6,1.5-3.7,3.5H4.6L5.3,8h0.1V7.8L7.5,2.8z M2.1,9
	c0.1-0.6,0.8-1,1.2-1h0.9l-1.4,3.3H1.1L2.1,9z M5.8,25H2.9c-0.1,0-0.2-0.1-0.2-0.2v-1h3.2v1C5.9,24.9,5.8,25,5.8,25z M31.5,25.1
	h-2.8c-0.1,0-0.2-0.1-0.2-0.2v-1.1h3.2v1.1C31.7,25,31.6,25.1,31.5,25.1z M33.9,11.5h-2.1L30.3,8h1.3c0.5,0,1.1,0.4,1.3,1L33.9,11.5
	L33.9,11.5z M6.9,12.5c-1.4,0-2.5,1.1-2.5,2.5s1.1,2.5,2.5,2.5s2.5-1.1,2.5-2.5S8.3,12.5,6.9,12.5z M6.9,16.5
	c-0.8,0-1.5-0.6-1.5-1.5s0.6-1.5,1.5-1.5s1.5,0.6,1.5,1.5S7.8,16.5,6.9,16.5z M27.6,12.5c-1.4,0-2.5,1.1-2.5,2.5s1.1,2.5,2.5,2.5
	s2.5-1.1,2.5-2.5S29,12.5,27.6,12.5z M27.6,16.5c-0.8,0-1.5-0.6-1.5-1.5s0.6-1.5,1.5-1.5s1.5,0.6,1.5,1.5S28.4,16.5,27.6,16.5z
	 M11.5,13.7h11.4v1H11.5V13.7z M12.3,16.5H22v1h-9.7V16.5z"/>
</svg>
