<?xml version="1.0" encoding="utf-8"?>
<!-- Generator: Adobe Illustrator 21.1.0, SVG Export Plug-In . SVG Version: 6.00 Build 0)  -->
<svg version="1.1" id="Layer_1" xmlns="http://www.w3.org/2000/svg" xmlns:xlink="http://www.w3.org/1999/xlink" x="0px" y="0px"
	 viewBox="0 0 34.6 40.2" style="enable-background:new 0 0 34.6 40.2;" xml:space="preserve">
<path d="M34.6,22.2l-9.3-3.8V9H26V3.4h-7.9V0h-1.4v3.4H8.6V9h1.1v9.3L0,22.2v4.2h2v13.8h11.3v-5.8c0-2.3,1.8-4,4-4s4,1.8,4,4v5.8
	h11.5V26.4h1.7L34.6,22.2L34.6,22.2z M10,4.8h14.6v2.7H10V4.8z M11.1,9h2.2v5.6h1.4V9h2v4.4h1.4V9h2v5.6h1.4V9h2.2v8.9l-6.5-2.6
	L11,17.8L11.1,9L11.1,9z M31.4,38.8h-8.6v-4.4c0-3.1-2.4-5.5-5.5-5.5s-5.5,2.4-5.5,5.5v4.3H3.4V26.4h28V38.8z M33.2,25h-0.3H2H1.4
	v-1.8l15.9-6.4l15.9,6.4C33.2,23.2,33.2,25,33.2,25z M10.2,23.4h14.2v-1.2l-7.1-2.9l-7.1,2.9V23.4z"/>
</svg>
