<?xml version="1.0" encoding="utf-8"?>
<!-- Generator: Adobe Illustrator 21.1.0, SVG Export Plug-In . SVG Version: 6.00 Build 0)  -->
<svg version="1.1" id="Layer_1" xmlns="http://www.w3.org/2000/svg" xmlns:xlink="http://www.w3.org/1999/xlink" x="0px" y="0px"
	 viewBox="0 0 30 26.6" style="enable-background:new 0 0 30 26.6;" xml:space="preserve">
<path d="M24.7,9.2c-0.3,0-0.5,0.2-0.5,0.5v16H1V2.4h19.4c0.3,0,0.5-0.2,0.5-0.5s-0.2-0.5-0.5-0.5H0.5C0.2,1.5,0,1.7,0,1.9v24.2
	c0,0.3,0.2,0.5,0.5,0.5h24.2c0.3,0,0.5-0.2,0.5-0.5V9.7C25.2,9.4,24.9,9.2,24.7,9.2z M29.9,0.1c-0.2-0.2-0.5-0.2-0.7,0l-19,18.5
	l-6.4-7.4c-0.2-0.2-0.5-0.3-0.7-0.1S2.8,11.6,3,11.8l0,0l6.8,7.7c0.1,0.1,0.2,0.2,0.3,0.2l0,0c0.1,0,0.2,0,0.3-0.1L29.9,0.8
	C30,0.6,30,0.3,29.9,0.1z"/>
</svg>
