<?xml version="1.0" encoding="utf-8"?>
<!-- Generator: Adobe Illustrator 21.1.0, SVG Export Plug-In . SVG Version: 6.00 Build 0)  -->
<svg version="1.1" id="Layer_1" xmlns="http://www.w3.org/2000/svg" xmlns:xlink="http://www.w3.org/1999/xlink" x="0px" y="0px"
	 viewBox="0 0 49.6 43.3" style="enable-background:new 0 0 49.6 43.3;" xml:space="preserve">
<path d="M49.6,25.8c0-2-0.6-3.4-1.9-4.3c-1.9-1.2-4.7-0.6-6.1-0.1l-0.3,0.1v-1.9c0-1.6-1.3-2.9-2.9-2.9H9.1c-1.6,0-2.9,1.3-2.9,2.9
	v2.1c0,6.1,2.8,11.7,7.6,15.4l0.5,0.4H0.8c-0.3,0-0.6,0.2-0.8,0.5c-0.1,0.3-0.1,0.7,0.2,0.9l2.3,2.3c1.3,1.3,3.1,2.1,5,2.1h32.3
	c1.9,0,3.7-0.7,5-2.1l2.3-2.3c0.2-0.2,0.3-0.6,0.2-0.9c-0.1-0.3-0.4-0.5-0.8-0.5H33.1l0.5-0.4c0.8-0.6,1.6-1.3,2.2-2V35l0.5-0.1
	C36.9,34.8,49.6,32.4,49.6,25.8z M41.1,23.4v-0.1h0.1c0.9-0.3,3.9-1.3,5.5-0.3c0.8,0.5,1.2,1.4,1.2,2.9c0,3.9-6.8,6.2-9.7,7L37.6,33
	l0.3-0.5C39.7,29.8,40.8,26.7,41.1,23.4z M44.7,39.1L43.8,40c-1,1-2.4,1.6-3.8,1.6H7.6c-1.5,0-2.8-0.6-3.8-1.6l-0.9-0.9H44.7z
	 M30.1,37.5L30.1,37.5H17.4c-5.9-3.1-9.5-9.2-9.5-15.8v-2.1c0-0.7,0.6-1.3,1.3-1.3h29.2c0.7,0,1.3,0.6,1.3,1.3v2.1
	C39.6,28.3,35.9,34.3,30.1,37.5z M30.4,13.8c0.3,0.3,0.8,0.4,1.1,0.1c0.2-0.1,0.3-0.3,0.3-0.6c0-0.2,0-0.4-0.2-0.6
	c-1.1-1.4-1.1-3.8,0-5.2c1.6-2,1.6-5.2,0-7.3C31.5,0.1,31.3,0,31.1,0H31c-0.2,0-0.4,0.1-0.5,0.2c-0.2,0.1-0.3,0.3-0.3,0.5
	s0,0.4,0.2,0.6c1.1,1.4,1.1,3.8,0,5.2C28.8,8.6,28.8,11.8,30.4,13.8z M24.1,13.8c0.3,0.3,0.8,0.4,1.1,0.1c0.2-0.1,0.3-0.3,0.3-0.5
	s0-0.4-0.2-0.6c-1.1-1.4-1.1-3.8,0-5.2c1.6-2,1.6-5.2,0-7.3c0-0.2-0.2-0.3-0.4-0.3h-0.1c-0.2,0-0.4,0.1-0.5,0.2
	C24.1,0.3,24,0.5,24,0.7s0,0.4,0.2,0.6c1.1,1.4,1.1,3.8,0,5.2C22.5,8.6,22.5,11.8,24.1,13.8z M17.9,13.8c0.3,0.3,0.8,0.4,1.1,0.1
	c0.2-0.1,0.3-0.3,0.3-0.5s0-0.4-0.2-0.6C18,11.4,18,9,19.2,7.6c1.6-2,1.6-5.2,0-7.3C19,0.1,18.8,0,18.6,0h-0.1
	c-0.2,0-0.4,0.1-0.5,0.2c-0.2,0.1-0.3,0.3-0.3,0.5s0,0.4,0.2,0.6c1.1,1.4,1.1,3.8,0,5.2C16.3,8.6,16.3,11.8,17.9,13.8z"/>
</svg>
