<?xml version="1.0" encoding="utf-8"?>
<!-- Generator: Adobe Illustrator 21.1.0, SVG Export Plug-In . SVG Version: 6.00 Build 0)  -->
<svg version="1.1" id="Layer_1" xmlns="http://www.w3.org/2000/svg" xmlns:xlink="http://www.w3.org/1999/xlink" x="0px" y="0px"
	 viewBox="0 0 29.7 29.7" style="enable-background:new 0 0 29.7 29.7;" xml:space="preserve">
<path d="M16.4,29.7h-1.7c-2.3,0-4.1-1.8-4.1-4.1v-7.1l0.6-0.1c3.7-0.7,6.5-4,6.5-7.6V1.4H1.4v9.3c0,3.8,2.6,6.9,6.4,7.6l0.6,0.1v7.1
	c0,2.3-1.8,4.1-4.1,4.1H2.6v-1.4h1.7C5.8,28.2,7,27,7,25.5v-5.9c-4.1-1-7-4.7-7-8.9V0h19.1v10.8c0,4.1-3,7.9-7.1,8.9v5.9
	c0,1.5,1.2,2.7,2.7,2.7h1.7V29.7z M21.1,0.1h1.4v9.2h-1.4V0.1z M24.6,0.1H26v9.2h-1.4V0.1z M26,29h-1.4V14.2h0.7c1.7,0,3-1.4,3-3
	V0.1h1.4v11.1c0,2.2-1.6,4-3.7,4.4V29z"/>
</svg>
