<?xml version="1.0" encoding="utf-8"?>
<!-- Generator: Adobe Illustrator 21.1.0, SVG Export Plug-In . SVG Version: 6.00 Build 0)  -->
<svg version="1.1" id="Layer_1" xmlns="http://www.w3.org/2000/svg" xmlns:xlink="http://www.w3.org/1999/xlink" x="0px" y="0px"
	 viewBox="0 0 40.1 35" style="enable-background:new 0 0 40.1 35;" xml:space="preserve">
<path d="M29.1,28.4l0.3-0.1c0.4-0.1,10.7-2.1,10.7-7.5c0-1.7-0.5-2.9-1.6-3.6c-1.5-1-3.7-0.6-5.1-0.1v-1.3c0-1.4-1.1-2.5-2.5-2.5
	H7.6c-1.4,0-2.5,1.1-2.5,2.5v1.7c0,5,2.3,9.5,6.1,12.5H0.9c-0.3,0-0.6,0.2-0.8,0.5s0,0.7,0.2,0.9l1.9,1.9C3.3,34.4,4.8,35,6.3,35
	h25.9c1.6,0,3-0.6,4.1-1.7l1.9-1.9c0.2-0.2,0.3-0.6,0.2-0.9S37.9,30,37.6,30H27.3C28,29.5,28.6,29,29.1,28.4z M37.6,18.7
	c0.6,0.4,0.8,1.1,0.8,2.2c0,2.8-4.6,4.6-7.7,5.5c1.4-2.2,2.4-4.7,2.6-7.4C34.4,18.5,36.5,18,37.6,18.7z M35.1,32.1
	c-0.8,0.8-1.8,1.2-2.9,1.2H6.3c-1.1,0-2.2-0.4-2.9-1.2L3,31.7h32.6L35.1,32.1z M14.3,30c-4.6-2.5-7.5-7.2-7.5-12.5v-1.7
	c0-0.4,0.3-0.8,0.8-0.8h23.3c0.5,0,0.8,0.4,0.8,0.8v1.7c0,5.3-2.9,10-7.5,12.5H14.3z M24.5,11.4c0.2,0.2,0.4,0.3,0.7,0.3
	c0.2,0,0.4-0.1,0.5-0.2c0.4-0.3,0.4-0.8,0.1-1.2c-0.9-1.1-0.9-2.9,0-4c1.4-1.7,1.4-4.3,0-6c-0.3-0.4-0.8-0.4-1.2-0.1
	c-0.4,0.3-0.4,0.8-0.1,1.2c0.9,1.1,0.9,2.9,0,4C23.1,7,23.1,9.7,24.5,11.4z M19.4,11.4c0.2,0.2,0.4,0.3,0.7,0.3
	c0.2,0,0.4-0.1,0.5-0.2c0.4-0.3,0.4-0.8,0.1-1.2c-0.9-1.1-0.9-2.9,0-4c1.4-1.7,1.4-4.3,0-6c-0.3-0.4-0.8-0.4-1.2-0.1
	c-0.4,0.3-0.4,0.8-0.1,1.2c0.9,1.1,0.9,2.9,0,4C18.1,7,18.1,9.7,19.4,11.4z M14.5,11.4c0.2,0.2,0.4,0.3,0.7,0.3
	c0.2,0,0.4-0.1,0.5-0.2c0.4-0.3,0.4-0.8,0.1-1.2c-0.9-1.1-0.9-2.9,0-4c1.4-1.7,1.4-4.3,0-6c-0.3-0.4-0.8-0.4-1.2-0.1
	S14.2,1,14.5,1.4c0.9,1.1,0.9,2.9,0,4C13.1,7,13.1,9.7,14.5,11.4z"/>
</svg>
