<?xml version="1.0" encoding="utf-8"?>
<!-- Generator: Adobe Illustrator 21.1.0, SVG Export Plug-In . SVG Version: 6.00 Build 0)  -->
<svg version="1.1" id="Layer_1" xmlns="http://www.w3.org/2000/svg" xmlns:xlink="http://www.w3.org/1999/xlink" x="0px" y="0px"
	 viewBox="0 0 50 50.1" style="enable-background:new 0 0 50 50.1;" xml:space="preserve">
<path d="M43.8,39.4h1.3c2.7,0,4.9-2.2,4.9-4.9s-2.2-4.9-4.9-4.9h-0.9V27c0-0.4-0.3-0.7-0.7-0.7h-2.6c0.5-1.8,0.7-3.6,0.7-5.4
	c0-5.3-2-10.4-5.7-14.3c-0.5-0.6-2.2-2-2.2-2C30,1.5,25.5,0,20.8,0C9.3,0,0,9.3,0,20.8s9.3,20.8,20.8,20.8c0.3,0,0.6,0,1,0
	c0.7,1.1,1.7,2.1,2.8,2.8h-5c-0.5,0-0.9,0.2-1.2,0.7c-0.3,0.4-0.3,0.9-0.1,1.3v0.1c1.1,2.2,3.3,3.6,5.7,3.6h16.2
	c2.4,0,4.7-1.4,5.7-3.6v-0.1c0.2-0.4,0.2-0.9-0.1-1.3c-0.3-0.4-0.7-0.7-1.2-0.7h-5C41.7,43.2,43.1,41.5,43.8,39.4z M44.2,36.5V31
	h0.9c1,0,1.8,0.4,2.4,1c0.6,0.6,1,1.5,1,2.4c0,1.9-1.6,3.5-3.5,3.5h-1C44.2,37.5,44.2,37,44.2,36.5z M20.8,40.2
	c-10.7,0-19.3-8.7-19.3-19.3c0-10.7,8.7-19.3,19.3-19.3c4.4,0,8.5,1.4,11.9,4.1c0.4,0.3,2,1.8,2,1.8s0,0.1,0.1,0.1
	c3.4,3.6,5.3,8.3,5.3,13.3c0,1.8-0.3,3.7-0.8,5.4H36c0.6-1.7,0.9-3.6,0.9-5.4c0-8.9-7.2-16.1-16.1-16.1s-16.1,7.1-16.1,16
	c0,1.8,0.3,3.5,0.9,5.2c0,0,0.4,1,1.3,2.8c2.8,4.8,7.9,7.9,13.5,8.1c0,1.1,0.3,2.2,0.7,3.2C20.9,40.2,20.9,40.2,20.8,40.2z
	 M6.9,25.6c-0.5-1.5-0.8-3.1-0.8-4.8c0-8.1,6.6-14.7,14.7-14.7s14.7,6.6,14.7,14.7c0,1.9-0.3,3.7-1,5.4H21c-0.4,0-0.7,0.3-0.7,0.7
	v8.5c-5-0.2-9.7-3-12.2-7.3C8.1,28.1,7.2,26.6,6.9,25.6z M44.7,45.8c-0.8,1.6-2.5,2.7-4.4,2.7H24.1c-1.8,0-3.6-1.1-4.4-2.7H44.7z
	 M34.9,44.4h-5.3c-4.3,0-7.9-3.5-7.9-7.9v-8.8h21v8.8C42.8,40.8,39.2,44.4,34.9,44.4z M20.8,10.2c0.4,0,0.7-0.3,0.7-0.7v-1
	c0-0.4-0.3-0.7-0.7-0.7s-0.7,0.3-0.7,0.7v1C20.1,9.8,20.4,10.2,20.8,10.2z M28.8,13.5c0.2,0,0.4-0.1,0.5-0.2l0.7-0.7
	c0.3-0.3,0.3-0.7,0-1s-0.7-0.3-1,0l-0.7,0.7c-0.3,0.3-0.3,0.7,0,1C28.5,13.4,28.7,13.5,28.8,13.5z M32.2,21.5h1
	c0.4,0,0.7-0.3,0.7-0.7s-0.3-0.7-0.7-0.7h-1c-0.4,0-0.7,0.3-0.7,0.7C31.4,21.2,31.8,21.5,32.2,21.5z M12.5,30.1l0.7-0.7
	c0.3-0.3,0.3-0.7,0-1s-0.7-0.3-1,0l-0.7,0.7c-0.3,0.3-0.3,0.7,0,1S12.3,30.4,12.5,30.1z M9.4,21.5c0.4,0,0.7-0.3,0.7-0.7
	s-0.3-0.7-0.7-0.7h-1c-0.4,0-0.7,0.3-0.7,0.7s0.3,0.7,0.7,0.7H9.4z M12.2,13.3c0.1,0.1,0.3,0.2,0.5,0.2s0.4-0.1,0.5-0.2
	c0.3-0.3,0.3-0.7,0-1l-0.7-0.7c-0.3-0.3-0.7-0.3-1,0s-0.3,0.7,0,1L12.2,13.3z M20.6,21.8c0.1,0,0.2,0,0.3,0c0.2,0,0.4-0.1,0.6-0.3
	l2.6-3.1c0.3-0.3,0.2-0.8-0.1-1c-0.3-0.3-0.8-0.2-1,0.1l-1.4,1.6v-4.9c0-0.4-0.3-0.7-0.7-0.7s-0.7,0.3-0.7,0.7v6.9
	C20.1,21.4,20.3,21.7,20.6,21.8z"/>
</svg>
