<?xml version="1.0" encoding="utf-8"?>
<!-- Generator: Adobe Illustrator 21.1.0, SVG Export Plug-In . SVG Version: 6.00 Build 0)  -->
<svg version="1.1" id="Layer_1" xmlns="http://www.w3.org/2000/svg" xmlns:xlink="http://www.w3.org/1999/xlink" x="0px" y="0px"
	 viewBox="0 0 40 40" style="enable-background:new 0 0 40 40;" xml:space="preserve">
<path d="M20.7,18.7h-1.3V20h1.3V18.7z M22,21.3h-4v1.3h4V21.3z M34,33.3c-0.3,0-0.5,0-0.8,0.1c-0.3-2.2-2.4-3.7-4.5-3.4
	c-1.7,0.3-3.1,1.6-3.4,3.4c-0.5-0.1-1-0.1-1.4,0c-0.3-2.2-2.4-3.7-4.5-3.4c-1.7,0.3-3.1,1.6-3.4,3.4c-0.5-0.1-1-0.1-1.4,0
	c-0.3-2.2-2.4-3.7-4.5-3.4c-1.7,0.3-3.1,1.6-3.4,3.4c-2.2-0.4-4.2,1-4.6,3.2C2,36.8,2,37.1,2,37.3v2C2,39.7,2.3,40,2.7,40h6.7
	c0.4,0,0.7-0.3,0.7-0.7v-2c0-0.2,0-0.4-0.1-0.7h1.5c0,0.2-0.1,0.4-0.1,0.7v2c0,0.4,0.3,0.7,0.7,0.7h6.7c0.4,0,0.7-0.3,0.7-0.7v-2
	c0-0.2,0-0.4-0.1-0.7h1.5c0,0.2-0.1,0.4-0.1,0.7v2c0,0.4,0.3,0.7,0.7,0.7H28c0.4,0,0.7-0.3,0.7-0.7v-2c0-0.2,0-0.4-0.1-0.7h1.5
	c0,0.2-0.1,0.4-0.1,0.7v2c0,0.4,0.3,0.7,0.7,0.7h6.7c0.4,0,0.7-0.3,0.7-0.7v-2C38,35.1,36.2,33.3,34,33.3z M8.7,38.7H3.3v-1.3
	c0-1.5,1.2-2.7,2.7-2.7s2.7,1.2,2.7,2.7V38.7z M11.9,35.3H9.5c-0.3-0.6-0.8-1.1-1.4-1.5c0.1-1.5,1.3-2.6,2.8-2.6
	c1.4,0.1,2.5,1.2,2.6,2.6C12.7,34.2,12.2,34.7,11.9,35.3z M18,38.7h-5.3v-1.3c0-1.5,1.2-2.7,2.7-2.7s2.7,1.2,2.7,2.7v1.3H18z
	 M21.2,35.3h-2.4c-0.3-0.6-0.8-1.1-1.4-1.5c0.1-1.5,1.3-2.6,2.8-2.6c1.4,0.1,2.5,1.2,2.6,2.6C22.1,34.2,21.6,34.7,21.2,35.3z
	 M27.3,38.7H22v-1.3c0-1.5,1.2-2.7,2.7-2.7s2.7,1.2,2.7,2.7v1.3H27.3z M30.5,35.3h-2.4c-0.3-0.6-0.8-1.1-1.4-1.5
	c0.1-1.5,1.3-2.6,2.8-2.6c1.4,0.1,2.5,1.2,2.6,2.6C31.4,34.2,30.9,34.7,30.5,35.3z M36.7,38.7h-5.3v-1.3c0-1.5,1.2-2.7,2.7-2.7
	s2.7,1.2,2.7,2.7v1.3H36.7z M39.3,0H0.7C0.3,0,0,0.3,0,0.7v2.7C0,3.7,0.3,4,0.7,4H2v18c0,0.4,0.3,0.7,0.7,0.7h12.2l0.3,2h-0.6
	c-0.4,0-0.7,0.3-0.7,0.7V28c0,0.4,0.3,0.7,0.7,0.7h10.7c0.4,0,0.7-0.3,0.7-0.7v-2.7c0-0.4-0.3-0.7-0.7-0.7h-0.6l0.3-2h12.2
	c0.4,0,0.7-0.3,0.7-0.7V4h1.3C39.7,4,40,3.7,40,3.3V0.7C40,0.3,39.7,0,39.3,0z M24.7,27.3h-9.3V26h9.3V27.3z M15.4,17.3h9.1
	l-1.1,7.3h-6.9L15.4,17.3z M13.2,16l-0.3-1.3h14.3L26.8,16H13.2z M36.7,21.3H25.3l0.6-4h1.4c0.3,0,0.6-0.2,0.6-0.5l0.7-2.7
	c0.1-0.4-0.1-0.7-0.5-0.8c-0.1,0-0.1,0-0.2,0h-1.3v-2c0-0.2-0.1-0.3-0.2-0.5l-1.3-1.3c0.1-0.3,0.2-0.6,0.2-0.9c0-1.1-0.9-2-2-2
	s-2,0.9-2,2s0.9,2,2,2c0.3,0,0.6-0.1,0.9-0.2l1.1,1.1v1.7H14.7v-1.7l1.1-1.1c0.3,0.1,0.6,0.2,0.9,0.2c1.1,0,2-0.9,2-2s-0.9-2-2-2
	s-2,0.9-2,2c0,0.3,0.1,0.6,0.2,0.9l-1.3,1.3c-0.1,0.1-0.2,0.3-0.2,0.5v2H12c-0.4,0-0.7,0.3-0.7,0.7c0,0.1,0,0.1,0,0.2l0.7,2.7
	c0.1,0.3,0.3,0.5,0.6,0.5H14l0.6,4H3.3V4h33.3v17.3H36.7z M24,8.7c0,0.4-0.3,0.7-0.7,0.7c-0.4,0-0.7-0.3-0.7-0.7
	C22.7,8.3,23,8,23.3,8C23.7,8,24,8.3,24,8.7z M16,8.7C16,8.3,16.3,8,16.7,8c0.4,0,0.7,0.3,0.7,0.7s-0.3,0.7-0.7,0.7
	C16.3,9.3,16,9,16,8.7z M38.7,2.7H1.3V1.3h37.3v1.4H38.7z"/>
</svg>
