<?xml version="1.0" encoding="utf-8"?>
<!-- Generator: Adobe Illustrator 21.1.0, SVG Export Plug-In . SVG Version: 6.00 Build 0)  -->
<svg version="1.1" id="Layer_1" xmlns="http://www.w3.org/2000/svg" xmlns:xlink="http://www.w3.org/1999/xlink" x="0px" y="0px"
	 viewBox="0 0 39.4 30.7" style="enable-background:new 0 0 39.4 30.7;" xml:space="preserve">
<path d="M36.4,20.1V9.2V9h-0.2h-5.9h-0.2v0.2v8.4c0,0.3-0.2,0.5-0.5,0.5h-2.7c-1.4,0-2.5,1.1-2.5,2.5v9.9v0.2h0.2h5.3h0.2v-0.2v-7.2
	c0-0.2,0.2-0.4,0.4-0.4h3.1C35.2,22.9,36.4,21.7,36.4,20.1z M28.7,23.3v6h-2.9v-8.7c0-0.6,0.5-1.1,1.1-1.1h2.7
	c1.1,0,1.9-0.8,1.9-1.9v-7.2H35v9.7c0,0.8-0.6,1.4-1.4,1.4h-3.1C29.5,21.5,28.7,22.3,28.7,23.3z M39.2,13.1h-1H38v0.2v8
	c0,1.9-1.6,3.5-3.5,3.5h-2.8h-0.2V25v1v0.2h0.2h2.8c2.7,0,4.9-2.2,4.9-4.9v-8v-0.2C39.4,13.1,39.2,13.1,39.2,13.1z M33.3,8.2
	c1.7,0,3.1-1.4,3.1-3.1c0-1.8-1.3-3.1-3.1-3.1s-3.1,1.3-3.1,3.1C30.2,6.8,31.6,8.2,33.3,8.2z M31.6,5.1c0-0.9,0.8-1.7,1.7-1.7
	S35,4.2,35,5.1s-0.8,1.7-1.7,1.7C32.4,6.8,31.6,6,31.6,5.1z M12.5,18.1H9.8c-0.3,0-0.5-0.2-0.5-0.5V9.2V9H9.1H3.2H3v0.2v10.9
	c0,1.6,1.2,2.8,2.8,2.8h3.1c0.2,0,0.4,0.2,0.4,0.4v7.2v0.2h0.2h5.3H15v-0.2v-9.9C15,19.2,13.9,18.1,12.5,18.1z M4.4,10.4h3.5v7.2
	c0,1.1,0.8,1.9,1.9,1.9h2.7c0.6,0,1.1,0.5,1.1,1.1v8.7h-2.9v-6c0-1-0.8-1.8-1.8-1.8H5.8c-0.8,0-1.4-0.6-1.4-1.4V10.4z M4.9,24.8
	c-1.9,0-3.5-1.6-3.5-3.5v-8v-0.2H1.2h-1H0v0.2v8c0,2.7,2.2,4.9,4.9,4.9h2.7h0.1h0.2V26v-1v-0.2H7.7H4.9z M6.1,8.2
	c1.8,0,3.1-1.3,3.1-3.1C9.2,3.4,7.8,2,6.1,2S3,3.4,3,5.1S4.4,8.2,6.1,8.2z M4.4,5.1c0-0.9,0.8-1.7,1.7-1.7c1,0,1.8,0.7,1.8,1.7
	S7,6.8,6.1,6.8S4.4,6,4.4,5.1z M19.9,6.3c1.7,0,3.1-1.5,3.1-3.2S21.6,0,19.9,0s-3.1,1.5-3.1,3.2S18.2,6.3,19.9,6.3z M18.2,3.1
	c0-0.9,0.8-1.7,1.7-1.7s1.7,0.8,1.7,1.7s-0.8,1.7-1.7,1.7S18.2,4,18.2,3.1z M13.8,16.3h11.1H25h1.9h0.2v-0.2v-1v-0.2h-0.2h-1.8v-3.3
	c0-2.4-1.9-4.3-4.3-4.3h-2.9c-2.4,0-4.3,1.9-4.3,4.3v3.3h-2.1h-0.2v0.2v1v0.2h0.2H13.8z M15.1,14.9v-3.3c0-1.6,1.3-2.9,2.9-2.9h2.9
	c1.6,0,2.9,1.3,2.9,2.9v3.3C23.8,14.9,15.1,14.9,15.1,14.9z"/>
</svg>
