<?xml version="1.0" encoding="utf-8"?>
<!-- Generator: Adobe Illustrator 21.1.0, SVG Export Plug-In . SVG Version: 6.00 Build 0)  -->
<svg version="1.1" id="Layer_1" xmlns="http://www.w3.org/2000/svg" xmlns:xlink="http://www.w3.org/1999/xlink" x="0px" y="0px"
	 viewBox="0 0 14 14" style="enable-background:new 0 0 14 14;" xml:space="preserve">
<path d="M1.3,0C0.6,0,0,0.6,0,1.3v11.5C0,13.4,0.6,14,1.3,14h11.5c0.7,0,1.3-0.6,1.3-1.3V1.3C14,0.6,13.4,0,12.7,0H1.3z M1.3,1.3
	h11.5v11.5H9.4V8.4h1.7l0.2-1.9H9.4V5.3c0-0.6,0.1-0.9,0.9-0.9h1V2.6c-0.2,0-0.8-0.1-1.5-0.1c-1.5,0-2.5,0.9-2.5,2.5v1.4H5.8v1.9
	h1.7v4.3H1.3V1.3z"/>
</svg>
