<?xml version="1.0" encoding="utf-8"?>
<!-- Generator: Adobe Illustrator 21.1.0, SVG Export Plug-In . SVG Version: 6.00 Build 0)  -->
<svg version="1.1" id="Layer_1" xmlns="http://www.w3.org/2000/svg" xmlns:xlink="http://www.w3.org/1999/xlink" x="0px" y="0px"
	 viewBox="0 0 50 50" style="enable-background:new 0 0 50 50;" xml:space="preserve">
<path d="M42.2,0H7.8C3.5,0,0,3.5,0,7.8v34.4C0,46.5,3.5,50,7.8,50h34.4c4.3,0,7.8-3.5,7.8-7.8V7.8C50,3.5,46.5,0,42.2,0z M48.5,42.2
	c0,3.5-2.8,6.3-6.3,6.3H7.8c-3.5,0-6.3-2.8-6.3-6.3V7.8c0-3.5,2.8-6.3,6.3-6.3h34.4c3.5,0,6.3,2.8,6.3,6.3V42.2z M42.2,3.5H7.8
	c-2.4,0-4.3,1.9-4.3,4.3V10c0,0.4,0.3,0.7,0.7,0.7s0.7-0.3,0.7-0.7V7.8C4.9,6.2,6.2,5,7.7,5h34.4c1.6,0,2.8,1.3,2.8,2.8v34.4
	c0,1.6-1.3,2.8-2.8,2.8H7.8C6.2,45,5,43.7,5,42.2V13.4c0-0.4-0.3-0.7-0.7-0.7S3.5,13,3.5,13.4v28.8c0,2.4,1.9,4.3,4.3,4.3h34.4
	c2.4,0,4.3-1.9,4.3-4.3V7.8C46.5,5.4,44.6,3.5,42.2,3.5z M36.8,24c-2-1.4-5.5-2-8.3-1.4c-0.3-0.4-0.6-0.8-1.1-1.1
	c0.5-1.1,1.5-2,3.2-2.8c0.9-0.4,2-1,2-2.4c0-3.9-3.9-6.3-7.5-6.3c-4.2,0-7.5,2.8-7.5,6.3c0,1.7,0.8,4,2.2,5.9
	c0.4,0.6,0.9,1.1,1.3,1.5c-0.1,0.3-0.1,0.6-0.2,1c-1.2-0.1-2.2-0.6-3.6-1.7l0,0c-0.7-0.6-1.7-1.4-3-0.8c-3.5,1.6-4.1,6.2-2.6,9.5
	c1.6,3.5,5.5,5.8,8.9,4.2c2.4-1.1,4.7-4.1,5.5-6.9c0.2-0.1,0.4-0.1,0.6-0.2c0.7,1,1,2.3,0.7,4.5c-0.1,1-0.3,2.2,0.8,3
	c3.1,2.2,7.3,0.5,9.5-2.5c1.1-1.5,1.7-3.4,1.6-5.2C39.1,26.7,38.2,25.1,36.8,24z M20.8,21.4c-1.1-1.6-1.9-3.6-1.9-5
	c0-2.7,2.7-4.8,6.1-4.8c3.8,0,6.1,2.5,6.1,4.8c0,0.5-0.2,0.6-1.1,1.1c-2,1-3.1,2-3.8,3.5c-0.4-0.1-0.7-0.2-1.1-0.2
	c-1.4,0-2.6,0.6-3.3,1.6C21.4,22.1,21.1,21.8,20.8,21.4z M19.9,34.6c-2.6,1.2-5.7-0.8-6.9-3.5c-1.6-3.4-0.3-6.6,1.9-7.5
	c0.4-0.2,0.7-0.1,1.4,0.6l0,0c1.7,1.4,3.1,2,4.7,2c0.5,1.5,1.8,2.7,3.4,2.9C23.7,31.5,21.6,33.9,19.9,34.6z M25,27.7
	c-1.5,0-2.7-1.2-2.7-2.7s1.2-2.7,2.7-2.7s2.7,1.2,2.7,2.7S26.5,27.7,25,27.7z M36.4,33c-1.7,2.4-5.1,3.9-7.5,2.2
	c-0.4-0.3-0.4-0.5-0.2-1.6c0.4-2.4,0.1-4-0.9-5.5c1.1-1,1.6-2.5,1.3-4c2.3-0.4,5.2,0,6.8,1.2c1.1,0.8,1.7,2,1.8,3.5
	C37.8,30.1,37.3,31.7,36.4,33z M37.9,41.4c0,1.6,1.3,2.9,2.9,2.9s2.9-1.3,2.9-2.9c0-1.6-1.3-2.9-2.9-2.9S37.9,39.8,37.9,41.4z
	 M42.2,41.4c0,0.8-0.6,1.4-1.4,1.4c-0.8,0-1.4-0.6-1.4-1.4c0-0.8,0.6-1.4,1.4-1.4C41.5,39.9,42.2,40.6,42.2,41.4z M38,13.8
	c-0.3,0.3-0.4,0.7-0.1,1c2.4,3,3.7,6.6,3.7,10.4c0,9.1-7.4,16.6-16.6,16.6c-3.8,0-7.4-1.3-10.4-3.7c-0.3-0.3-0.8-0.2-1,0.1
	c-0.3,0.3-0.2,0.8,0.1,1c3.2,2.6,7.2,4,11.3,4c9.9,0,18-8.1,18-18c0-4.1-1.4-8.1-4-11.3C38.8,13.6,38.3,13.5,38,13.8z M36.6,11.4
	C33.3,8.7,29.2,7.2,25,7.2c-9.9,0-18,8.1-18,18c0,4.2,1.5,8.3,4.2,11.5c0.1,0.2,0.4,0.3,0.6,0.3c0.2,0,0.3-0.1,0.5-0.2
	c0.3-0.3,0.4-0.7,0.1-1c-2.5-3-3.8-6.7-3.8-10.6c0-9.1,7.4-16.6,16.6-16.6c3.9,0,7.6,1.4,10.6,3.8c0.3,0.3,0.8,0.2,1-0.1
	C36.9,12.1,36.9,11.6,36.6,11.4z"/>
</svg>
