<?xml version="1.0" encoding="utf-8"?>
<!-- Generator: Adobe Illustrator 21.1.0, SVG Export Plug-In . SVG Version: 6.00 Build 0)  -->
<svg version="1.1" id="Layer_1" xmlns="http://www.w3.org/2000/svg" xmlns:xlink="http://www.w3.org/1999/xlink" x="0px" y="0px"
	 viewBox="0 0 50 49" style="enable-background:new 0 0 50 49;" xml:space="preserve">
<path d="M30.2,8.6H6.9C6.5,8.6,6.2,9,6.2,9.4s0.3,0.7,0.7,0.7h23.3c0.4,0,0.7-0.3,0.7-0.7S30.6,8.6,30.2,8.6z M25.3,13.6H6.9
	c-0.4,0-0.7,0.3-0.7,0.7S6.5,15,6.9,15h18.4c0.4,0,0.7-0.3,0.7-0.7S25.7,13.6,25.3,13.6z M17.5,18.5H6.9c-0.4,0-0.7,0.3-0.7,0.7
	s0.3,0.7,0.7,0.7h10.6c0.4,0,0.7-0.3,0.7-0.7S17.9,18.5,17.5,18.5z M32,23.3v7.3c0,0.5,0.4,0.8,0.8,0.8h10.4c0.4,0,0.8-0.4,0.8-0.8
	v-7.3c0-0.5-0.4-0.8-0.8-0.8H32.8C32.4,22.5,32,22.8,32,23.3z M33.6,24.1h8.9v5.7h-8.9V24.1z M48.3,0H11.8h-1.5H1.7
	C0.8,0,0,0.8,0,1.7V34c0,0.9,0.8,1.7,1.7,1.7h17.4l-3.9,6.1l-2.5,3.9c-0.6,0.9-0.3,2.3,0.7,2.9c0.9,0.6,2.3,0.3,2.9-0.7l3.2-5.1
	h11.4L34,48c0.6,1,1.9,1.3,2.9,0.7s1.3-1.9,0.7-2.9l0,0l-6.4-10h17.1c0.9,0,1.7-0.8,1.7-1.7V1.7C50,0.8,49.2,0,48.3,0z M15,47.2
	c-0.4,0.7-1.5,0-1.1-0.6l2.5-3.9l4.4-6.9h1.3L15,47.2z M23.8,35.7h2.6l1.8,2.9H22L23.8,35.7z M20.4,41.4l0.8-1.3h8l0.8,1.3H20.4z
	 M36.3,46.5c0.4,0.7-0.7,1.3-1.1,0.6l-7.1-11.4h1.3L36.3,46.5z M48.5,34c0,0.1-0.1,0.2-0.2,0.2H1.7c-0.1,0-0.2-0.1-0.2-0.2V5.1h32.9
	h0.1h14V34z M48.5,3.7h-14h-0.1H1.5v-2c0-0.1,0.1-0.2,0.2-0.2h8.5h1.5h36.5c0.1,0,0.2,0.1,0.2,0.2L48.5,3.7L48.5,3.7z"/>
</svg>
