<?xml version="1.0" encoding="utf-8"?>
<!-- Generator: Adobe Illustrator 21.1.0, SVG Export Plug-In . SVG Version: 6.00 Build 0)  -->
<svg version="1.1" id="Layer_1" xmlns="http://www.w3.org/2000/svg" xmlns:xlink="http://www.w3.org/1999/xlink" x="0px" y="0px"
	 viewBox="0 0 32 18" style="enable-background:new 0 0 32 18;" xml:space="preserve">
<path d="M31.5,6.1c-0.3-0.4-0.8-0.6-1.3-0.6h-0.7V4.9c0-1.1-0.9-1.9-2-1.9h-1V1.9c0-0.5-0.2-1-0.6-1.4c-0.8-0.7-2.1-0.7-2.8,0
	c-0.4,0.4-0.6,0.9-0.6,1.4V7h-13V1.9c0-0.5-0.2-1-0.6-1.4c-0.8-0.7-2.1-0.7-2.8,0C5.7,0.9,5.5,1.4,5.5,1.9V3H4.4
	c-0.5,0-1,0.2-1.3,0.5C2.7,3.8,2.5,4.3,2.5,4.8v0.7H1.8c-0.5,0-1,0.2-1.3,0.6S0,7,0,7.5v2.9c0,0.5,0.2,1,0.5,1.4s0.8,0.6,1.3,0.6
	h0.7v0.7c0,0.5,0.2,1,0.6,1.3C3.4,14.8,3.9,15,4.4,15h1.1v1.1c0,0.5,0.2,1,0.6,1.4C6.5,17.8,7,18,7.5,18s1-0.2,1.4-0.6
	s0.6-0.9,0.6-1.4v-5h13v5.1c0,0.5,0.2,1,0.6,1.4s0.9,0.6,1.4,0.6s1-0.2,1.4-0.6s0.6-0.9,0.6-1.4V15h1c1.1,0,2-0.9,2-1.9v-0.6h0.7
	c0.5,0,1-0.2,1.3-0.6c0.3-0.4,0.5-0.9,0.5-1.4v-3C32,7,31.8,6.5,31.5,6.1z M1.8,11.5c-0.2,0-0.4-0.1-0.5-0.3C1.1,11,1,10.7,1,10.4
	V7.5C1,7.2,1.1,7,1.3,6.8c0.1-0.2,0.3-0.3,0.5-0.3h0.7v5H1.8z M4.4,14c-0.3,0-0.5-0.1-0.7-0.3s-0.3-0.3-0.3-0.6V12V6V4.8
	c0-0.2,0.1-0.4,0.3-0.6C3.9,4.1,4.2,4,4.4,4h1.1v10H4.4z M8.5,16.1c0,0.2-0.1,0.5-0.3,0.6c-0.4,0.4-1.1,0.4-1.4,0
	c-0.2-0.2-0.3-0.4-0.3-0.6v-1.6v-11V1.9c0-0.2,0.1-0.5,0.3-0.6C7,1.1,7.2,1,7.5,1S8,1.1,8.2,1.3s0.3,0.4,0.3,0.6v5.6v3V16.1z
	 M9.5,10V8h13v2H9.5z M25.5,16.1c0,0.2-0.1,0.5-0.3,0.6c-0.4,0.4-1.1,0.4-1.4,0c-0.2-0.2-0.3-0.4-0.3-0.6v-5.6v-3V1.9
	c0-0.2,0.1-0.5,0.3-0.6C24,1.1,24.2,1,24.5,1s0.5,0.1,0.7,0.3s0.3,0.4,0.3,0.6v1.6v11V16.1z M28.5,13.1c0,0.5-0.5,0.9-1,0.9h-1V4h1
	c0.6,0,1,0.4,1,0.9V6v6V13.1z M31,10.5c0,0.3-0.1,0.6-0.3,0.8c-0.1,0.2-0.3,0.3-0.5,0.3h-0.7v-5h0.7c0.2,0,0.4,0.1,0.5,0.3
	c0.2,0,0.3,0.3,0.3,0.6V10.5z"/>
</svg>
