<?xml version="1.0" encoding="utf-8"?>
<!-- Generator: Adobe Illustrator 21.1.0, SVG Export Plug-In . SVG Version: 6.00 Build 0)  -->
<svg version="1.1" id="Layer_1" xmlns="http://www.w3.org/2000/svg" xmlns:xlink="http://www.w3.org/1999/xlink" x="0px" y="0px"
	 viewBox="0 0 27 30" style="enable-background:new 0 0 27 30;" xml:space="preserve">
<path d="M0,4.8V30h11.1h4.8H27V4.8H0z M11.9,29.2v-5.3h3.2v5.3H11.9z M26.2,29.2H15.9v-6.1h-4.8v6.1H0.8V5.6h25.4
	C26.2,5.6,26.2,29.2,26.2,29.2z M8.2,7.3H3.4v3.5h4.8C8.2,10.8,8.2,7.3,8.2,7.3z M7.4,9.9H4.2V8h3.2C7.4,8,7.4,9.9,7.4,9.9z
	 M8.2,12.5H3.4V16h4.8C8.2,16,8.2,12.5,8.2,12.5z M7.4,15.1H4.2v-1.8h3.2C7.4,13.3,7.4,15.1,7.4,15.1z M8.2,17.8H3.4v3.5h4.8
	C8.2,21.3,8.2,17.8,8.2,17.8z M7.4,20.5H4.2v-1.9h3.2C7.4,18.6,7.4,20.5,7.4,20.5z M8.2,23.1H3.4v3.5h4.8
	C8.2,26.6,8.2,23.1,8.2,23.1z M7.4,25.8H4.2v-1.9h3.2C7.4,23.9,7.4,25.8,7.4,25.8z M15.9,7.3h-4.8v3.5h4.8V7.3z M15.1,9.9h-3.2V8
	h3.2V9.9z M15.9,12.5h-4.8V16h4.8V12.5z M15.1,15.1h-3.2v-1.8h3.2V15.1z M15.9,17.8h-4.8v3.5h4.8V17.8z M15.1,20.5h-3.2v-1.9h3.2
	V20.5z M24,7.3h-4.8v3.5H24V7.3z M23.2,9.9H20V8h3.2V9.9z M24,12.5h-4.8V16H24V12.5z M23.2,15.1H20v-1.8h3.2V15.1z M24,17.8h-4.8
	v3.5H24V17.8z M23.2,20.5H20v-1.9h3.2V20.5z M24,23.1h-4.8v3.5H24V23.1z M23.2,25.8H20v-1.9h3.2V25.8z M1.6,4.2l1.3-1l1.4,1L3.8,2.6
	l1.3-1H3.4L2.9,0L2.4,1.6H0.7l1.4,1L1.6,4.2z M6.9,4.2l1.4-1l1.3,1L9.1,2.6l1.4-1H8.8L8.3,0L7.8,1.6H6.1l1.3,1L6.9,4.2z M12.3,4.2
	l1.3-1l1.4,1l-0.5-1.6l1.3-1h-1.6L13.6,0l-0.5,1.6h-1.6l1.3,1L12.3,4.2z M17.7,4.2l1.3-1l1.4,1l-0.6-1.6l1.4-1h-1.6L19,0l-0.5,1.6
	h-1.7l1.4,1L17.7,4.2z M23,4.2l1.4-1l1.4,1l-0.6-1.6l1.4-1h-1.7L24.4,0l-0.5,1.6h-1.7l1.4,1L23,4.2z"/>
</svg>
