<?xml version="1.0" encoding="utf-8"?>
<!-- Generator: Adobe Illustrator 21.1.0, SVG Export Plug-In . SVG Version: 6.00 Build 0)  -->
<svg version="1.1" id="Layer_1" xmlns="http://www.w3.org/2000/svg" xmlns:xlink="http://www.w3.org/1999/xlink" x="0px" y="0px"
	 viewBox="0 0 40 39.1" style="enable-background:new 0 0 40 39.1;" xml:space="preserve">
<path d="M37.9,39.1c-0.2,0-0.3-0.1-0.5-0.2c-0.3-0.3-0.3-0.7,0-0.9l0.3-0.3h-30L8,38c0.3,0.3,0.3,0.7,0,0.9c-0.3,0.3-0.7,0.3-0.9,0
	l-1.4-1.4c-0.1-0.1-0.2-0.3-0.2-0.5l0,0c0-0.2,0.1-0.4,0.3-0.5l1.3-1.3c0.3-0.3,0.7-0.3,0.9,0c0.3,0.3,0.3,0.7,0,0.9l-0.3,0.3h30.1
	l-0.3-0.3c-0.3-0.3-0.3-0.7,0-0.9c0.3-0.3,0.7-0.3,0.9,0l1.4,1.4c0.1,0.1,0.2,0.3,0.2,0.5l0,0c0,0.2-0.1,0.4-0.3,0.5l-1.3,1.3
	C38.2,39.1,38.1,39.1,37.9,39.1z M2.1,34.6c-0.2,0-0.4-0.1-0.5-0.3L0.3,33c-0.3-0.3-0.3-0.7,0-0.9c0.3-0.3,0.7-0.3,0.9,0l0.3,0.3
	V2.2L1.1,2.5c-0.3,0.3-0.7,0.3-0.9,0c-0.3-0.3-0.3-0.7,0-0.9l1.4-1.4C1.7,0.1,1.9,0,2.1,0s0.4,0.1,0.6,0.3L4,1.6
	c0.3,0.3,0.3,0.7,0,0.9C3.7,2.8,3.3,2.8,3,2.6L2.7,2.3v30.1L3,32c0.3-0.3,0.7-0.3,0.9,0c0.3,0.3,0.3,0.7,0,0.9l-1.4,1.4
	C2.4,34.5,2.3,34.6,2.1,34.6L2.1,34.6z M39.3,32.7H7.5c-0.4,0-0.7-0.3-0.7-0.7V0.7C6.9,0.3,7.2,0,7.5,0h19c0.4,0,0.7,0.3,0.7,0.7
	v12.8h12.1c0.4,0,0.7,0.3,0.7,0.7V32C40,32.4,39.7,32.7,39.3,32.7z M27.2,31.4h11.5V14.8H27.2V31.4z M14.6,31.4h11.3v-8.8H14.6V31.4
	z M8.2,31.4h5.1v-8.8H8.2V31.4z M13.9,21.2h12V14c0-0.1,0-0.1,0-0.2V7H8.2v14.2H13.9z M17.7,5.7h8.2V1.3h-8.2V5.7z M8.2,5.7h8.2V1.3
	H8.2V5.7z"/>
</svg>
