<?xml version="1.0" encoding="utf-8"?>
<!-- Generator: Adobe Illustrator 21.1.0, SVG Export Plug-In . SVG Version: 6.00 Build 0)  -->
<svg version="1.1" id="Layer_1" xmlns="http://www.w3.org/2000/svg" xmlns:xlink="http://www.w3.org/1999/xlink" x="0px" y="0px"
	 viewBox="0 0 14 14" style="enable-background:new 0 0 14 14;" xml:space="preserve">
<path d="M4.1,0C1.9,0,0,1.9,0,4.1v5.8C0,12.1,1.9,14,4.1,14h5.8c2.3,0,4.1-1.9,4.1-4.1V4.1C14,1.9,12.1,0,9.9,0H4.1z M4.1,1.3h5.8
	c1.6,0,2.8,1.3,2.8,2.8v5.8c0,1.6-1.3,2.8-2.8,2.8H4.1c-1.6,0-2.8-1.3-2.8-2.8V4.1C1.3,2.5,2.5,1.3,4.1,1.3z M10.8,2.7
	c-0.3,0-0.6,0.3-0.6,0.6c0,0.3,0.3,0.6,0.6,0.6c0.3,0,0.6-0.3,0.6-0.6C11.3,2.9,11.1,2.7,10.8,2.7z M7,3.2C4.9,3.2,3.2,4.9,3.2,7
	s1.7,3.8,3.8,3.8s3.8-1.7,3.8-3.8S9.1,3.2,7,3.2z M7,4.5c1.4,0,2.5,1.1,2.5,2.5S8.4,9.5,7,9.5S4.5,8.4,4.5,7S5.6,4.5,7,4.5z"/>
</svg>
