<?xml version="1.0" encoding="utf-8"?>
<!-- Generator: Adobe Illustrator 21.1.0, SVG Export Plug-In . SVG Version: 6.00 Build 0)  -->
<svg version="1.1" id="Layer_1" xmlns="http://www.w3.org/2000/svg" xmlns:xlink="http://www.w3.org/1999/xlink" x="0px" y="0px"
	 viewBox="0 0 50 50" style="enable-background:new 0 0 50 50;" xml:space="preserve">
<path d="M49.3,48.5h-5.9v-10c3.7-0.4,6.6-3.9,6.6-8.2c0-4.2-2.8-7.7-6.5-8.2c0.7-0.9,1.2-2,1.4-3.2v-0.1c0.2-2.3-0.4-3.6-0.4-3.6
	c-0.7-1.7-2.1-3.1-3.9-3.8c0,0,0,0,0-0.1c0.3-2.4-1.3-4.6-3.5-5.1c0,0-0.1,0-0.1-0.1C37,2.8,34.3,0,30.9,0s-6.2,2.8-6.2,6.2
	c0,0,0,0.1-0.1,0.1C22.5,6.8,21,8.7,21,10.9c0,0.2,0,0.4,0,0.6c0,0.1-0.4,0.2-0.6,0.3c-0.2-0.5-0.4-1.1-0.6-1.6
	C16.8,1.7,13.7,0,11.6,0C8,0,4,8.3,2.3,12.6c0,0.1,0,0.1,0,0.2C0.9,17.2,0,22,0,25c0,6.8,4.8,12.5,10.9,12.9v10.7H0.7
	c-0.4,0-0.7,0.3-0.7,0.7S0.3,50,0.7,50h48.5c0.4,0,0.7-0.3,0.7-0.7S49.7,48.5,49.3,48.5z M11.6,21.8c-0.4,0-0.7,0.3-0.7,0.7v6.2
	l-2-2c-0.3-0.3-0.8-0.3-1,0c-0.3,0.3-0.3,0.8,0,1l3.1,3.1v5.6C5.6,36,1.5,31,1.5,25c0-2.8,0.9-7.6,2.3-11.9V13
	C5.9,7.6,9.5,1.5,11.6,1.5c2.3,0,4.8,3.3,7,9.1c2.1,5.5,3.1,11.4,3.1,14.4c0,6-4.2,11-9.4,11.4v-5.9v-2.8l3.1-3.1
	c0.3-0.3,0.3-0.8,0-1c-0.3-0.3-0.8-0.3-1,0l-2,2v-3.1C12.3,22.1,12,21.8,11.6,21.8z M30.1,48.5H12.3V37.9c5.3-0.4,9.6-4.6,10.6-10.2
	c0.4,0.3,0.8,0.6,1.3,0.9c2,0.9,3.8,0.4,4.6,0.1c0.5-0.2,1-0.5,1.3-0.8V48.5L30.1,48.5z M30.9,15c-0.4,0-0.7,0.3-0.7,0.7v3.4L28,17
	c-0.3-0.3-0.8-0.3-1,0c-0.3,0.3-0.3,0.8,0,1l3.2,3.2v4.6c-0.4,0.5-1,1.1-1.9,1.4c-0.5,0.2-1.9,0.6-3.4,0c-0.7-0.3-1.3-0.9-1.7-1.6
	c0.1-3.2-0.8-8-2.2-12.5c0.2-0.1,0.4-0.2,0.6-0.3c0.7-0.3,1-0.9,1-1.6c0-0.1,0-0.3,0-0.4c0-1.5,1-2.8,2.5-3.1
	c0.7-0.2,1.2-0.8,1.2-1.5c0-2.6,2.1-4.7,4.7-4.7s4.7,2.1,4.7,4.7c0,0.7,0.5,1.3,1.2,1.5c1.6,0.4,2.6,1.9,2.4,3.5
	c-0.1,0.7,0.3,1.3,1,1.6c1.4,0.5,2.5,1.6,3,3c0,0,0,0.1,0.1,0.1c0.5,1.1,0.3,2.8,0.3,2.8c-0.3,1.9-1.7,3.6-3.5,4.2
	c-0.4,0.2-0.8,0.5-0.8,1c-0.1,0.7-0.6,2.4-2.3,3.2c-1.4,0.7-2.8,0.3-3.4,0c-0.9-0.4-1.5-0.9-1.9-1.4v-3.2l3.2-3.2
	c0.3-0.3,0.3-0.8,0-1c-0.3-0.3-0.8-0.3-1,0l-2.2,2.2v-4.8C31.6,15.3,31.3,15,30.9,15z M41.9,48.5H31.6V27.8c0.4,0.3,0.8,0.5,1.3,0.8
	c0.4,0.2,1.2,0.4,2.2,0.4c0.1,0,0.1,0.9,0.1,1.3c0,4.3,2.9,7.8,6.6,8.2v10H41.9z M42.6,29.8c-0.4,0-0.7,0.3-0.7,0.7V37
	c-2.9-0.4-5.2-3.3-5.2-6.7c0-0.5,0.1-1.1,0.2-1.6c2.2-0.8,3.5-3.4,3.7-4.4c0.5-0.2,1-0.4,1.4-0.7c3.6-0.5,6.6,2.8,6.6,6.7
	c0,3.4-2.3,6.3-5.2,6.7v-2.2l2.3-2.3c0.3-0.3,0.3-0.8,0-1c-0.3-0.3-0.8-0.3-1,0l-1.3,1.3v-2.3C43.4,30.1,43,29.8,42.6,29.8z"/>
</svg>
