<?xml version="1.0" encoding="utf-8"?>
<!-- Generator: Adobe Illustrator 21.1.0, SVG Export Plug-In . SVG Version: 6.00 Build 0)  -->
<svg version="1.1" id="Layer_1" xmlns="http://www.w3.org/2000/svg" xmlns:xlink="http://www.w3.org/1999/xlink" x="0px" y="0px"
	 viewBox="0 0 31.5 40" style="enable-background:new 0 0 31.5 40;" xml:space="preserve">
<path d="M28.9,7.6H2.6C1.2,7.6,0,8.8,0,10.2v27.2C0,38.8,1.2,40,2.6,40h26.3c0.7,0,1.5-0.3,2-0.9c0.5-0.5,0.7-1.2,0.6-1.9v-27
	C31.5,8.8,30.3,7.6,28.9,7.6z M29.8,38.2c-0.2,0.3-0.6,0.4-0.9,0.4H2.6c-0.7,0-1.2-0.6-1.2-1.2V10.2C1.4,9.5,2,9,2.6,9h26.3
	c0.7,0,1.2,0.6,1.2,1.2v27.2C30.1,37.7,30,38,29.8,38.2z M14,5l-2.2-2.5L9.7,0L7.5,2.5L5.3,5h4.4H14z M22.8,5L25,2.5L27.2,0h-4.4
	h-4.3l2.2,2.5L22.8,5z M10.1,17.2c-2.6,0-4.7,2.1-4.7,4.7v7h1.4l0.3,7.9h6.1l0.2-7.9h1.4v-7C14.8,19.3,12.7,17.2,10.1,17.2z
	 M13.4,27.5H12l-0.2,7.9H8.5l-0.3-7.9H6.8v-5.6c0-1.8,1.5-3.3,3.3-3.3s3.3,1.5,3.3,3.3C13.4,21.9,13.4,27.5,13.4,27.5z M10.1,17
	c1.7,0,3.1-1.4,3.1-3.1s-1.4-3.1-3.1-3.1S7,12.2,7,13.9S8.4,17,10.1,17z M10.1,12.2c0.9,0,1.7,0.8,1.7,1.7s-0.8,1.7-1.7,1.7
	s-1.7-0.8-1.7-1.7S9.2,12.2,10.1,12.2z M21.6,17.2c-2.6,0-4.7,2.1-4.7,4.7v7h1.4l0.3,7.9h6.1l0.2-7.9h1.4v-7
	C26.3,19.3,24.2,17.2,21.6,17.2z M24.9,27.5h-1.4l-0.2,7.9H20l-0.3-7.9h-1.4v-5.6c0-1.8,1.5-3.3,3.3-3.3s3.3,1.5,3.3,3.3V27.5z
	 M21.5,17c1.7,0,3.1-1.4,3.1-3.1s-1.4-3.1-3.1-3.1s-3.1,1.4-3.1,3.1S19.8,17,21.5,17z M21.5,12.2c0.9,0,1.7,0.8,1.7,1.7
	s-0.8,1.7-1.7,1.7s-1.7-0.8-1.7-1.7S20.6,12.2,21.5,12.2z"/>
</svg>
