<?xml version="1.0" encoding="utf-8"?>
<!-- Generator: Adobe Illustrator 21.1.0, SVG Export Plug-In . SVG Version: 6.00 Build 0)  -->
<svg version="1.1" id="Layer_1" xmlns="http://www.w3.org/2000/svg" xmlns:xlink="http://www.w3.org/1999/xlink" x="0px" y="0px"
	 viewBox="0 0 36.4 36.4" style="enable-background:new 0 0 36.4 36.4;" xml:space="preserve">
<path d="M13.5,10c0,2.6,2.1,4.7,4.7,4.7s4.7-2.1,4.7-4.7s-2.1-4.7-4.7-4.7c-1.2,0-2.4,0.5-3.3,1.4S13.5,8.8,13.5,10z M18.2,13.3
	c-1.8,0-3.2-1.5-3.2-3.2c0-1.8,1.5-3.2,3.2-3.2c0.9,0,1.7,0.3,2.3,0.9c0.6,0.6,0.9,1.4,0.9,2.3C21.4,11.8,20,13.3,18.2,13.3z
	 M36.4,35.5L32,24.1c-0.1-0.3-0.4-0.5-0.7-0.5h-7.9c3.2-5.2,4.7-9.8,4.7-13.6c0-2.7-1-5.2-2.9-7.1S20.9,0,18.2,0l0,0
	c-5.5,0-10,4.5-10,10c0,3.8,1.6,8.4,4.7,13.6H5c-0.3,0-0.6,0.2-0.7,0.5L0,35.5c-0.1,0.4,0,0.8,0.4,0.9c0.1,0,0.2,0,0.3,0h35
	c0.4,0,0.7-0.3,0.7-0.7C36.4,35.6,36.4,35.5,36.4,35.5z M34.7,35h-4.4l-3.9-5.1l5.6-2L34.7,35z M24.3,3.9c1.6,1.6,2.5,3.8,2.5,6.1
	c0,7.2-6.4,16-8.6,18.8C16,26,9.6,17.2,9.6,10c0-4.7,3.9-8.6,8.6-8.6C20.5,1.4,22.7,2.3,24.3,3.9z M18.7,30.5
	C18.7,30.5,18.7,30.4,18.7,30.5c1.5-1.8,2.8-3.6,4-5.4H31l0.6,1.5l-16.3,5.8l-5.6-7.3h4.2c1.2,1.8,2.5,3.6,3.9,5.3
	c0.1,0.2,0.3,0.3,0.5,0.3C18.4,30.6,18.5,30.6,18.7,30.5z M15.1,33.9L15.1,33.9l9.8-3.5l3.5,4.6H12L15.1,33.9z M13.8,32.9l-6,2.1h-6
	l3.8-9.9h2.2L13.8,32.9z"/>
</svg>
