<?xml version="1.0" encoding="utf-8"?>
<!-- Generator: Adobe Illustrator 21.1.0, SVG Export Plug-In . SVG Version: 6.00 Build 0)  -->
<svg version="1.1" id="Layer_1" xmlns="http://www.w3.org/2000/svg" xmlns:xlink="http://www.w3.org/1999/xlink" x="0px" y="0px"
	 viewBox="0 0 28.1 50" style="enable-background:new 0 0 28.1 50;" xml:space="preserve">
<path d="M9.6,35.1h8.8c2.9,0,5.3-2.6,5.3-5.7v-4.8v-0.9V7c0-3.9-3.1-7-7-7h-5.3c-3.9,0-7,3.2-7,7v16.7v0.9v4.8
	C4.4,32.5,6.7,35.1,9.6,35.1z M18.4,33.3H9.6c-1.9,0-3.5-1.8-3.5-3.9v-3.9h15.8v3.9l0,0C21.9,31.6,20.4,33.3,18.4,33.3z M6.1,20.2
	h4.4c0.5,0,0.9-0.4,0.9-0.9s-0.4-0.9-0.9-0.9H6.1v-1.8h4.4c0.5,0,0.9-0.4,0.9-0.9s-0.4-0.9-0.9-0.9H6.1V13h4.4
	c0.5,0,0.9-0.4,0.9-0.9s-0.4-0.9-0.9-0.9H6.1V9.6h4.4c0.5,0,0.9-0.4,0.9-0.9S11,7.8,10.5,7.8H6.1V7c0-2.9,2.4-5.3,5.3-5.3h5.3
	C19.6,1.7,22,4.1,22,7v0.9l0,0h-4.4c-0.5,0-0.9,0.4-0.9,0.9s0.4,0.9,0.9,0.9H22l0,0v1.8l0,0h-4.4c-0.5,0-0.9,0.4-0.9,0.9
	s0.4,0.9,0.9,0.9H22l0,0v1.8l0,0h-4.4c-0.5,0-0.9,0.4-0.9,0.9c0,0.5,0.4,0.9,0.9,0.9H22l0,0v1.8l0,0h-4.4c-0.5,0-0.9,0.4-0.9,0.9
	s0.4,0.9,0.9,0.9H22l0,0V24H6.1V20.2z M27.2,17.8c-0.5,0-0.9,0.4-0.9,0.9v9.5c0,4.8-3.9,8.6-8.8,8.6h-7c-4.8,0-8.8-3.9-8.8-8.6v-9.5
	c0-0.5-0.4-0.9-0.9-0.9s-0.9,0.4-0.9,0.9v9.5c0,5.7,4.7,10.4,10.5,10.4h2.7c0,0.1-0.1,0.2-0.1,0.3v9.4H7c-0.5,0-0.9,0.4-0.9,0.9
	C6.1,49.6,6.5,50,7,50h14c0.5,0,0.9-0.4,0.9-0.9s-0.4-0.9-0.9-0.9h-6.1v-9.4c0-0.1,0-0.2-0.1-0.3h2.7c5.8,0,10.5-4.7,10.5-10.4v-9.5
	C28.1,18.2,27.7,17.8,27.2,17.8z"/>
</svg>
