<?xml version="1.0" encoding="utf-8"?>
<!-- Generator: Adobe Illustrator 21.1.0, SVG Export Plug-In . SVG Version: 6.00 Build 0)  -->
<svg version="1.1" id="Layer_1" xmlns="http://www.w3.org/2000/svg" xmlns:xlink="http://www.w3.org/1999/xlink" x="0px" y="0px"
	 viewBox="0 0 30.6 40" style="enable-background:new 0 0 30.6 40;" xml:space="preserve">
<path d="M30,36h-2.4V6c0-0.5-0.2-0.9-0.5-1.3c-0.3-0.3-0.8-0.5-1.3-0.5h-10V0.5c0-0.1-0.1-0.3-0.2-0.4c0,0-0.2-0.1-0.3-0.1H6.2
	C6,0,5.9,0.1,5.8,0.2C5.7,0.3,5.6,0.4,5.6,0.5v3.7H4.8c-0.5,0-0.9,0.2-1.3,0.5C3.2,5.1,3,5.6,3,6.1v30H0.5c-0.1,0-0.3,0.1-0.4,0.2
	S0,36.4,0,36.6v2.9c0,0.1,0.1,0.3,0.2,0.4c0.1,0,0.2,0.1,0.3,0.1H30c0.1,0,0.3-0.1,0.4-0.2c0.1-0.1,0.2-0.2,0.2-0.4v-2.9
	c0-0.1-0.1-0.3-0.2-0.4C30.3,36.1,30.2,36,30,36z M6.7,1.1h8v3.2h-8V1.1z M4.1,6.1c0-0.2,0.1-0.4,0.2-0.5s0.3-0.2,0.5-0.2h21.1
	c0.2,0,0.4,0.1,0.5,0.2s0.2,0.3,0.2,0.5v30h-7.2v-5.9h1.4c0.1,0,0.3-0.1,0.4-0.2s0.2-0.2,0.2-0.4v-2.5c0-0.1-0.1-0.3-0.2-0.4
	s-0.2-0.2-0.4-0.2H9.9c-0.1,0-0.3,0.1-0.4,0.2c-0.1,0.1-0.2,0.2-0.2,0.4v2.5c0,0.1,0.1,0.3,0.2,0.4c0.1,0.1,0.2,0.2,0.4,0.2h1.4V36
	H4.1V6.1z M10.4,29v-1.4h9.8V29H10.4z M12.3,30.1h5.9V36h-5.9L12.3,30.1z M29.5,38.9H1.1v-1.8h28.4V38.9z M6.6,11.5H13
	c0.1,0,0.3-0.1,0.4-0.2c0.1-0.1,0.2-0.2,0.2-0.4v-3c0-0.1,0-0.1,0-0.2s-0.1-0.1-0.1-0.2c-0.1-0.1-0.1-0.1-0.2-0.1
	c-0.1,0-0.1,0-0.2,0H6.6c-0.1,0-0.3,0.1-0.4,0.2c0,0-0.1,0.2-0.1,0.3v3c0,0.1,0.1,0.3,0.2,0.4C6.4,11.4,6.5,11.5,6.6,11.5z M7.2,8.5
	h5.3v1.9H7.2V8.5z M6.6,18H13c0.1,0,0.1,0,0.2,0s0.1-0.1,0.2-0.1c0.1-0.1,0.1-0.1,0.1-0.2s0-0.1,0-0.2v-3c0-0.1-0.1-0.3-0.2-0.4
	c-0.1-0.1-0.2-0.2-0.4-0.2H6.6c-0.1,0-0.3,0.1-0.4,0.2C6.1,14.2,6,14.3,6,14.5v3c0,0.1,0.1,0.3,0.2,0.4C6.4,17.9,6.5,18,6.6,18z
	 M7.2,15h5.3v1.9H7.2V15z M13.5,23.9v-3c0-0.1,0-0.1,0-0.2s-0.1-0.1-0.1-0.2c-0.1-0.1-0.1-0.1-0.2-0.1c-0.1,0-0.1,0-0.2,0H6.6
	c-0.1,0-0.3,0.1-0.4,0.2S6,20.8,6,21v3c0,0.1,0.1,0.3,0.2,0.4s0.2,0.2,0.4,0.2H13c0.1,0,0.3-0.1,0.4-0.2
	C13.5,24.2,13.5,24.1,13.5,23.9z M12.4,23.4H7.2v-1.9h5.3v1.9H12.4z M17.6,11.5h6.3c0.1,0,0.3-0.1,0.4-0.2c0.1-0.1,0.2-0.2,0.2-0.4
	v-3c0-0.1,0-0.1,0-0.2s-0.1-0.1-0.1-0.2c-0.1-0.1-0.1-0.1-0.2-0.1s-0.1,0-0.2,0h-6.3c-0.1,0-0.1,0-0.2,0s-0.1,0.1-0.2,0.1
	c-0.1,0.1-0.1,0.1-0.1,0.2s0,0.1,0,0.2v3c0,0.1,0.1,0.3,0.2,0.4C17.3,11.4,17.5,11.5,17.6,11.5z M18.1,8.5h5.3v1.9h-5.3
	C18.1,10.4,18.1,8.5,18.1,8.5z M17.6,18h6.3c0.1,0,0.1,0,0.2,0s0.1-0.1,0.2-0.1c0.1-0.1,0.1-0.1,0.1-0.2s0-0.1,0-0.2v-3
	c0-0.1-0.1-0.3-0.2-0.4c-0.1-0.1-0.2-0.2-0.4-0.2h-6.3c-0.1,0-0.3,0.1-0.4,0.2c-0.1,0.1-0.2,0.2-0.2,0.4v3c0,0.1,0,0.1,0,0.2
	s0.1,0.1,0.1,0.2c0.1,0.1,0.1,0.1,0.2,0.1C17.5,18,17.5,18,17.6,18z M18.1,15h5.3v1.9h-5.3C18.1,16.9,18.1,15,18.1,15z M17.6,24.5
	h6.3c0.1,0,0.3-0.1,0.4-0.2s0.2-0.2,0.2-0.4v-3c0-0.1,0-0.1,0-0.2s-0.1-0.1-0.1-0.2c-0.1-0.1-0.1-0.1-0.2-0.1s-0.1,0-0.2,0h-6.3
	c-0.1,0-0.1,0-0.2,0s-0.1,0.1-0.2,0.1c-0.1,0.1-0.1,0.1-0.1,0.2s0,0.1,0,0.2v3c0,0.1,0.1,0.3,0.2,0.4C17.3,24.4,17.5,24.5,17.6,24.5
	z M18.1,21.5h5.3v1.9h-5.3C18.1,23.4,18.1,21.5,18.1,21.5z"/>
</svg>
