<?xml version="1.0" encoding="utf-8"?>
<!-- Generator: Adobe Illustrator 21.1.0, SVG Export Plug-In . SVG Version: 6.00 Build 0)  -->
<svg version="1.1" id="Layer_1" xmlns="http://www.w3.org/2000/svg" xmlns:xlink="http://www.w3.org/1999/xlink" x="0px" y="0px"
	 viewBox="0 0 40 40" style="enable-background:new 0 0 40 40;" xml:space="preserve">
<path d="M34.4,0H5.6C2.5,0,0,2.5,0,5.6v28.8C0,37.5,2.5,40,5.6,40h28.8c3.1,0,5.6-2.5,5.6-5.6V5.6C40,2.5,37.5,0,34.4,0z M38.4,34.4
	c0,2.2-1.8,4-4,4H5.6c-2.2,0-4-1.8-4-4V5.6c0-2.2,1.8-4,4-4h28.8c2.2,0,4,1.8,4,4C38.4,5.6,38.4,34.4,38.4,34.4z M22.4,7.2L22.4,7.2
	L22.4,7.2h-9.6C12.4,7.2,12,7.6,12,8v24c0,0.4,0.4,0.8,0.8,0.8h4.8l0,0l0,0c0.4,0,0.8-0.4,0.8-0.8v-7.2h4l0,0c4.8,0,8.8-4,8.8-8.8
	C31.2,11.1,27.3,7.2,22.4,7.2z M22.4,23.2L22.4,23.2h-4.8c-0.4,0-0.8,0.4-0.8,0.8v7.2h-3.2V8.8h8.8l0,0l0,0c4,0,7.2,3.2,7.2,7.2
	S26.4,23.2,22.4,23.2z M22.4,12L22.4,12L22.4,12h-4.8c-0.4,0-0.8,0.4-0.8,0.8v6.4c0,0.4,0.4,0.8,0.8,0.8h4.8l0,0c2.2,0,4-1.8,4-4
	C26.4,13.8,24.6,12,22.4,12z M22.4,18.4L22.4,18.4h-4v-4.8h4l0,0l0,0c1.3,0,2.4,1.1,2.4,2.4S23.7,18.4,22.4,18.4z"/>
</svg>
