<?xml version="1.0" encoding="utf-8"?>
<!-- Generator: Adobe Illustrator 21.1.0, SVG Export Plug-In . SVG Version: 6.00 Build 0)  -->
<svg version="1.1" id="Layer_1" xmlns="http://www.w3.org/2000/svg" xmlns:xlink="http://www.w3.org/1999/xlink" x="0px" y="0px"
	 viewBox="0 0 20 20" style="enable-background:new 0 0 20 20;" xml:space="preserve">
<path d="M19.4,14.7l-2.8-2.8c-1-1-2.7-0.6-3.1,0.7c-0.3,0.9-1.3,1.4-2.2,1.2c-2-0.5-4.7-3.1-5.2-5.2C5.9,7.7,6.5,6.7,7.4,6.4
	C8.7,6,9.1,4.3,8.1,3.3L5.3,0.5c-0.8-0.7-2-0.7-2.7,0L0.7,2.4c-1.9,2,0.2,7.3,4.9,12s10,6.9,12,4.9l1.9-1.9
	C20.1,16.6,20.1,15.4,19.4,14.7z"/>
</svg>
