<?xml version="1.0" encoding="utf-8"?>
<!-- Generator: Adobe Illustrator 21.1.0, SVG Export Plug-In . SVG Version: 6.00 Build 0)  -->
<svg version="1.1" id="Layer_1" xmlns="http://www.w3.org/2000/svg" xmlns:xlink="http://www.w3.org/1999/xlink" x="0px" y="0px"
	 viewBox="0 0 33.7 40.4" style="enable-background:new 0 0 33.7 40.4;" xml:space="preserve">
<path d="M33.7,31v-4.8L21.1,13.7V6.1c0-1.9-1.5-6.1-4-6.1h-0.5c-2.5,0-4,4.2-4,6.1v7.6L0,26.2V31l12.6-6.4v6.5l-3.9,4.1v5.2l4.2-2.1
	c0.2,0.3,0.6,0.5,1,0.5h2.2v1.5h1.8v-1.5h1.8c0.4,0,0.8-0.2,1-0.5l4.3,2.1v-5.2l-3.9-4.1v-6.5L33.7,31z M1.4,28.7v-1.9l11.1-11V23
	L1.4,28.7z M10.1,35.7l2.4-2.6v3.7L10.1,38V35.7z M32.3,26.7v1.9L21.1,23v-7.3L32.3,26.7z M17.9,37.3v-7.5h-1.8v7.5h-2.2V6.1
	c0-1.6,1.4-4.7,2.6-4.7H17c1.2,0,2.6,3.1,2.6,4.7v4.8h-2.5v1.4h2.5v1.4h-2.5v1.4h2.5v1.3h-2.5v1.4h2.5v1.4h-2.5v1.4h2.5V22h-2.5v1.4
	h2.5v1.4h-2.5v1.4h2.5v11.2L17.9,37.3z M23.6,35.7v2.4l-2.5-1.3v-3.7L23.6,35.7z"/>
</svg>
