<?xml version="1.0" encoding="utf-8"?>
<!-- Generator: Adobe Illustrator 21.1.0, SVG Export Plug-In . SVG Version: 6.00 Build 0)  -->
<svg version="1.1" id="Layer_1" xmlns="http://www.w3.org/2000/svg" xmlns:xlink="http://www.w3.org/1999/xlink" x="0px" y="0px"
	 viewBox="0 0 49.4 26.8" style="enable-background:new 0 0 49.4 26.8;" xml:space="preserve">
<path d="M46.2,23.8h-43c-1.8,0-3.2-1.4-3.2-3.2V3.2C0,1.4,1.4,0,3.2,0h43c1.8,0,3.2,1.4,3.2,3.2v17.4c0.1,0.8-0.2,1.6-0.7,2.2
	C48.1,23.5,47.2,23.8,46.2,23.8z M3.2,1.4c-0.9,0-1.8,0.7-1.8,1.8v17.4c0,0.9,0.7,1.8,1.8,1.8h43c0.6,0,1.1-0.2,1.4-0.6
	c0.3-0.3,0.4-0.7,0.4-1.2V3.2c0-0.9-0.7-1.8-1.8-1.8C46.2,1.4,3.2,1.4,3.2,1.4z M36.5,16c-2.2,0-4-1.8-4-4s1.8-4,4-4s4,1.8,4,4
	S38.7,16,36.5,16z M36.5,9.4c-1.4,0-2.6,1.2-2.6,2.6s1.2,2.6,2.6,2.6s2.6-1.2,2.6-2.6S38,9.4,36.5,9.4z M36.5,20.5
	c-4.7,0-8.5-3.8-8.5-8.5s3.8-8.5,8.5-8.5S45,7.3,45,12S41.2,20.5,36.5,20.5z M36.5,4.9c-3.9,0-7.1,3.2-7.1,7.1s3.2,7.1,7.1,7.1
	s7.1-3.2,7.1-7.1S40.4,4.9,36.5,4.9z M6.4,7.8h19.2v1.4H6.4V7.8z M6.4,11.8h19.2v1.4H6.4V11.8z M6.4,15.7h19.2v1.4H6.4V15.7z
	 M4.3,25.3h7v1.4h-7V25.3z M38.4,25.3h7v1.4h-7V25.3z"/>
</svg>
