<?xml version="1.0" encoding="utf-8"?>
<!-- Generator: Adobe Illustrator 21.1.0, SVG Export Plug-In . SVG Version: 6.00 Build 0)  -->
<svg version="1.1" id="Layer_1" xmlns="http://www.w3.org/2000/svg" xmlns:xlink="http://www.w3.org/1999/xlink" x="0px" y="0px"
	 viewBox="0 0 54.4 29.4" style="enable-background:new 0 0 54.4 29.4;" xml:space="preserve">
<path d="M50.9,26.1H3.5c-1.9,0-3.5-1.6-3.5-3.5V3.5C0,1.6,1.6,0,3.5,0h47.4c1.9,0,3.5,1.6,3.5,3.5v19.2c0.1,0.8-0.2,1.7-0.8,2.4
	C52.9,25.7,52,26.1,50.9,26.1z M3.5,1.4c-1,0-2.1,0.8-2.1,2.1v19.2c0,1,0.8,2.1,2.1,2.1h47.4c0.7,0,1.2-0.2,1.6-0.7
	c0.3-0.4,0.5-0.8,0.4-1.3V3.6c0-1-0.8-2.1-2.1-2.1H3.5V1.4z M40.2,17.5c-2.4,0-4.4-2-4.4-4.4s2-4.4,4.4-4.4s4.4,2,4.4,4.4
	S42.6,17.5,40.2,17.5z M40.2,10.2c-1.6,0-3,1.3-3,3s1.3,3,3,3s2.9-1.3,2.9-3S41.8,10.2,40.2,10.2z M40.2,22.5
	c-5.2,0-9.3-4.2-9.3-9.3s4.2-9.3,9.3-9.3c5.2,0,9.3,4.2,9.3,9.3S45.4,22.5,40.2,22.5z M40.2,5.2c-4.4,0-7.9,3.6-7.9,7.9
	s3.6,7.9,7.9,7.9s7.9-3.6,7.9-7.9S44.6,5.2,40.2,5.2z M7,8.6h21.2V10H7V8.6z M7,13h21.2v1.4H7V13z M7,17.3h21.2v1.4H7V17.3z M4.7,28
	h7.8v1.4H4.7V28z M42.3,28h7.8v1.4h-7.8V28z"/>
</svg>
