<?xml version="1.0" encoding="utf-8"?>
<!-- Generator: Adobe Illustrator 21.1.0, SVG Export Plug-In . SVG Version: 6.00 Build 0)  -->
<svg version="1.1" id="Layer_1" xmlns="http://www.w3.org/2000/svg" xmlns:xlink="http://www.w3.org/1999/xlink" x="0px" y="0px"
	 viewBox="0 0 29.9 30" style="enable-background:new 0 0 29.9 30;" xml:space="preserve">
<path d="M19.6,0.2h-0.8v4.3l-2.1-0.7V0.2h-0.8v3.3L5.8,0v17.6h-3v-3.7H2v3.7H0V30h11.2h0.4h10.2V5.4l-2.1-0.7L19.6,0.2L19.6,0.2z
	 M10.8,29.1h-10V18.4h9.9L10.8,29.1L10.8,29.1z M16.2,25.5c-1,0-1.7-0.8-1.7-1.7c0-0.9,0.8-1.7,1.7-1.7s1.7,0.8,1.7,1.7
	C17.9,24.7,17.2,25.5,16.2,25.5z M20.9,29.1h-4.2v-2.9c1.1-0.2,2.1-1.3,2.1-2.5c0-1.4-1.1-2.6-2.6-2.6c-1.4,0-2.6,1.1-2.6,2.6
	c0,1.3,1,2.3,2.2,2.5v2.9h-4.4V17.6h-5V1.1L20.8,6L20.9,29.1L20.9,29.1z M18.9,8.9H8.6v0.8h10.3C18.9,9.7,18.9,8.9,18.9,8.9z
	 M18.9,14.7H8.6v0.8h10.3C18.9,15.5,18.9,14.7,18.9,14.7z M13.7,11.7H8.6v0.8h5.2v-0.8H13.7z M18.9,11.7h-3.1v0.8h3.1V11.7z
	 M26.9,11.2h-2.7V12h2.7V11.2z M26.9,14.9h-2.7v0.8h2.7V14.9z M26.9,18.5h-2.7v0.8h2.7V18.5z M26.9,22.1h-2.7v0.8h2.7V22.1z
	 M26.9,25.8h-2.7v0.8h2.7V25.8z M12.7,6H8.6v0.8h4.1C12.7,6.8,12.7,6,12.7,6z M4.5,20.4H2.8v0.8h1.7V20.4z M8.9,20.4H7.3v0.8H9v-0.8
	H8.9z M4.5,23.4H2.8v0.8h1.7V23.4z M8.9,23.4H7.3v0.8H9v-0.8H8.9z M4.5,26.3H2.8v0.8h1.7V26.3z M8.9,26.3H7.3v0.8H9v-0.8H8.9z
	 M18.9,17.6h-5.2v0.8h5.2V17.6z M24.2,8v0.8h5v20.3h-5V30H30V8H24.2z"/>
</svg>
