<?xml version="1.0" encoding="utf-8"?>
<!-- Generator: Adobe Illustrator 21.1.0, SVG Export Plug-In . SVG Version: 6.00 Build 0)  -->
<svg version="1.1" id="Layer_1" xmlns="http://www.w3.org/2000/svg" xmlns:xlink="http://www.w3.org/1999/xlink" x="0px" y="0px"
	 viewBox="0 0 28.7 40.5" style="enable-background:new 0 0 28.7 40.5;" xml:space="preserve">
<path d="M13.9,1.1l-2.5-0.5C8.8,0.1,6.1,0,3.4,0.5L0.8,1L0.7,1.5c-0.1,1.1-1,10.7-0.6,12.7c0.4,1.8,3.1,3.5,4.3,4.1
	c-0.4,3.3-2,18,1,21.3c0.3,0.3,0.6,0.5,1,0.7v0.3h1.3c0.6,0,1.2-0.3,1.6-0.8c2.9-3.3,1.4-18,1-21.3c1.1-0.6,3.8-2.3,4.3-4.1
	C15,12.5,14,2.7,13.9,1.6V1.1z M13.2,14c-0.3,1.2-2.6,2.7-4,3.4l-0.4,0.2l0.1,0.5c0.6,4.9,1.6,18.2-0.6,20.7C8,39,7.9,39,7.7,39.1
	V39H7c-0.1,0-0.4,0-0.6-0.3C4.1,36,5.2,22.8,5.9,18L6,17.5l-0.5-0.2c-1.4-0.7-3.7-2.2-4-3.4C1.2,12.6,1.7,6.4,2.1,2.2l1.5-0.3
	C4,1.8,4.4,1.8,4.8,1.8v8.5h1.4V1.7c0.8,0,1.6,0,2.5,0v8.6h1.4V1.9c0.3,0,0.7,0.1,1,0.2l1.5,0.3C13,6.4,13.5,12.8,13.2,14z
	 M24.8,25.5c-0.5-1.2-1-2.3-0.9-3c0-0.4,0.7-1.5,1.3-2.4c1.6-2.5,3.8-5.9,3.5-9.3C28,3.9,20.5,0.6,20.2,0.4l-1-0.4v38.5
	c0,0.6,0.4,1.2,1.1,1.5c0.4,0.1,0.8,0.2,1.2,0.2c1.2,0,2.2-0.6,3-1.8c1.7-2.7,1.8-7.4,1.3-9.7C25.6,27.5,25.2,26.5,24.8,25.5z
	 M23.3,37.6c-0.8,1.3-1.8,1.2-2.5,1c-0.1,0-0.2-0.1-0.2-0.1V2.2c2,1.1,6.2,4,6.7,8.6c0.3,2.9-1.8,6-3.2,8.3c-0.9,1.3-1.5,2.3-1.6,3
	c-0.1,1.1,0.4,2.4,1,3.7c0.4,1,0.8,1.9,1,2.9C24.9,31,24.8,35.4,23.3,37.6z"/>
</svg>
