<?xml version="1.0" encoding="utf-8"?>
<!-- Generator: Adobe Illustrator 21.1.0, SVG Export Plug-In . SVG Version: 6.00 Build 0)  -->
<svg version="1.1" id="Layer_1" xmlns="http://www.w3.org/2000/svg" xmlns:xlink="http://www.w3.org/1999/xlink" x="0px" y="0px"
	 viewBox="0 0 31 29.9" style="enable-background:new 0 0 31 29.9;" xml:space="preserve">
<path d="M10.3,20.8h15.1c1.3,0,2.4-0.8,2.7-1.9l3-10.4L7.4,6.4L6.5,1.9L0.3,0L0,0.9l5.6,1.7l4.8,23.5h2.1C12.2,26.5,12,27,12,27.5
	c0,1.3,1.1,2.4,2.5,2.4c1.3,0,2.5-1.1,2.5-2.4c0-0.6-0.2-1-0.5-1.4h5.8c-0.3,0.4-0.5,0.9-0.5,1.4c0,1.3,1.1,2.4,2.5,2.4
	c1.3,0,2.5-1.1,2.5-2.4c0-0.6-0.2-1-0.5-1.4h2.2v-1H11.3L10.3,20.8z M29.6,9.4L27,18.6c-0.2,0.7-0.9,1.2-1.6,1.2H10.1L7.6,7.4
	L29.6,9.4z M14.3,28.9c-0.7,0-1.4-0.6-1.4-1.4s0.6-1.4,1.4-1.4s1.4,0.6,1.4,1.4S15.1,28.9,14.3,28.9z M24,28.9
	c-0.7,0-1.4-0.6-1.4-1.4s0.6-1.4,1.4-1.4s1.4,0.6,1.4,1.4S24.7,28.9,24,28.9z M24.3,10.3H12.8v1h11.5V10.3z M24.3,12.6H12.8v1h11.5
	V12.6z M24.3,15H12.8v1h11.5V15z M24.3,17.4H12.8v1h11.5V17.4z"/>
</svg>
