<?xml version="1.0" encoding="utf-8"?>
<!-- Generator: Adobe Illustrator 21.1.0, SVG Export Plug-In . SVG Version: 6.00 Build 0)  -->
<svg version="1.1" id="Layer_1" xmlns="http://www.w3.org/2000/svg" xmlns:xlink="http://www.w3.org/1999/xlink" x="0px" y="0px"
	 viewBox="0 0 50 50" style="enable-background:new 0 0 50 50;" xml:space="preserve">
<path d="M1.3,43c-0.9-1.3-1.4-2.9-1.3-4.5c0.1-1.9,0.8-3.6,2.1-4.9l3.3-3.3c-0.7-2.5-0.9-5-0.6-7.6c0-0.4,0.4-0.7,0.8-0.6
	c0.4,0,0.7,0.4,0.6,0.8C6,25,6.1,27.1,6.5,29.1l1-1c0.5-0.5,1.3-0.8,2-0.8c0.8,0,1.5,0.3,2,0.8c1.1,1.1,1.1,2.9,0,4L9,34.8
	c0.8,1.2,1.7,2.4,2.7,3.5c4.6,4.6,11.2,6.5,17.4,5.1l-1-1c-0.5-0.5-0.8-1.3-0.8-2c0-0.8,0.3-1.5,0.8-2c1.1-1.1,2.9-1.1,4,0l2.8,2.8
	c1.3-0.8,2.4-1.7,3.5-2.7c1.1-1.1,2.1-2.3,2.9-3.7l0,0c0.3-0.5,0.6-1.1,0.8-1.6c0.4-0.8,0.7-1.6,0.9-2.4v-0.1c0.7-2.3,1-4.8,0.7-7.2
	c0-0.4,0.3-0.8,0.7-0.8s0.8,0.3,0.8,0.7c0.2,2.5,0,5-0.7,7.5l3.2,3.2c1.3,1.3,2.1,3.1,2.1,4.9c0.1,1.6-0.4,3.2-1.3,4.5l0.1,0.1
	c0.6,0.6,0.9,1.3,0.9,2.1s-0.3,1.5-0.9,2.1l-1.4,1.4c-0.6,0.6-1.3,0.9-2.1,0.9c-0.7,0-1.5-0.3-2.1-0.9v-0.5
	c-1.2,0.9-2.7,1.3-4.2,1.3c-0.4,0-0.9,0-1.4-0.1c-0.4-0.1-0.7-0.5-0.6-0.9c0.1-0.4,0.5-0.7,0.9-0.6c1.5,0.3,3,0,4.3-0.8l-1.5-1.5
	c-0.4-0.4-0.6-0.8-0.8-1.3c-1.1,0.8-2.6,0.6-3.5-0.3l-1.9-1.9l0,0l-3.2-3.2c-0.5-0.5-1.4-0.5-2,0c-0.3,0.3-0.4,0.6-0.4,1
	s0.1,0.7,0.4,1l2,2l0,0l3.6,3.6c0.2,0.2,0.4,0.4,0.6,0.5c0.3,0.2,0.4,0.7,0.1,1c-0.1,0.2-0.4,0.3-0.6,0.3c-0.2,0-0.3,0-0.4-0.1
	c-0.3-0.2-0.5-0.4-0.8-0.7l-3.3-3.3c-1.8,0.5-3.5,0.7-5.3,0.7c-1.9,0-3.8-0.3-5.6-0.8l-3.2,3.2c-1.3,1.3-3.1,2.1-4.9,2.1
	c-0.1,0-0.2,0-0.3,0c-1.5,0-3-0.5-4.2-1.3l-0.1,0.1c-0.6,0.6-1.3,0.9-2.1,0.9c-0.7,0-1.5-0.3-2.1-0.9l-1.4-1.4
	c-0.6-0.6-0.9-1.3-0.9-2.1S0.7,43.6,1.3,43L1.3,43z M48.3,38.7c-0.1-1.5-0.7-2.9-1.7-3.9L44,32.2c-0.3,0.9-0.8,1.8-1.2,2.7l1.5,1.5
	c0.5,0.5,0.8,1.2,0.8,2c0,0.6-0.2,1.1-0.5,1.5c0.5,0.1,1,0.4,1.4,0.8l1.5,1.5C48.1,41.1,48.4,39.9,48.3,38.7z M41.5,45l2.1,2.1l0,0
	l0.5,0.5c0.6,0.6,1.5,0.6,2.1,0l1.4-1.4c0.3-0.3,0.4-0.6,0.4-1s-0.2-0.8-0.4-1L47,43.7l0,0l-2.1-2.1c-0.3-0.3-0.7-0.4-1-0.4
	c-0.4,0-0.7,0.1-1,0.4l-1.3,1.3L41.5,43c-0.3,0.3-0.4,0.6-0.4,1C41,44.4,41.2,44.7,41.5,45z M37.2,43.4c0.2,0.2,0.6,0.4,0.9,0.4
	s0.7-0.1,0.9-0.4l1.4-1.4l0,0l0.6-0.6l0.7-0.7l0,0l1.4-1.4c0.2-0.2,0.4-0.6,0.4-0.9c0-0.4-0.1-0.7-0.4-0.9L42,36.1
	c-0.7,1-1.4,2-2.3,2.8l0.4,0.4c0.3,0.3,0.3,0.7,0,1c-0.1,0.1-0.3,0.2-0.5,0.2s-0.4-0.1-0.5-0.2L38.7,40c-0.9,0.8-1.8,1.5-2.7,2.1
	L37.2,43.4z M10.7,29.1c-0.3-0.3-0.6-0.4-1-0.4s-0.7,0.1-1,0.4l-5.5,5.5c-2,2-2.3,5.1-0.8,7.3l1.5-1.5c0.4-0.4,0.9-0.6,1.3-0.8
	c-0.3-0.5-0.5-1-0.5-1.6c0-0.7,0.3-1.4,0.8-2l5.1-5.1C11.2,30.5,11.2,29.6,10.7,29.1z M11,39.7l-0.4,0.4c-0.1,0.1-0.3,0.2-0.5,0.2
	s-0.4-0.1-0.5-0.2c-0.3-0.3-0.3-0.7,0-1l0.4-0.4c-0.8-0.9-1.5-1.8-2.1-2.7l-1.2,1.2c-0.2,0.2-0.4,0.6-0.4,0.9c0,0.4,0.1,0.7,0.4,0.9
	l1.4,1.4l0,0l1.4,1.4l0,0l1.4,1.4c0.5,0.5,1.3,0.5,1.9,0L14,42C12.9,41.3,11.9,40.5,11,39.7z M11.3,48.3c1.5-0.1,2.9-0.7,3.9-1.7
	l2.6-2.6c-0.5-0.2-1-0.4-1.4-0.6c-0.4-0.2-0.8-0.4-1.2-0.6l-1.5,1.5c-1,1-2.4,1.1-3.5,0.3c-0.1,0.5-0.4,1-0.8,1.4l-1.5,1.5
	C8.9,48.1,10.1,48.4,11.3,48.3z M2.3,46.2l1.4,1.4c0.6,0.6,1.5,0.6,2.1,0l2.7-2.7c0.3-0.3,0.4-0.6,0.4-1s-0.2-0.7-0.4-1L7,41.5
	C6.7,41.2,6.4,41,6,41s-0.7,0.1-1,0.4l-2.1,2.1l0,0L2.4,44C2.1,44.3,2,44.6,2,45S2,45.9,2.3,46.2z M42.3,21.9
	c-0.5,0.5-1.3,0.8-2,0.8c-0.8,0-1.5-0.3-2-0.8c-1.1-1.1-1.1-2.9,0-4l2.8-2.8c-0.7-1.2-1.6-2.3-2.5-3.2c0,0,0,0-0.1-0.1
	c0,0,0-0.1-0.1-0.1l-0.1-0.1c-1.1-1.1-2.3-2-3.6-2.8c0,0-0.1,0-0.1-0.1c-0.5-0.3-1.1-0.6-1.6-0.8c-0.8-0.4-1.6-0.7-2.4-0.9
	c0,0-0.1,0-0.1-0.1c-3.1-1-6.4-1.1-9.6-0.4L22,7.6c0.5,0.5,0.8,1.3,0.8,2c0,0.8-0.3,1.5-0.8,2c-1.1,1.1-2.9,1.1-4,0l-2.8-2.8
	c-1.2,0.8-2.4,1.7-3.5,2.7c-1.2,1.2-2.2,2.5-3,3.9c-0.3,0.6-1.2,2.5-1.6,3.7c0,0.1,0,0.1,0,0.2l0,0c-0.1,0.5-0.4,0.4-0.7,0.4l0,0
	c-0.2,0-0.4-0.1-0.5-0.2L2.4,16c-1.3-1.3-2.1-3.1-2.1-4.9c-0.2-1.4,0.3-3,1.2-4.3H1.4C0.9,6.2,0.6,5.5,0.6,4.7s0.3-1.5,0.9-2.1
	l1.4-1.4c1.1-1.1,3-1.1,4.1,0v0.1C8.3,0.4,9.9-0.1,11.5,0c1.9,0.1,3.6,0.8,4.9,2.1l3.3,3.3c3.6-1,7.4-1,11,0.1l3.2-3.2
	C35.2,1,37,0.2,38.8,0.2c1.6-0.1,3.2,0.4,4.5,1.3l0.1-0.1c1.1-1.1,3-1.1,4.1,0l1.4,1.4c0.6,0.6,0.9,1.3,0.9,2.1S49.5,6.4,48.9,7
	l-0.2,0c0.9,1.3,1.4,2.9,1.3,4.5c-0.1,1.9-0.8,3.6-2.1,4.9L42.3,21.9z M9.6,8C9.6,8,9.6,8.1,9.6,8l-2.8,2.8
	c-0.2,0.2-0.4,0.6-0.4,0.9c0,0.4,0.1,0.7,0.4,0.9L8,13.9c0.7-1,1.4-2,2.3-2.9l-0.4-0.4c-0.3-0.3-0.3-0.8,0-1c0.3-0.3,0.7-0.3,1,0
	l0.4,0.4c0.9-0.8,1.8-1.5,2.7-2.1l-1.2-1.2c-0.5-0.5-1.3-0.5-1.9,0L9.6,8z M1.6,11.3c0.1,1.5,0.7,2.9,1.7,3.9L6,17.8
	c0.4-1,0.9-2.1,1.2-2.7l-1.5-1.5c-0.5-0.5-0.8-1.2-0.8-2c0-0.6,0.2-1.1,0.5-1.5C4.9,10,4.4,9.7,4,9.3L2.5,7.9
	C1.9,8.9,1.6,10.1,1.6,11.3z M4.8,1.9c-0.4,0-0.7,0.1-1,0.4L2.5,3.7C2.2,3.9,2,4.3,2,4.7c0,0.4,0.2,0.8,0.4,1L3,6.3l0,0l2.1,2.1
	C5.7,9,6.6,9,7.2,8.4L8.5,7c0.6-0.6,0.6-1.5,0-2.1L5.9,2.3C5.6,2,5.2,1.9,4.8,1.9z M15.4,3.2c-2-2-5.1-2.3-7.3-0.8l1.5,1.5
	c0.4,0.4,0.6,0.9,0.8,1.3c1.1-0.8,2.6-0.6,3.5,0.3l5.1,5.1c0.5,0.5,1.4,0.5,2,0c0.3-0.3,0.4-0.6,0.4-1s-0.1-0.7-0.4-1L15.4,3.2z
	 M43.4,12.8c0.2-0.2,0.4-0.6,0.4-0.9c0-0.4-0.1-0.7-0.4-0.9l-4.2-4.2c-0.5-0.5-1.3-0.5-1.9,0L36.1,8c1,0.7,2,1.4,2.9,2.3l0.4-0.4
	c0.3-0.3,0.7-0.3,1,0s0.3,0.7,0,1L40,11.3c0.8,0.9,1.5,1.8,2.1,2.7L43.4,12.8z M38.7,1.6c-1.5,0.1-2.9,0.7-3.9,1.7L32.2,6
	c0.9,0.3,1.8,0.8,2.7,1.2l1.4-1.4c1-1,2.4-1.1,3.5-0.3c0.1-0.5,0.4-1,0.8-1.4l1.5-1.5C41.1,1.9,39.9,1.6,38.7,1.6z M47.7,3.8
	l-1.4-1.4C46,2.2,45.7,2,45.3,2s-0.7,0.1-1,0.4L43.7,3l0,0l-2.1,2.1c-0.3,0.3-0.4,0.6-0.4,1s0.2,0.8,0.4,1L43,8.5
	c0.6,0.6,1.5,0.6,2.1,0l2.7-2.7c0.3-0.3,0.4-0.6,0.4-1C48.1,4.5,48,4.1,47.7,3.8z M47.6,8l-1.5,1.5c-0.4,0.4-0.9,0.6-1.3,0.8
	c0.3,0.5,0.5,1,0.5,1.6c0,0.7-0.3,1.4-0.8,2L39.4,19c-0.5,0.5-0.5,1.4,0,2c0.3,0.3,0.6,0.4,1,0.4s0.7-0.1,1-0.4l5.5-5.5
	C48.8,13.4,49.1,10.3,47.6,8z M34.9,27.6l3.6,3.2c0.6,0.5,0.6,1.4,0.1,1.9l-2,2.2l0,0l0,0L34.7,37c-0.3,0.3-0.6,0.5-1,0.5
	c-0.3,0-0.6-0.1-0.9-0.3L29.2,34c-0.6-0.5-0.6-1.4-0.1-1.9l3.9-4.4C33.4,27.1,34.3,27.1,34.9,27.6z M34,28.7l-1.4,1.6l3.4,3.1
	l1.4-1.6L34,28.7z M33.7,36.1l1.4-1.5l-3.4-3.1L30.2,33L33.7,36.1z M17,13l5.2,4.6c0.3,0.3,0.5,0.6,0.5,1s-0.1,0.8-0.4,1.1l-3.7,4.2
	c-0.3,0.3-0.6,0.5-1,0.5h-0.1c-0.4,0-0.7-0.1-1-0.4l-5.2-4.6c-0.3-0.3-0.5-0.6-0.5-1s0.1-0.8,0.4-1.1l3.7-4.2
	C15.4,12.6,16.4,12.5,17,13z M12.2,18.4L12.2,18.4L12.2,18.4l5.2,4.6l0,0l0,0l3.7-4.2l0,0l0,0L16,14.1l0,0l0,0L12.2,18.4L12.2,18.4z
	"/>
</svg>
