<?xml version="1.0" encoding="utf-8"?>
<!-- Generator: Adobe Illustrator 21.1.0, SVG Export Plug-In . SVG Version: 6.00 Build 0)  -->
<svg version="1.1" id="Layer_1" xmlns="http://www.w3.org/2000/svg" xmlns:xlink="http://www.w3.org/1999/xlink" x="0px" y="0px"
	 viewBox="0 0 21.3 41" style="enable-background:new 0 0 21.3 41;" xml:space="preserve">
<path d="M0,0v22.4l0.8,1.7c0.7,1.6,1.2,3,1.4,4.4v0.4c0.1,1.3,1.3,2.4,2.7,2.4h1.3V41h1.4v-9.8h5.9v7.5h1.4v-7.5h1.2
	c1.3,0,2.4-1,2.7-2.5c0.2-1.7,0.7-3.4,1.6-5.1l0.8-1.3V0H0z M4.3,1.4v5.4h1.4V1.4h4.2v5.4h1.4V1.4h4.2v5.4h1.4V1.4h3v7.4h-4.5v4.8
	H12v11.1H9V13.6H5.7V8.8H1.4V1.4H4.3z M19.2,23c-1,1.9-1.6,3.8-1.8,5.6c-0.1,0.7-0.7,1.3-1.3,1.3H4.9c-0.7,0-1.3-0.5-1.3-1v-0.4
	c-0.2-1.6-0.7-3.2-1.5-4.9l-0.6-1.4v-12h2.8V15h3.3v11.1h5.9V15h3.3v-4.8h3V22L19.2,23z"/>
</svg>
