<?xml version="1.0" encoding="utf-8"?>
<!-- Generator: Adobe Illustrator 21.1.0, SVG Export Plug-In . SVG Version: 6.00 Build 0)  -->
<svg version="1.1" id="Layer_1" xmlns="http://www.w3.org/2000/svg" xmlns:xlink="http://www.w3.org/1999/xlink" x="0px" y="0px"
	 viewBox="0 0 43.7 40.2" style="enable-background:new 0 0 43.7 40.2;" xml:space="preserve">
<path d="M31.5,4.8H12.1c-1.2,0-2.1,1-2.1,2.1v8.9c0,1.2,1,2.1,2.1,2.1h19.4c1.2,0,2.1-1,2.1-2.2V7C33.7,5.8,32.7,4.8,31.5,4.8z
	 M32.3,15.8c0,0.4-0.4,0.8-0.7,0.8H12.1c-0.4,0-0.7-0.4-0.7-0.7V7c0-0.4,0.4-0.7,0.7-0.7h19.4c0.4,0,0.7,0.4,0.7,0.7L32.3,15.8
	L32.3,15.8z M10.7,22.9h5.2v4.2h-5.2V22.9z M27.7,22.9h5.2v4.2h-5.2V22.9z M18.4,22.1h6.4v1.4h-6.4V22.1z M18.4,25.6h6.4V27h-6.4
	V25.6z M42.1,4.8h-5.2V2.6c0-1.4-1.1-2.6-2.6-2.6h-25C7.8,0,6.7,1.1,6.7,2.6v2.3H1.5C0.7,4.8,0,5.5,0,6.4v7.2C0,14.4,0.7,15,1.5,15
	h2.2c0.8,0,1.5-0.7,1.5-1.5V6.3h1.5v24.5c0,1.4,1.1,2.6,2.6,2.6h0.6l-6.8,6.8h1.5l6.8-6.8h20.4l7,6.8h1.5l-6.9-6.8h1.1
	c1.4,0,2.6-1.1,2.6-2.6V6.3h1.5v7.3c0,0.8,0.7,1.5,1.5,1.5h2.2c0.8,0,1.5-0.7,1.5-1.5V6.4C43.7,5.5,43,4.8,42.1,4.8z M1.5,6.3h2.3
	V10H1.4V6.4C1.4,6.3,1.5,6.3,1.5,6.3z M3.7,13.6H1.5c-0.1,0-0.1-0.1-0.1-0.1v-2.1h2.4v2.1C3.8,13.6,3.7,13.6,3.7,13.6z M35.5,30.8
	c0,0.6-0.5,1.2-1.2,1.2h-25c-0.6,0-1.2-0.5-1.2-1.2V2.6c0-0.6,0.5-1.2,1.2-1.2h25.1c0.6,0,1.2,0.5,1.2,1.2v28.2H35.5z M42.1,6.3
	C42.2,6.3,42.2,6.4,42.1,6.3l0.1,3.7h-2.4V6.3H42.1z M42.1,13.6H40c-0.1,0-0.1-0.1-0.1-0.1v-2.1h2.4v2.1
	C42.2,13.6,42.2,13.6,42.1,13.6z M11.4,35.2h20.5v1.4H11.4V35.2z M8.4,38.5h26.7v1.4H8.4V38.5z"/>
</svg>
