<?xml version="1.0" encoding="utf-8"?>
<!-- Generator: Adobe Illustrator 21.1.0, SVG Export Plug-In . SVG Version: 6.00 Build 0)  -->
<svg version="1.1" id="Layer_1" xmlns="http://www.w3.org/2000/svg" xmlns:xlink="http://www.w3.org/1999/xlink" x="0px" y="0px"
	 viewBox="0 0 40 40" style="enable-background:new 0 0 40 40;" xml:space="preserve">
<path d="M20,0C9,0,0,9,0,20c0,4.8,1.7,9.3,4.6,12.7c0,0,0,0,0,0c2.1,2.5,4.7,4.4,7.6,5.6c0,0,0.1,0,0.1,0c0.2,0.1,0.5,0.2,0.7,0.3
	c0.1,0,0.2,0.1,0.3,0.1c0.2,0.1,0.4,0.1,0.6,0.2c0.1,0,0.3,0.1,0.4,0.1c0.2,0.1,0.4,0.1,0.6,0.2c0.2,0,0.3,0.1,0.5,0.1
	c0.2,0,0.3,0.1,0.5,0.1c0.2,0,0.4,0.1,0.6,0.1c0.2,0,0.3,0.1,0.5,0.1c0.2,0,0.4,0.1,0.6,0.1c0.1,0,0.3,0,0.4,0.1
	c0.2,0,0.5,0,0.7,0.1c0.1,0,0.2,0,0.3,0c0.4,0,0.7,0,1.1,0s0.7,0,1.1,0c0.1,0,0.2,0,0.3,0c0.2,0,0.5,0,0.7-0.1c0.1,0,0.3,0,0.4-0.1
	c0.2,0,0.4-0.1,0.6-0.1c0.2,0,0.3-0.1,0.5-0.1c0.2,0,0.4-0.1,0.6-0.1c0.2,0,0.3-0.1,0.5-0.1c0.2,0,0.3-0.1,0.5-0.1
	c0.2,0,0.4-0.1,0.6-0.2c0.1,0,0.3-0.1,0.4-0.1c0.2-0.1,0.4-0.1,0.6-0.2c0.1,0,0.2-0.1,0.3-0.1c0.2-0.1,0.5-0.2,0.7-0.3
	c0,0,0.1,0,0.1,0c2.9-1.2,5.5-3.1,7.6-5.6c0,0,0,0,0,0C38.3,29.3,40,24.8,40,20C40,9,31,0,20,0z M28.1,36.8
	C28.1,36.8,28.1,36.8,28.1,36.8c-0.3,0.1-0.5,0.2-0.8,0.3c-0.1,0-0.1,0-0.2,0.1c-0.2,0.1-0.4,0.2-0.6,0.3c-0.1,0-0.2,0.1-0.3,0.1
	c-0.2,0.1-0.4,0.1-0.6,0.2c-0.1,0-0.2,0.1-0.4,0.1C25.1,37.9,25,38,24.8,38c-0.1,0-0.3,0.1-0.4,0.1c-0.2,0-0.3,0.1-0.5,0.1
	c-0.2,0-0.3,0.1-0.5,0.1c-0.1,0-0.3,0.1-0.4,0.1c-0.2,0-0.4,0.1-0.6,0.1c-0.1,0-0.2,0-0.4,0c-0.2,0-0.5,0-0.7,0.1
	c-0.1,0-0.2,0-0.3,0c-0.3,0-0.7,0-1,0s-0.7,0-1,0c-0.1,0-0.2,0-0.3,0c-0.2,0-0.5,0-0.7-0.1c-0.1,0-0.3,0-0.4,0c-0.2,0-0.4,0-0.6-0.1
	c-0.1,0-0.3,0-0.4-0.1c-0.2,0-0.3-0.1-0.5-0.1c-0.2,0-0.3-0.1-0.5-0.1c-0.1,0-0.3-0.1-0.4-0.1c-0.2,0-0.4-0.1-0.5-0.1
	c-0.1,0-0.2-0.1-0.4-0.1c-0.2-0.1-0.4-0.1-0.6-0.2c-0.1,0-0.2-0.1-0.3-0.1c-0.2-0.1-0.4-0.2-0.6-0.3c-0.1,0-0.1,0-0.2-0.1
	c-0.2-0.1-0.5-0.2-0.7-0.3c0,0,0,0,0,0c-2.3-1.1-4.4-2.7-6-4.7c1.3-4.7,4.9-8.6,9.6-10.1c0.1,0.1,0.2,0.1,0.3,0.2
	c0.1,0,0.1,0.1,0.2,0.1c0.2,0.1,0.4,0.2,0.6,0.3c0.2,0.1,0.3,0.1,0.5,0.2c0,0,0.1,0,0.1,0c0.9,0.3,1.9,0.5,2.9,0.5s2-0.2,2.9-0.5
	c0,0,0.1,0,0.1,0c0.2-0.1,0.3-0.1,0.5-0.2c0.2-0.1,0.4-0.2,0.6-0.3c0.1,0,0.1-0.1,0.2-0.1c0.1-0.1,0.2-0.1,0.3-0.2
	c4.7,1.5,8.3,5.3,9.6,10.1C32.5,34.1,30.4,35.7,28.1,36.8z M12.7,14.7c0-4,3.3-7.3,7.3-7.3s7.3,3.3,7.3,7.3c0,2.6-1.3,4.8-3.3,6.1
	c-0.3,0.2-0.5,0.3-0.8,0.5c0,0-0.1,0-0.1,0c-1.9,0.9-4.2,0.9-6.1,0c0,0-0.1,0-0.1,0c-0.3-0.1-0.6-0.3-0.8-0.5
	C14,19.5,12.7,17.2,12.7,14.7z M35.2,30.9c-1.5-4.5-5-8.1-9.4-9.8c1.8-1.6,2.9-3.9,2.9-6.4C28.7,9.9,24.8,6,20,6s-8.7,3.9-8.7,8.7
	c0,2.6,1.1,4.8,2.9,6.4c-4.4,1.7-7.9,5.3-9.4,9.8C2.6,27.8,1.3,24.1,1.3,20C1.3,9.7,9.7,1.3,20,1.3c10.3,0,18.7,8.4,18.7,18.7
	C38.7,24.1,37.4,27.8,35.2,30.9z"/>
</svg>
