<?xml version="1.0" encoding="utf-8"?>
<!-- Generator: Adobe Illustrator 21.1.0, SVG Export Plug-In . SVG Version: 6.00 Build 0)  -->
<svg version="1.1" id="Layer_1" xmlns="http://www.w3.org/2000/svg" xmlns:xlink="http://www.w3.org/1999/xlink" x="0px" y="0px"
	 viewBox="0 0 40.8 40.9" style="enable-background:new 0 0 40.8 40.9;" xml:space="preserve">
<path d="M40.8,16.1v-1.6c-1.1-0.3-3.4-1-5.8-1.7V2.7C35,1.2,33.8,0,32.3,0H8.6C7.1,0,5.8,1.2,5.8,2.7v9.6c-2.3-0.6-4.4-1.1-5.8-1.5
	v1.6c1.5,0.3,3.6,0.8,5.8,1.5v5.3c-2.3-0.6-4.4-1.1-5.8-1.5v1.6c1.5,0.3,3.6,0.8,5.8,1.5v5.3C3.5,25.5,1.4,25,0,24.6v1.6
	c1.5,0.3,3.6,0.8,5.8,1.5v10.6C5.8,39.8,7,41,8.5,41h23.7c1.5,0,2.7-1.2,2.7-2.7V28.2c2.7,0.7,5.1,1.5,5.8,1.7v-1.6
	c-1.1-0.3-3.4-1.1-5.8-1.7v-5.3c2.7,0.7,5.1,1.5,5.8,1.7v-1.6c-1.1-0.3-3.4-1.1-5.8-1.7v-5.3C37.6,15.2,40.1,15.9,40.8,16.1z
	 M33.5,19.3c-1.6-0.4-3.1-0.8-4.3-1c-4.9-1-7,0.1-11.1,2.1c-2.1,1-5,1.1-7.9,0.1c-0.1,0-0.3-0.1-0.4-0.1V22c3.3,1.1,6.6,1.1,9.1-0.2
	c4.1-2,5.8-2.7,10-2c1.2,0.2,2.9,0.6,4.6,1.1v5.3c-1.6-0.4-3.1-0.8-4.3-1c-4.9-1-7,0.1-11.1,2.1c-2.1,1-5,1.1-7.9,0.1
	c-0.1,0-0.3-0.1-0.4-0.1v1.6c3.3,1.1,6.6,1.1,9.1-0.2c4.1-2,5.8-2.7,10-2c1.2,0.2,2.9,0.6,4.6,1.1v10.4c0,0.8-0.5,1.3-1.3,1.3H8.6
	c-0.8,0-1.3-0.7-1.3-1.3V28.1l0,0v-1.6l0,0v-5.3l0,0v-1.6l0,0v-5.3l0,0v-1.6l0,0v-10c0-0.8,0.7-1.3,1.3-1.3h23.7
	c0.8,0,1.3,0.7,1.3,1.3v9.7c-1.6-0.4-3.2-0.8-4.4-1.1c-4.6-0.8-6.8,0.1-11,2.2c-2.1,1-5,1.1-7.9,0.1c-0.1,0-0.3-0.1-0.4-0.1v1.6
	c3.3,1.1,6.6,1.1,9.1-0.2c4.1-2,5.8-2.7,10-2c1.2,0.2,2.9,0.6,4.6,1.1v5.3H33.5z"/>
</svg>
