<?xml version="1.0" encoding="utf-8"?>
<!-- Generator: Adobe Illustrator 21.1.0, SVG Export Plug-In . SVG Version: 6.00 Build 0)  -->
<svg version="1.1" id="Layer_1" xmlns="http://www.w3.org/2000/svg" xmlns:xlink="http://www.w3.org/1999/xlink" x="0px" y="0px"
	 viewBox="0 0 42.1 40.3" style="enable-background:new 0 0 42.1 40.3;" xml:space="preserve">
<path d="M42.1,14.1H0v1.5h2.9l0.6,1.5h3.2l0.6-1.5h27.5l0.6,1.5h3.2l0.5-1.5h3V14.1z M16.5,1.4h3.9v4.5h-1.6l-0.2,1.2h1.8v4.2h1.4
	V7.1h1.6l-0.1-1.2h-1.5V1.4h4l2.3,9.9l1.4-0.3L26.9,0H15.4l-2.7,11l1.3,0.3L16.5,1.4z M29.5,18.5l4.7,20.4H21.7v-2.6h7.1l-0.2-1
	h-6.9v-7.1h5.4L27,27.1h-5.3v-6h4L25.5,20h-3.8v-1.6h-1.4V20h-3.9l-0.1,1.1h4v6h-5.1L15,28.2h5.3v7.1h-6.1l-0.2,1h6.3v2.6H7.8
	l4.7-20.4l-1.4-0.3L6,40.3h30l-5.1-22.1L29.5,18.5z"/>
</svg>
