<svg width="41" height="40" viewBox="0 0 41 40" fill="none" xmlns="http://www.w3.org/2000/svg">
<g clip-path="url(#clip0)">
<path d="M11.7333 27.9619H6.39999V32.3048H11.7333V27.9619Z" fill="black"/>
<path d="M33.981 27.9619H28.6476V32.3048H33.981V27.9619Z" fill="black"/>
<path d="M9.98093 4.95239H30.9333" stroke="black" stroke-width="1.4173" stroke-miterlimit="10"/>
<path d="M32.5333 23.2381H7.99999C7.16189 23.2381 6.55237 22.5524 6.55237 21.7905V10.2095C6.55237 9.37143 7.23808 8.7619 7.99999 8.7619H32.5333C33.3714 8.7619 33.9809 9.44762 33.9809 10.2095V21.7905C33.9809 22.6286 33.3714 23.2381 32.5333 23.2381Z" stroke="black" stroke-width="1.4173" stroke-miterlimit="10"/>
<path d="M35.6571 35.8857H4.7238C3.88571 35.8857 3.27618 35.2 3.27618 34.4381V1.98094C3.27618 1.14285 3.9619 0.533325 4.7238 0.533325H35.6571C36.4952 0.533325 37.1048 1.21904 37.1048 1.98094V34.3619C37.1809 35.2 36.4952 35.8857 35.6571 35.8857Z" stroke="black" stroke-width="1.4173" stroke-miterlimit="10"/>
<path d="M10.2857 35.5809V38.7809C10.2857 39.1619 9.98094 39.4667 9.59999 39.4667H4.49522C4.11427 39.4667 3.80951 39.1619 3.80951 38.7809V35.5809" stroke="black" stroke-width="1.4173" stroke-miterlimit="10"/>
<path d="M3.27618 18.819H0.533325V10.1333H3.27618" stroke="black" stroke-width="1.4173" stroke-miterlimit="10"/>
<path d="M37.2571 18.819H40V10.1333H37.2571" stroke="black" stroke-width="1.4173" stroke-miterlimit="10"/>
<path d="M36.4952 35.5809V38.7809C36.4952 39.1619 36.1905 39.4667 35.8095 39.4667H30.7048C30.3238 39.4667 30.019 39.1619 30.019 38.7809V35.5809" stroke="black" stroke-width="1.4173" stroke-miterlimit="10"/>
</g>
<defs>
<clipPath id="clip0">
<rect width="40.5333" height="40" fill="white"/>
</clipPath>
</defs>
</svg>
