<svg width="35" height="26" viewBox="0 0 35 26" fill="none" xmlns="http://www.w3.org/2000/svg">
<g clip-path="url(#clip0)">
<path d="M3.28117 12.4911H0.911376C0.637939 12.4911 0.364501 12.3985 0.18221 12.1209C-8.21697e-05 11.8434 -0.091228 11.4733 0.0910637 11.1032L1.09367 8.69746C1.36711 7.7722 2.46086 7.03198 3.28117 7.03198H5.37752V8.04978H3.28117C2.91658 8.04978 2.18742 8.41988 2.09627 8.97504L1.09367 11.3807H3.28117V12.4911Z" fill="#2C3848"/>
<path d="M34.0885 12.4911H31.7187V11.4733H33.9062V11.3807L32.9036 9.06757C32.7213 8.41988 32.0833 8.04978 31.6276 8.04978H29.5312V7.03198H31.6276C32.4479 7.03198 33.6328 7.67967 33.8151 8.78999L34.8177 11.1032C34.9089 11.5658 34.9089 11.9359 34.6354 12.2135C34.5443 12.3985 34.362 12.4911 34.0885 12.4911Z" fill="#2C3848"/>
<path d="M31.6278 26H28.8022C28.1642 26 27.6174 25.4448 27.6174 24.7972V23.8719H6.92725V24.7972C6.92725 25.4448 6.38037 26 5.74235 26H2.91683C2.27881 26 1.73193 25.4448 1.73193 24.7972V15.7295C1.73193 14.3416 2.09652 12.9537 2.64339 11.6584L6.47152 2.40569C7.10954 0.925267 8.56787 0 10.0262 0H24.1538C25.7033 0 27.0705 0.925267 27.7085 2.31317L31.9012 11.6584C32.5392 12.8612 32.8127 14.3416 32.8127 15.7295V24.7972C32.8127 25.4448 32.2658 26 31.6278 26ZM5.92464 22.8541H28.5288V24.8897C28.5288 24.9822 28.62 25.0747 28.7111 25.0747H31.5366C31.6278 25.0747 31.7189 24.9822 31.7189 24.8897V15.7295C31.7189 14.5267 31.4455 13.2313 30.8986 12.121L26.797 2.7758C26.3413 1.75801 25.3387 1.01779 24.1538 1.01779H10.0262C8.93246 1.01779 7.92985 1.75801 7.47412 2.7758L3.55485 12.121C3.00798 13.2313 2.73454 14.4342 2.73454 15.7295V24.7972C2.73454 24.8897 2.82568 24.9822 2.91683 24.9822H5.74235C5.8335 24.9822 5.92464 24.8897 5.92464 24.7972V22.8541Z" fill="#2C3848"/>
<path d="M6.92725 17.4875C5.56006 17.4875 4.46631 16.3772 4.46631 14.9893C4.46631 13.6014 5.56006 12.4911 6.92725 12.4911C8.29443 12.4911 9.38818 13.6014 9.38818 14.9893C9.38818 16.3772 8.29443 17.4875 6.92725 17.4875ZM6.92725 13.5089C6.10693 13.5089 5.46891 14.1566 5.46891 14.9893C5.46891 15.822 6.10693 16.4697 6.92725 16.4697C7.74756 16.4697 8.38558 15.822 8.38558 14.9893C8.38558 14.1566 7.74756 13.5089 6.92725 13.5089Z" fill="#2C3848"/>
<path d="M27.6172 17.4875C26.25 17.4875 25.1562 16.3772 25.1562 14.9893C25.1562 13.6014 26.25 12.4911 27.6172 12.4911C28.9844 12.4911 30.0781 13.6014 30.0781 14.9893C30.0781 16.3772 28.9844 17.4875 27.6172 17.4875ZM27.6172 13.5089C26.7969 13.5089 26.1589 14.1566 26.1589 14.9893C26.1589 15.822 26.7969 16.4697 27.6172 16.4697C28.4375 16.4697 29.0755 15.822 29.0755 14.9893C29.0755 14.1566 28.4375 13.5089 27.6172 13.5089Z" fill="#2C3848"/>
<path d="M27.5262 9.90041H26.5236C26.5236 8.41998 25.3387 7.12461 23.7892 7.12461C22.2397 7.12461 21.0549 8.32745 21.0549 9.90041H20.0522C20.0522 7.77229 21.6929 6.10681 23.7892 6.10681C25.7944 6.10681 27.5262 7.77229 27.5262 9.90041Z" fill="#2C3848"/>
<path d="M30.1693 9.6228H3.82812V10.6406H30.1693V9.6228Z" fill="#2C3848"/>
<path d="M31.9922 22.7616H2.46094V23.7794H31.9922V22.7616Z" fill="#2C3848"/>
<path d="M22.8776 13.694H11.4844V14.7118H22.8776V13.694Z" fill="#2C3848"/>
<path d="M21.9661 16.4697H12.3047V17.4875H21.9661V16.4697Z" fill="#2C3848"/>
</g>
<defs>
<clipPath id="clip0">
<rect width="35" height="26" fill="white"/>
</clipPath>
</defs>
</svg>
