<svg width="41" height="41" viewBox="0 0 41 41" fill="none" xmlns="http://www.w3.org/2000/svg">
<g clip-path="url(#clip0)">
<path d="M32.2294 40.2604H8.55928C7.39691 40.2604 6.55154 39.3093 6.55154 38.2526V2.74748C6.55154 1.58511 7.50258 0.739746 8.55928 0.739746H32.2294C33.3917 0.739746 34.2371 1.69078 34.2371 2.74748V38.2526C34.2371 39.415 33.3917 40.2604 32.2294 40.2604Z" stroke="white" stroke-width="1.4173" stroke-miterlimit="10"/>
<path d="M29.165 11.4124C24.5155 10.567 22.4021 11.5181 18.1753 13.6315C16.0619 14.5825 13.2088 14.6882 10.25 13.7372C10.1443 13.7372 9.933 13.6315 9.82733 13.6315V15.2165C13.1031 16.2732 16.3789 16.2732 18.915 15.0052C23.0361 12.9975 24.7268 12.2578 28.9536 12.9975C32.4407 13.6315 39.5206 15.7449 40.7887 16.1676V14.5825C38.6753 13.9485 32.4407 12.0464 29.165 11.4124Z" fill="white"/>
<path d="M7.29124 12.7861C4.43814 11.9407 1.79639 11.3067 0 10.884V12.4691C1.79639 12.8918 4.43814 13.5258 7.29124 14.3711V12.7861Z" fill="white"/>
<path d="M7.29124 19.6546C4.43814 18.8093 1.79639 18.1752 0 17.7526V19.3376C1.79639 19.7603 4.43814 20.3943 7.29124 21.2397V19.6546Z" fill="white"/>
<path d="M18.1753 20.5C16.0619 21.451 13.2088 21.5567 10.25 20.6057C10.1443 20.6057 9.933 20.5 9.82733 20.5V22.0851C13.1031 23.1418 16.3789 23.1418 18.915 21.8737C23.0361 19.866 24.7268 19.1263 28.9536 19.866C32.4407 20.5 39.5206 22.6134 40.7887 23.0361V21.451C38.7809 20.817 32.5464 18.915 29.2706 18.3866C24.4098 17.4356 22.2964 18.4923 18.1753 20.5Z" fill="white"/>
<path d="M18.1753 27.3685C16.0619 28.3196 13.2088 28.4252 10.25 27.4742C10.1443 27.4742 9.933 27.3685 9.82733 27.3685V28.9536C13.1031 30.0103 16.3789 30.0103 18.915 28.7423C23.0361 26.7345 24.7268 25.9948 28.9536 26.7345C32.4407 27.3685 39.5206 29.4819 40.7887 29.9046V28.3196C38.7809 27.6856 32.5464 25.7835 29.2706 25.2551C24.4098 24.3041 22.2964 25.3608 18.1753 27.3685Z" fill="white"/>
<path d="M0 24.6211V26.2061C1.79639 26.6288 4.43814 27.2628 7.29124 28.1082V26.5232C4.43814 25.6778 1.79639 25.0438 0 24.6211Z" fill="white"/>
</g>
<defs>
<clipPath id="clip0">
<rect width="40.683" height="41" fill="white"/>
</clipPath>
</defs>
</svg>
