<?xml version="1.0" encoding="utf-8"?>
<!-- Generator: Adobe Illustrator 21.1.0, SVG Export Plug-In . SVG Version: 6.00 Build 0)  -->
<svg version="1.1" id="Layer_1" xmlns="http://www.w3.org/2000/svg" xmlns:xlink="http://www.w3.org/1999/xlink" x="0px" y="0px"
	 viewBox="0 0 39 30.3" style="enable-background:new 0 0 39 30.3;" xml:space="preserve">
<style type="text/css">
	.st0{fill:#2C3848;}
</style>
<g>
	<path class="st0" d="M29.7,30.3h-5.3v-9.9c0-1.3,1-2.3,2.3-2.3h2.7c0.4,0,0.7-0.3,0.7-0.7V9H36v10.9c0,1.5-1.2,2.6-2.6,2.6h-3.1
		c-0.3,0-0.6,0.3-0.6,0.6V30.3z M25.4,29.3h3.3v-6.2c0-0.9,0.7-1.6,1.6-1.6h3.1c0.9,0,1.6-0.7,1.6-1.6V10h-3.9v7.4
		c0,1-0.8,1.7-1.7,1.7h-2.7c-0.7,0-1.3,0.6-1.3,1.3V29.3z"/>
</g>
<g>
	<path class="st0" d="M34.3,25.8h-2.8v-1h2.8c2,0,3.7-1.6,3.7-3.7v-8h1v8C39,23.7,36.9,25.8,34.3,25.8z"/>
</g>
<g>
	<path class="st0" d="M33.1,7.8c-1.6,0-2.9-1.3-2.9-2.9S31.4,2,33.1,2S36,3.3,36,4.9S34.7,7.8,33.1,7.8z M33.1,3
		c-1.1,0-1.9,0.9-1.9,1.9s0.9,1.9,1.9,1.9S35,6,35,4.9S34.1,3,33.1,3z"/>
</g>
<g>
	<path class="st0" d="M14.6,30.3H9.3v-7.2c0-0.3-0.3-0.6-0.6-0.6H5.6c-1.5,0-2.6-1.2-2.6-2.6V9h5.9v8.4c0,0.4,0.3,0.7,0.7,0.7h2.7
		c1.3,0,2.3,1,2.3,2.3V30.3z M10.3,29.3h3.3v-8.9c0-0.7-0.6-1.3-1.3-1.3H9.6c-1,0-1.7-0.8-1.7-1.7V10H4v9.9c0,0.9,0.7,1.6,1.6,1.6
		h3.1c0.9,0,1.6,0.7,1.6,1.6V29.3z"/>
</g>
<g>
	<path class="st0" d="M7.4,25.8H4.7c-2.6,0-4.7-2.1-4.7-4.7v-8h1v8c0,2,1.6,3.7,3.7,3.7h2.8V25.8z"/>
</g>
<g>
	<path class="st0" d="M5.9,7.8C4.3,7.8,3,6.5,3,4.9S4.3,2,5.9,2s2.9,1.3,2.9,2.9S7.6,7.8,5.9,7.8z M5.9,3C4.9,3,4,3.8,4,4.9
		s0.9,1.9,1.9,1.9S7.9,6,7.9,4.9S7,3,5.9,3z"/>
</g>
<g>
	<path class="st0" d="M19.7,5.9c-1.6,0-2.9-1.3-2.9-2.9S18.1,0,19.7,0s2.9,1.3,2.9,2.9S21.3,5.9,19.7,5.9z M19.7,1
		c-1.1,0-1.9,0.9-1.9,1.9s0.9,1.9,1.9,1.9s1.9-0.9,1.9-1.9S20.8,1,19.7,1z"/>
</g>
<g>
	<path class="st0" d="M24.8,15.9H13.6v-4.5c0-2.3,1.9-4.1,4.1-4.1h2.9c2.3,0,4.1,1.9,4.1,4.1V15.9z M14.6,14.9h9.2v-3.5
		c0-1.7-1.4-3.1-3.1-3.1h-2.9c-1.7,0-3.1,1.4-3.1,3.1V14.9z"/>
</g>
<g>
	<rect x="11.3" y="14.9" class="st0" width="15.4" height="1"/>
</g>
</svg>
