<svg width="14" height="14" viewBox="0 0 14 14" fill="none" xmlns="http://www.w3.org/2000/svg">
<path d="M1.27273 0C0.576705 0 0 0.576705 0 1.27273V12.7273C0 13.4233 0.576705 14 1.27273 14H12.7273C13.4233 14 14 13.4233 14 12.7273V1.27273C14 0.576705 13.4233 0 12.7273 0H1.27273ZM1.27273 1.27273H12.7273V12.7273H9.42614V8.43182H11.0767L11.3153 6.52273H9.42614V5.28977C9.42614 4.73295 9.56285 4.35511 10.3608 4.35511H11.3949V2.625C11.2184 2.60263 10.6069 2.56534 9.90341 2.56534C8.43679 2.56534 7.4375 3.4478 7.4375 5.09091V6.52273H5.76705V8.43182H7.4375V12.7273H1.27273V1.27273Z" fill="#2C3848"/>
</svg>
