<svg width="14" height="14" viewBox="0 0 14 14" fill="none" xmlns="http://www.w3.org/2000/svg">
<path d="M4.11648 0C1.85689 0 0 1.8544 0 4.11648V9.88352C0 12.1431 1.8544 14 4.11648 14H9.88352C12.1431 14 14 12.1456 14 9.88352V4.11648C14 1.85689 12.1456 0 9.88352 0H4.11648ZM4.11648 1.27273H9.88352C11.457 1.27273 12.7273 2.54297 12.7273 4.11648V9.88352C12.7273 11.457 11.457 12.7273 9.88352 12.7273H4.11648C2.54297 12.7273 1.27273 11.457 1.27273 9.88352V4.11648C1.27273 2.54297 2.54297 1.27273 4.11648 1.27273ZM10.7585 2.66477C10.4379 2.66477 10.1818 2.92081 10.1818 3.24148C10.1818 3.56214 10.4379 3.81818 10.7585 3.81818C11.0792 3.81818 11.3352 3.56214 11.3352 3.24148C11.3352 2.92081 11.0792 2.66477 10.7585 2.66477ZM7 3.18182C4.8995 3.18182 3.18182 4.8995 3.18182 7C3.18182 9.1005 4.8995 10.8182 7 10.8182C9.1005 10.8182 10.8182 9.1005 10.8182 7C10.8182 4.8995 9.1005 3.18182 7 3.18182ZM7 4.45455C8.41442 4.45455 9.54545 5.58558 9.54545 7C9.54545 8.41442 8.41442 9.54545 7 9.54545C5.58558 9.54545 4.45455 8.41442 4.45455 7C4.45455 5.58558 5.58558 4.45455 7 4.45455Z" fill="#2C3848"/>
</svg>
