<svg width="32" height="42" viewBox="0 0 32 42" fill="none" xmlns="http://www.w3.org/2000/svg">
<g clip-path="url(#clip0)">
<path d="M28.9 40.4H2.60001C1.50001 40.4 0.700012 39.5 0.700012 38.5V11.3C0.700012 10.2 1.60001 9.40002 2.60001 9.40002H28.9C30 9.40002 30.8 10.3 30.8 11.3V38.4C30.9 39.5 30 40.4 28.9 40.4Z" stroke="white" stroke-width="1.4173" stroke-miterlimit="10"/>
<path d="M9.69999 6.09998H5.29999L7.49999 3.59998L9.69999 1.09998L11.8 3.59998L14 6.09998H9.69999Z" fill="white"/>
<path d="M22.8 1.09998H27.2L25 3.59998L22.8 6.09998L20.7 3.59998L18.5 1.09998H22.8Z" fill="white"/>
<path d="M14 29.3H12.7L12.5 37.2H7.79998L7.49998 29.3H6.09998V23C6.09998 20.8 7.89998 19 10.1 19C12.3 19 14.1 20.8 14.1 23V29.3H14Z" stroke="white" stroke-width="1.4173" stroke-miterlimit="10"/>
<path d="M10.1 17.4C11.4254 17.4 12.5 16.3255 12.5 15C12.5 13.6745 11.4254 12.6 10.1 12.6C8.77447 12.6 7.69995 13.6745 7.69995 15C7.69995 16.3255 8.77447 17.4 10.1 17.4Z" stroke="white" stroke-width="1.4173" stroke-miterlimit="10"/>
<path d="M25.5 29.3H24.2L24 37.2H19.3L19 29.3H17.6V23C17.6 20.8 19.4 19 21.6 19C23.8 19 25.6 20.8 25.6 23V29.3H25.5Z" stroke="white" stroke-width="1.4173" stroke-miterlimit="10"/>
<path d="M21.5 17.4C22.8255 17.4 23.9 16.3255 23.9 15C23.9 13.6745 22.8255 12.6 21.5 12.6C20.1745 12.6 19.1 13.6745 19.1 15C19.1 16.3255 20.1745 17.4 21.5 17.4Z" stroke="white" stroke-width="1.4173" stroke-miterlimit="10"/>
</g>
<defs>
<clipPath id="clip0">
<rect width="31.6" height="41.1" fill="white"/>
</clipPath>
</defs>
</svg>
