<svg width="31" height="30" viewBox="0 0 31 30" fill="none" xmlns="http://www.w3.org/2000/svg">
<path d="M10.2837 20.7857H25.3365C26.6034 20.7857 27.7212 20 28.0192 18.8571L31 8.5L7.3774 6.35714L6.48317 1.92857L0.298077 0L0 0.928571L5.58894 2.64286L10.3582 26.1429H12.4447C12.1466 26.5714 11.9231 27 11.9231 27.5714C11.9231 28.8571 13.0409 29.9286 14.3822 29.9286C15.7236 29.9286 16.8413 28.8571 16.8413 27.5714C16.8413 27 16.6178 26.5714 16.3197 26.1429H22.1322C21.8341 26.5714 21.6106 27 21.6106 27.5714C21.6106 28.8571 22.7284 29.9286 24.0697 29.9286C25.4111 29.9286 26.5288 28.8571 26.5288 27.5714C26.5288 27 26.3053 26.5714 26.0072 26.1429H28.1683V25.1429H11.2524L10.2837 20.7857ZM29.5841 9.35714L26.976 18.5714C26.7524 19.2857 26.0817 19.7857 25.3365 19.7857H10.1346L7.60096 7.42857L29.5841 9.35714ZM14.3077 28.9286C13.5625 28.9286 12.8918 28.3571 12.8918 27.5714C12.8918 26.7857 13.488 26.2143 14.3077 26.2143C15.1274 26.2143 15.7236 26.7857 15.7236 27.5714C15.7236 28.3571 15.1274 28.9286 14.3077 28.9286ZM23.9952 28.9286C23.25 28.9286 22.5793 28.3571 22.5793 27.5714C22.5793 26.7857 23.1755 26.2143 23.9952 26.2143C24.8149 26.2143 25.4111 26.7857 25.4111 27.5714C25.4111 28.3571 24.7404 28.9286 23.9952 28.9286Z" fill="#2C3848"/>
<path d="M24.2933 10.2858H12.8174V11.2858H24.2933V10.2858Z" fill="#2C3848"/>
<path d="M24.2933 12.6428H12.8174V13.6428H24.2933V12.6428Z" fill="#2C3848"/>
<path d="M24.2933 15H12.8174V16H24.2933V15Z" fill="#2C3848"/>
<path d="M24.2933 17.3572H12.8174V18.3572H24.2933V17.3572Z" fill="#2C3848"/>
</svg>
