<svg width="34" height="40" viewBox="0 0 34 40" fill="none" xmlns="http://www.w3.org/2000/svg">
<g clip-path="url(#clip0)">
<path d="M19.527 37.7703H13.7162C13.3108 37.7703 13.0405 37.5 13.0405 37.0946V5.87837C13.0405 4.05404 14.527 0.472961 16.3513 0.472961H16.8919C18.7162 0.472961 20.2027 4.05404 20.2027 5.87837V37.027C20.2027 37.4324 19.9324 37.7703 19.527 37.7703Z" stroke="black" stroke-width="1.4173" stroke-miterlimit="10"/>
<path d="M20.2027 13.7838L32.7703 26.2162V29.5946L20.2027 23.2432" stroke="black" stroke-width="1.4173" stroke-miterlimit="10"/>
<path d="M13.0405 13.7838L0.472961 26.2162V29.5946L13.0405 23.2432" stroke="black" stroke-width="1.4173" stroke-miterlimit="10"/>
<path d="M20.2027 31.1487L24.1216 35.2027V38.9865L20.2027 37.0271" stroke="black" stroke-width="1.4173" stroke-miterlimit="10"/>
<path d="M13.0405 31.1487L9.18918 35.2027V38.9865L13.0405 37.0271" stroke="black" stroke-width="1.4173" stroke-miterlimit="10"/>
<path d="M17.7027 29.5946H15.946V40H17.7027V29.5946Z" fill="black"/>
<path d="M16.9595 11.3513H20.2027" stroke="black" stroke-width="1.4173" stroke-miterlimit="10"/>
<path d="M16.9595 14.1216H20.2027" stroke="black" stroke-width="1.4173" stroke-miterlimit="10"/>
<path d="M16.9595 16.8243H20.2027" stroke="black" stroke-width="1.4173" stroke-miterlimit="10"/>
<path d="M16.9595 19.5945H20.2027" stroke="black" stroke-width="1.4173" stroke-miterlimit="10"/>
<path d="M16.9595 22.3648H20.2027" stroke="black" stroke-width="1.4173" stroke-miterlimit="10"/>
<path d="M16.9595 25.1351H20.2027" stroke="black" stroke-width="1.4173" stroke-miterlimit="10"/>
</g>
<defs>
<clipPath id="clip0">
<rect width="33.3108" height="40" fill="white"/>
</clipPath>
</defs>
</svg>
