<svg width="56" height="30" viewBox="0 0 56 30" fill="none" xmlns="http://www.w3.org/2000/svg">
<path d="M51.2195 25.7561H3.8049C2.19515 25.7561 1.02441 24.4391 1.02441 22.9756V3.8049C1.02441 2.19515 2.34149 1.02441 3.8049 1.02441H51.2195C52.8293 1.02441 54 2.34149 54 3.8049V22.9756C54.1464 24.5854 52.8293 25.7561 51.2195 25.7561Z" stroke="#2C3848" stroke-width="1.4173" stroke-miterlimit="10"/>
<path d="M40.5365 17.1219C42.557 17.1219 44.195 15.484 44.195 13.4634C44.195 11.4429 42.557 9.80487 40.5365 9.80487C38.5159 9.80487 36.8779 11.4429 36.8779 13.4634C36.8779 15.484 38.5159 17.1219 40.5365 17.1219Z" stroke="#2C3848" stroke-width="1.4173" stroke-miterlimit="10"/>
<path d="M40.5365 22.0976C45.305 22.0976 49.1706 18.2319 49.1706 13.4634C49.1706 8.69492 45.305 4.82928 40.5365 4.82928C35.768 4.82928 31.9023 8.69492 31.9023 13.4634C31.9023 18.2319 35.768 22.0976 40.5365 22.0976Z" stroke="#2C3848" stroke-width="1.4173" stroke-miterlimit="10"/>
<path d="M7.31714 9.65851H28.5366" stroke="#2C3848" stroke-width="1.4173" stroke-miterlimit="10"/>
<path d="M7.31714 14.0488H28.5366" stroke="#2C3848" stroke-width="1.4173" stroke-miterlimit="10"/>
<path d="M7.31714 18.2927H28.5366" stroke="#2C3848" stroke-width="1.4173" stroke-miterlimit="10"/>
<path d="M4.97559 28.9756H12.7317" stroke="#2C3848" stroke-width="1.4173" stroke-miterlimit="10"/>
<path d="M42.5854 28.9756H50.3415" stroke="#2C3848" stroke-width="1.4173" stroke-miterlimit="10"/>
</svg>
