<svg width="30" height="41" viewBox="0 0 30 41" fill="none" xmlns="http://www.w3.org/2000/svg">
<g clip-path="url(#clip0)">
<path d="M7.44474 40.1031C2.79178 40.1031 5.58355 18.3218 5.58355 18.3218C5.58355 18.3218 1.70608 16.4 1.24079 14.4781C0.775492 12.5562 1.86118 2.04996 1.86118 2.04996L3.87747 1.66559C6.35905 1.28121 8.99572 1.28121 11.6324 1.79371L13.6487 2.17809C13.6487 2.17809 14.7344 12.8125 14.2691 14.6062C13.8038 16.5281 9.92632 18.45 9.92632 18.45C9.92632 18.45 12.563 40.2312 8.06513 40.2312H7.44474V40.1031Z" stroke="white" stroke-width="1.4173" stroke-miterlimit="10"/>
<path d="M9.77122 1.53748V10.7625" stroke="white" stroke-width="1.4173" stroke-miterlimit="10"/>
<path d="M5.89375 1.53748V10.7625" stroke="white" stroke-width="1.4173" stroke-miterlimit="10"/>
<path d="M20.3179 1.53748V38.95C20.3179 39.3343 20.6281 39.5906 20.9383 39.7187C21.8689 39.975 23.2648 40.1031 24.3505 38.4375C25.9015 36.0031 26.0566 31.5187 25.5913 29.2125C25.126 26.9062 23.4199 24.4718 23.575 22.8062C23.7301 21.1406 28.8484 16.0156 28.3831 11.275C27.7627 4.7406 20.3179 1.53748 20.3179 1.53748Z" stroke="white" stroke-width="1.4173" stroke-miterlimit="10"/>
</g>
<defs>
<clipPath id="clip0">
<rect width="29.4688" height="41" fill="white"/>
</clipPath>
</defs>
</svg>
