<svg width="22" height="41" viewBox="0 0 22 41" fill="none" xmlns="http://www.w3.org/2000/svg">
<g clip-path="url(#clip0)">
<path d="M6.98517 30.6741V41" stroke="white" stroke-width="1.4173" stroke-miterlimit="10"/>
<path d="M14.274 30.6741V38.6716" stroke="white" stroke-width="1.4173" stroke-miterlimit="10"/>
<path d="M16.1975 30.4716H4.96049C3.94815 30.4716 3.03704 29.7629 2.9358 28.7506V28.4469C2.73333 26.8271 2.22716 25.3086 1.51852 23.7901L0.809875 22.2716V0.708618H20.6519V22.1703L19.9432 23.2839C19.0321 25.0049 18.4247 26.8271 18.2222 28.6494C18.0198 29.6617 17.2099 30.4716 16.1975 30.4716Z" stroke="white" stroke-width="1.4173" stroke-miterlimit="10"/>
<path d="M20.5506 9.51599H16.1975V14.274H12.8568V25.4098H10.4271H10.8321H8.40245V14.274H5.0617V9.51599H0.708618" stroke="white" stroke-width="1.4173" stroke-miterlimit="10"/>
<path d="M5.06171 0.708618V6.78269" stroke="white" stroke-width="1.4173" stroke-miterlimit="10"/>
<path d="M10.6296 0.708618V6.78269" stroke="white" stroke-width="1.4173" stroke-miterlimit="10"/>
<path d="M16.1975 0.708618V6.78269" stroke="white" stroke-width="1.4173" stroke-miterlimit="10"/>
</g>
<defs>
<clipPath id="clip0">
<rect width="21.2593" height="41" fill="white"/>
</clipPath>
</defs>
</svg>
