<svg width="44" height="40" viewBox="0 0 44 40" fill="none" xmlns="http://www.w3.org/2000/svg">
<g clip-path="url(#clip0)">
<path d="M34.2644 32.4767H9.16201C8.11918 32.4767 7.29982 31.6574 7.29982 30.6145V2.38362C7.29982 1.34079 8.11918 0.521423 9.16201 0.521423H34.2644C35.3073 0.521423 36.1266 1.34079 36.1266 2.38362V30.6145C36.1266 31.6574 35.3073 32.4767 34.2644 32.4767Z" stroke="black" stroke-width="1.4173" stroke-miterlimit="10"/>
<path d="M31.4339 17.1322H11.9926C11.1732 17.1322 10.5773 16.4618 10.5773 15.7169V6.77837C10.5773 5.959 11.2477 5.3631 11.9926 5.3631H31.4339C32.2533 5.3631 32.8492 6.03349 32.8492 6.77837V15.6424C32.8492 16.4618 32.1788 17.1322 31.4339 17.1322Z" stroke="black" stroke-width="1.4173" stroke-miterlimit="10"/>
<path d="M15.7914 22.7188H10.5773V26.9646H15.7914V22.7188Z" fill="black"/>
<path d="M32.8492 22.7188H27.635V26.9646H32.8492V22.7188Z" fill="black"/>
<path d="M18.2495 22.6443H24.6555" stroke="black" stroke-width="1.4173" stroke-miterlimit="10"/>
<path d="M18.2495 26.1453H24.6555" stroke="black" stroke-width="1.4173" stroke-miterlimit="10"/>
<path d="M36.1266 5.3631H42.0112C42.4581 5.3631 42.8305 5.73554 42.8305 6.18247V13.3333C42.8305 13.7802 42.4581 14.1527 42.0112 14.1527H39.851C39.4041 14.1527 39.0317 13.7802 39.0317 13.3333V5.3631" stroke="black" stroke-width="1.4173" stroke-miterlimit="10"/>
<path d="M39.0317 10.5028H42.8305" stroke="black" stroke-width="1.4173" stroke-miterlimit="10"/>
<path d="M7.29981 5.3631H1.41527C0.968341 5.3631 0.595901 5.73554 0.595901 6.18247V13.3333C0.595901 13.7802 0.968341 14.1527 1.41527 14.1527H3.57542C4.02235 14.1527 4.39478 13.7802 4.39478 13.3333V5.3631" stroke="black" stroke-width="1.4173" stroke-miterlimit="10"/>
<path d="M4.39479 10.5028H0.521416" stroke="black" stroke-width="1.4173" stroke-miterlimit="10"/>
<path d="M11.2477 35.7542H31.7318" stroke="black" stroke-width="1.4173" stroke-miterlimit="10"/>
<path d="M8.26816 39.0317H34.9348" stroke="black" stroke-width="1.4173" stroke-miterlimit="10"/>
<path d="M32.1043 32.1042L31.3594 32.8491L38.6592 40H40.149L32.1043 32.1042Z" fill="black"/>
<path d="M10.8752 32.1042L2.97952 40H4.46927L11.6201 32.8491L10.8752 32.1042Z" fill="black"/>
</g>
<defs>
<clipPath id="clip0">
<rect width="43.4264" height="40" fill="white"/>
</clipPath>
</defs>
</svg>
