<svg width="32" height="32" viewBox="0 0 32 32" fill="none" xmlns="http://www.w3.org/2000/svg">
<g clip-path="url(#clip0)">
<path d="M31.511 13.1185C31.1785 12.7195 30.7105 12.491 30.227 12.491H29.5V11.904C29.5 10.8495 28.584 9.99105 27.4585 9.99105H26.5V8.90755C26.5 8.39755 26.2825 7.90005 25.904 7.54205C25.151 6.83055 23.8495 6.83055 23.0965 7.54205C22.7175 7.90055 22.5 8.39805 22.5 8.90805V13.9915H9.5V8.90805C9.5 8.39805 9.283 7.90055 8.904 7.54255C8.151 6.83105 6.8495 6.83105 6.0965 7.54255C5.7175 7.90055 5.5 8.39805 5.5 8.90805V9.99155H4.425C3.9195 9.99155 3.4415 10.174 3.0785 10.5055C2.711 10.843 2.5 11.314 2.5 11.797V12.491H1.78C1.294 12.491 0.824 12.7205 0.4905 13.121C0.1745 13.501 0 14.0005 0 14.527V17.455C0 17.9815 0.1745 18.481 0.491 18.861C0.8245 19.2615 1.2945 19.491 1.78 19.491H2.5V20.185C2.5 20.668 2.711 21.139 3.0795 21.4775C3.4415 21.8085 3.9195 21.991 4.425 21.991H5.5V23.0745C5.5 23.5845 5.7175 24.082 6.096 24.4395C6.4725 24.795 6.971 24.991 7.5 24.991C8.029 24.991 8.5275 24.795 8.904 24.4395C9.283 24.0815 9.5 23.584 9.5 23.0745V17.991H22.5V23.0745C22.5 23.5845 22.7175 24.082 23.096 24.4395C23.4725 24.795 23.971 24.991 24.5 24.991C25.029 24.991 25.5275 24.795 25.904 24.4395C26.2825 24.0815 26.5 23.584 26.5 23.0745V21.991H27.4585C28.584 21.991 29.5 21.133 29.5 20.078V19.491H30.227C30.7105 19.491 31.1785 19.262 31.5115 18.8635C31.8265 18.485 32.0005 17.988 32.0005 17.4635V14.519C32 13.9945 31.8265 13.497 31.511 13.1185ZM1.78 18.491C1.5895 18.491 1.4045 18.395 1.2595 18.221C1.0945 18.0235 1 17.744 1 17.455V14.527C1 14.238 1.0945 13.959 1.2595 13.761C1.4045 13.587 1.5895 13.491 1.78 13.491H2.5V18.491H1.78ZM4.425 20.991C4.1735 20.991 3.929 20.8995 3.7555 20.7405C3.5905 20.589 3.5 20.392 3.5 20.185V18.991V12.991V11.797C3.5 11.59 3.5905 11.3925 3.7545 11.242C3.9295 11.0825 4.1735 10.991 4.425 10.991H5.5V20.991H4.425ZM8.5 23.0745C8.5 23.314 8.3995 23.5405 8.2175 23.7125C7.8425 24.0665 7.158 24.0665 6.783 23.7125C6.6005 23.5405 6.5 23.3135 6.5 23.0745V21.491V10.491V8.90755C6.5 8.66805 6.6005 8.44155 6.7825 8.26955C6.97 8.09255 7.2315 7.99105 7.5 7.99105C7.7685 7.99105 8.03 8.09255 8.2175 8.26955C8.3995 8.44155 8.5 8.66855 8.5 8.90805V14.4915V17.4915V23.0745ZM9.5 16.991V14.991H22.5V16.991H9.5ZM25.5 23.0745C25.5 23.314 25.3995 23.5405 25.2175 23.7125C24.8425 24.0665 24.158 24.0665 23.783 23.7125C23.6005 23.5405 23.5 23.3135 23.5 23.0745V17.491V14.491V8.90805C23.5 8.66855 23.6005 8.44205 23.7825 8.27005C23.97 8.09305 24.2315 7.99155 24.5 7.99155C24.7685 7.99155 25.03 8.09305 25.2175 8.27005C25.3995 8.44155 25.5 8.66855 25.5 8.90805V10.4915V21.4915V23.0745ZM28.5 20.078C28.5 20.5815 28.033 20.991 27.4585 20.991H26.5V10.991H27.4585C28.0325 10.991 28.5 11.4005 28.5 11.904V12.991V18.991V20.078ZM31 17.463C31 17.75 30.906 18.0265 30.743 18.223C30.599 18.396 30.4155 18.491 30.227 18.491H29.5V13.491H30.227C30.4155 13.491 30.599 13.586 30.743 13.759C30.9065 13.955 31 14.232 31 14.519V17.463Z" fill="#2C3848"/>
</g>
<defs>
<clipPath id="clip0">
<rect width="32" height="32" fill="white"/>
</clipPath>
</defs>
</svg>
